%TF.GenerationSoftware,KiCad,Pcbnew,7.0.9*%
%TF.CreationDate,2023-11-27T13:52:55+01:00*%
%TF.ProjectId,Avionus_Flight_Controller,4176696f-6e75-4735-9f46-6c696768745f,1.0*%
%TF.SameCoordinates,Original*%
%TF.FileFunction,Paste,Top*%
%TF.FilePolarity,Positive*%
%FSLAX46Y46*%
G04 Gerber Fmt 4.6, Leading zero omitted, Abs format (unit mm)*
G04 Created by KiCad (PCBNEW 7.0.9) date 2023-11-27 13:52:55*
%MOMM*%
%LPD*%
G01*
G04 APERTURE LIST*
G04 Aperture macros list*
%AMRoundRect*
0 Rectangle with rounded corners*
0 $1 Rounding radius*
0 $2 $3 $4 $5 $6 $7 $8 $9 X,Y pos of 4 corners*
0 Add a 4 corners polygon primitive as box body*
4,1,4,$2,$3,$4,$5,$6,$7,$8,$9,$2,$3,0*
0 Add four circle primitives for the rounded corners*
1,1,$1+$1,$2,$3*
1,1,$1+$1,$4,$5*
1,1,$1+$1,$6,$7*
1,1,$1+$1,$8,$9*
0 Add four rect primitives between the rounded corners*
20,1,$1+$1,$2,$3,$4,$5,0*
20,1,$1+$1,$4,$5,$6,$7,0*
20,1,$1+$1,$6,$7,$8,$9,0*
20,1,$1+$1,$8,$9,$2,$3,0*%
G04 Aperture macros list end*
%ADD10RoundRect,0.200000X-0.200000X-0.275000X0.200000X-0.275000X0.200000X0.275000X-0.200000X0.275000X0*%
%ADD11RoundRect,0.250000X0.262500X0.450000X-0.262500X0.450000X-0.262500X-0.450000X0.262500X-0.450000X0*%
%ADD12R,0.500000X0.600000*%
%ADD13RoundRect,0.225000X0.250000X-0.225000X0.250000X0.225000X-0.250000X0.225000X-0.250000X-0.225000X0*%
%ADD14RoundRect,0.250000X-0.625000X0.375000X-0.625000X-0.375000X0.625000X-0.375000X0.625000X0.375000X0*%
%ADD15RoundRect,0.225000X0.225000X0.250000X-0.225000X0.250000X-0.225000X-0.250000X0.225000X-0.250000X0*%
%ADD16RoundRect,0.150000X0.512500X0.150000X-0.512500X0.150000X-0.512500X-0.150000X0.512500X-0.150000X0*%
%ADD17RoundRect,0.200000X0.275000X-0.200000X0.275000X0.200000X-0.275000X0.200000X-0.275000X-0.200000X0*%
%ADD18RoundRect,0.250000X-0.262500X-0.450000X0.262500X-0.450000X0.262500X0.450000X-0.262500X0.450000X0*%
%ADD19RoundRect,0.250000X0.325000X0.650000X-0.325000X0.650000X-0.325000X-0.650000X0.325000X-0.650000X0*%
%ADD20RoundRect,0.225000X-0.250000X0.225000X-0.250000X-0.225000X0.250000X-0.225000X0.250000X0.225000X0*%
%ADD21RoundRect,0.150000X0.150000X-0.825000X0.150000X0.825000X-0.150000X0.825000X-0.150000X-0.825000X0*%
%ADD22R,0.600000X0.500000*%
%ADD23RoundRect,0.250000X-0.250000X-0.475000X0.250000X-0.475000X0.250000X0.475000X-0.250000X0.475000X0*%
%ADD24RoundRect,0.150000X-0.825000X-0.150000X0.825000X-0.150000X0.825000X0.150000X-0.825000X0.150000X0*%
%ADD25RoundRect,0.250000X0.450000X-0.262500X0.450000X0.262500X-0.450000X0.262500X-0.450000X-0.262500X0*%
%ADD26RoundRect,0.160000X-0.160000X0.197500X-0.160000X-0.197500X0.160000X-0.197500X0.160000X0.197500X0*%
%ADD27RoundRect,0.200000X-0.275000X0.200000X-0.275000X-0.200000X0.275000X-0.200000X0.275000X0.200000X0*%
%ADD28RoundRect,0.150000X-0.512500X-0.150000X0.512500X-0.150000X0.512500X0.150000X-0.512500X0.150000X0*%
%ADD29RoundRect,0.250000X0.375000X0.625000X-0.375000X0.625000X-0.375000X-0.625000X0.375000X-0.625000X0*%
%ADD30RoundRect,0.150000X-0.150000X0.512500X-0.150000X-0.512500X0.150000X-0.512500X0.150000X0.512500X0*%
%ADD31RoundRect,0.250000X0.475000X-0.250000X0.475000X0.250000X-0.475000X0.250000X-0.475000X-0.250000X0*%
%ADD32RoundRect,0.250000X1.400000X1.000000X-1.400000X1.000000X-1.400000X-1.000000X1.400000X-1.000000X0*%
%ADD33RoundRect,0.155000X-0.212500X-0.155000X0.212500X-0.155000X0.212500X0.155000X-0.212500X0.155000X0*%
%ADD34RoundRect,0.250000X-0.375000X-0.625000X0.375000X-0.625000X0.375000X0.625000X-0.375000X0.625000X0*%
%ADD35RoundRect,0.050000X0.050000X-0.225000X0.050000X0.225000X-0.050000X0.225000X-0.050000X-0.225000X0*%
%ADD36RoundRect,0.050000X0.225000X0.050000X-0.225000X0.050000X-0.225000X-0.050000X0.225000X-0.050000X0*%
%ADD37RoundRect,0.250000X-0.475000X0.250000X-0.475000X-0.250000X0.475000X-0.250000X0.475000X0.250000X0*%
%ADD38RoundRect,0.150000X0.587500X0.150000X-0.587500X0.150000X-0.587500X-0.150000X0.587500X-0.150000X0*%
%ADD39RoundRect,0.150000X0.150000X-0.512500X0.150000X0.512500X-0.150000X0.512500X-0.150000X-0.512500X0*%
%ADD40RoundRect,0.200000X0.200000X0.275000X-0.200000X0.275000X-0.200000X-0.275000X0.200000X-0.275000X0*%
%ADD41R,3.200000X2.800000*%
%ADD42RoundRect,0.250000X-0.450000X0.262500X-0.450000X-0.262500X0.450000X-0.262500X0.450000X0.262500X0*%
%ADD43RoundRect,0.250000X0.325000X1.100000X-0.325000X1.100000X-0.325000X-1.100000X0.325000X-1.100000X0*%
%ADD44RoundRect,0.155000X0.212500X0.155000X-0.212500X0.155000X-0.212500X-0.155000X0.212500X-0.155000X0*%
%ADD45RoundRect,0.250000X0.250000X0.475000X-0.250000X0.475000X-0.250000X-0.475000X0.250000X-0.475000X0*%
%ADD46R,1.150000X0.300000*%
%ADD47R,2.000000X2.180000*%
%ADD48RoundRect,0.225000X-0.225000X-0.250000X0.225000X-0.250000X0.225000X0.250000X-0.225000X0.250000X0*%
%ADD49RoundRect,0.160000X0.160000X-0.222500X0.160000X0.222500X-0.160000X0.222500X-0.160000X-0.222500X0*%
%ADD50R,0.650000X1.525000*%
%ADD51RoundRect,0.250000X-1.000000X1.400000X-1.000000X-1.400000X1.000000X-1.400000X1.000000X1.400000X0*%
%ADD52RoundRect,0.600000X0.600000X-1.350000X0.600000X1.350000X-0.600000X1.350000X-0.600000X-1.350000X0*%
%ADD53R,1.000000X1.000000*%
%ADD54RoundRect,0.140000X-0.170000X0.140000X-0.170000X-0.140000X0.170000X-0.140000X0.170000X0.140000X0*%
%ADD55RoundRect,0.075000X0.662500X0.075000X-0.662500X0.075000X-0.662500X-0.075000X0.662500X-0.075000X0*%
%ADD56RoundRect,0.075000X0.075000X0.662500X-0.075000X0.662500X-0.075000X-0.662500X0.075000X-0.662500X0*%
%ADD57RoundRect,0.178000X1.072000X0.712000X-1.072000X0.712000X-1.072000X-0.712000X1.072000X-0.712000X0*%
%ADD58RoundRect,0.250000X1.100000X-0.325000X1.100000X0.325000X-1.100000X0.325000X-1.100000X-0.325000X0*%
%ADD59RoundRect,0.175000X0.175000X-0.725000X0.175000X0.725000X-0.175000X0.725000X-0.175000X-0.725000X0*%
%ADD60RoundRect,0.200000X0.200000X-0.700000X0.200000X0.700000X-0.200000X0.700000X-0.200000X-0.700000X0*%
%ADD61R,2.790000X0.740000*%
G04 APERTURE END LIST*
D10*
%TO.C,R207*%
X76886300Y-39175800D03*
X78536300Y-39175800D03*
%TD*%
D11*
%TO.C,R1221*%
X40917500Y-59690000D03*
X39092500Y-59690000D03*
%TD*%
D12*
%TO.C,Q1505*%
X73906000Y-72248000D03*
X72906000Y-72248000D03*
X73406000Y-73548000D03*
%TD*%
D11*
%TO.C,R1228*%
X113307500Y-86360000D03*
X111482500Y-86360000D03*
%TD*%
D13*
%TO.C,C212*%
X68580000Y-113678000D03*
X68580000Y-112128000D03*
%TD*%
D14*
%TO.C,D208*%
X59563000Y-106931000D03*
X59563000Y-109731000D03*
%TD*%
D15*
%TO.C,C208*%
X71641000Y-40690800D03*
X70091000Y-40690800D03*
%TD*%
D12*
%TO.C,Q1102*%
X61460000Y-112380000D03*
X60460000Y-112380000D03*
X60960000Y-113680000D03*
%TD*%
D16*
%TO.C,U1402*%
X44317500Y-113751400D03*
X44317500Y-112801400D03*
X44317500Y-111851400D03*
X42042500Y-111851400D03*
X42042500Y-112801400D03*
X42042500Y-113751400D03*
%TD*%
D12*
%TO.C,Q1101*%
X52570000Y-112380000D03*
X51570000Y-112380000D03*
X52070000Y-113680000D03*
%TD*%
D17*
%TO.C,R221*%
X98044000Y-118046000D03*
X98044000Y-116396000D03*
%TD*%
D18*
%TO.C,R1218*%
X39092500Y-63500000D03*
X40917500Y-63500000D03*
%TD*%
D16*
%TO.C,U402*%
X38881900Y-105293200D03*
X38881900Y-104343200D03*
X38881900Y-103393200D03*
X36606900Y-103393200D03*
X36606900Y-104343200D03*
X36606900Y-105293200D03*
%TD*%
D19*
%TO.C,C202*%
X90565500Y-34934000D03*
X87615500Y-34934000D03*
%TD*%
D20*
%TO.C,C220*%
X90678000Y-41770000D03*
X90678000Y-43320000D03*
%TD*%
D10*
%TO.C,R217*%
X80150200Y-55168800D03*
X81800200Y-55168800D03*
%TD*%
D21*
%TO.C,U209*%
X96901000Y-124903000D03*
X98171000Y-124903000D03*
X99441000Y-124903000D03*
X100711000Y-124903000D03*
X100711000Y-119953000D03*
X99441000Y-119953000D03*
X98171000Y-119953000D03*
X96901000Y-119953000D03*
%TD*%
D11*
%TO.C,R1223*%
X40917500Y-77470000D03*
X39092500Y-77470000D03*
%TD*%
D22*
%TO.C,Q1215*%
X112380000Y-74430000D03*
X112380000Y-75430000D03*
X113680000Y-74930000D03*
%TD*%
D11*
%TO.C,R1226*%
X113307500Y-68580000D03*
X111482500Y-68580000D03*
%TD*%
D22*
%TO.C,Q1212*%
X40020000Y-84320000D03*
X40020000Y-83320000D03*
X38720000Y-83820000D03*
%TD*%
D17*
%TO.C,R229*%
X56642000Y-43116000D03*
X56642000Y-41466000D03*
%TD*%
D23*
%TO.C,C218*%
X83317000Y-58420000D03*
X85217000Y-58420000D03*
%TD*%
D24*
%TO.C,U208*%
X83758000Y-42418000D03*
X83758000Y-43688000D03*
X83758000Y-44958000D03*
X83758000Y-46228000D03*
X88708000Y-46228000D03*
X88708000Y-44958000D03*
X88708000Y-43688000D03*
X88708000Y-42418000D03*
%TD*%
D25*
%TO.C,R1204*%
X116586000Y-113180500D03*
X116586000Y-111355500D03*
%TD*%
D11*
%TO.C,R228*%
X56157500Y-44831000D03*
X54332500Y-44831000D03*
%TD*%
D10*
%TO.C,R303*%
X60185800Y-83261200D03*
X61835800Y-83261200D03*
%TD*%
D26*
%TO.C,R1001*%
X35558000Y-37260500D03*
X35558000Y-38455500D03*
%TD*%
D25*
%TO.C,R1214*%
X122682000Y-113180500D03*
X122682000Y-111355500D03*
%TD*%
D11*
%TO.C,R1224*%
X40917500Y-86360000D03*
X39092500Y-86360000D03*
%TD*%
D18*
%TO.C,R210*%
X84114000Y-35569000D03*
X85939000Y-35569000D03*
%TD*%
D11*
%TO.C,R202*%
X71905500Y-109347000D03*
X70080500Y-109347000D03*
%TD*%
D18*
%TO.C,R1220*%
X39092500Y-81280000D03*
X40917500Y-81280000D03*
%TD*%
D25*
%TO.C,R1202*%
X108458000Y-113180500D03*
X108458000Y-111355500D03*
%TD*%
D27*
%TO.C,R304*%
X81950000Y-104331000D03*
X81950000Y-105981000D03*
%TD*%
D23*
%TO.C,C210*%
X79060000Y-67564000D03*
X80960000Y-67564000D03*
%TD*%
D25*
%TO.C,R1206*%
X106426000Y-113180500D03*
X106426000Y-111355500D03*
%TD*%
D28*
%TO.C,U207*%
X83378000Y-54742000D03*
X83378000Y-55692000D03*
X83378000Y-56642000D03*
X85653000Y-56642000D03*
X85653000Y-54742000D03*
%TD*%
D25*
%TO.C,R1215*%
X54849000Y-40583000D03*
X54849000Y-38758000D03*
%TD*%
D18*
%TO.C,R208*%
X75541500Y-67056000D03*
X77366500Y-67056000D03*
%TD*%
D17*
%TO.C,R206*%
X75476100Y-40762800D03*
X75476100Y-39112800D03*
%TD*%
D13*
%TO.C,C224*%
X99568000Y-117996000D03*
X99568000Y-116446000D03*
%TD*%
D20*
%TO.C,C305*%
X65176400Y-101790200D03*
X65176400Y-103340200D03*
%TD*%
D25*
%TO.C,R1209*%
X120650000Y-113180500D03*
X120650000Y-111355500D03*
%TD*%
D20*
%TO.C,C221*%
X96520000Y-116446000D03*
X96520000Y-117996000D03*
%TD*%
D17*
%TO.C,R222*%
X86055200Y-40957000D03*
X86055200Y-39307000D03*
%TD*%
D12*
%TO.C,Q1205*%
X120134000Y-116190000D03*
X119134000Y-116190000D03*
X119634000Y-117490000D03*
%TD*%
D14*
%TO.C,D205*%
X42291000Y-40510000D03*
X42291000Y-43310000D03*
%TD*%
D20*
%TO.C,C316*%
X78450000Y-104381000D03*
X78450000Y-105931000D03*
%TD*%
D29*
%TO.C,D204*%
X89665000Y-48260000D03*
X86865000Y-48260000D03*
%TD*%
D30*
%TO.C,U201*%
X100772000Y-99827500D03*
X99822000Y-99827500D03*
X98872000Y-99827500D03*
X98872000Y-102102500D03*
X100772000Y-102102500D03*
%TD*%
D15*
%TO.C,C308*%
X66307000Y-80924400D03*
X64757000Y-80924400D03*
%TD*%
D31*
%TO.C,C203*%
X102616000Y-102296000D03*
X102616000Y-100396000D03*
%TD*%
D32*
%TO.C,D202*%
X65214500Y-42779000D03*
X65214500Y-35979000D03*
%TD*%
D25*
%TO.C,R1205*%
X102362000Y-113180500D03*
X102362000Y-111355500D03*
%TD*%
D30*
%TO.C,U205*%
X77404000Y-68966500D03*
X76454000Y-68966500D03*
X75504000Y-68966500D03*
X75504000Y-71241500D03*
X77404000Y-71241500D03*
%TD*%
D12*
%TO.C,Q1203*%
X112006000Y-116190000D03*
X111006000Y-116190000D03*
X111506000Y-117490000D03*
%TD*%
D33*
%TO.C,C1001*%
X34423000Y-36080000D03*
X35558000Y-36080000D03*
%TD*%
D18*
%TO.C,R1217*%
X39092500Y-54610000D03*
X40917500Y-54610000D03*
%TD*%
D34*
%TO.C,D206*%
X102486000Y-98425000D03*
X105286000Y-98425000D03*
%TD*%
D12*
%TO.C,Q1202*%
X107942000Y-116190000D03*
X106942000Y-116190000D03*
X107442000Y-117490000D03*
%TD*%
D10*
%TO.C,R223*%
X96457000Y-114985800D03*
X98107000Y-114985800D03*
%TD*%
D35*
%TO.C,U1501*%
X75200000Y-77700000D03*
X75600000Y-77700000D03*
X76000000Y-77700000D03*
X76400000Y-77700000D03*
X76800000Y-77700000D03*
X77200000Y-77700000D03*
D36*
X77700000Y-77200000D03*
X77700000Y-76800000D03*
X77700000Y-76400000D03*
X77700000Y-76000000D03*
X77700000Y-75600000D03*
X77700000Y-75200000D03*
D35*
X77200000Y-74700000D03*
X76800000Y-74700000D03*
X76400000Y-74700000D03*
X76000000Y-74700000D03*
X75600000Y-74700000D03*
X75200000Y-74700000D03*
D36*
X74700000Y-75200000D03*
X74700000Y-75600000D03*
X74700000Y-76000000D03*
X74700000Y-76400000D03*
X74700000Y-76800000D03*
X74700000Y-77200000D03*
%TD*%
D11*
%TO.C,R1501*%
X80922500Y-71628000D03*
X79097500Y-71628000D03*
%TD*%
D22*
%TO.C,Q1216*%
X112380000Y-83320000D03*
X112380000Y-84320000D03*
X113680000Y-83820000D03*
%TD*%
D37*
%TO.C,C321*%
X73450000Y-104460000D03*
X73450000Y-106360000D03*
%TD*%
D38*
%TO.C,D201*%
X94473000Y-36519000D03*
X94473000Y-34619000D03*
X92598000Y-35569000D03*
%TD*%
D12*
%TO.C,Q1206*%
X124198000Y-116190000D03*
X123198000Y-116190000D03*
X123698000Y-117490000D03*
%TD*%
D25*
%TO.C,R1502*%
X68326000Y-70762500D03*
X68326000Y-68937500D03*
%TD*%
D12*
%TO.C,Q1201*%
X103878000Y-116190000D03*
X102878000Y-116190000D03*
X103378000Y-117490000D03*
%TD*%
D31*
%TO.C,C215*%
X38608000Y-47559000D03*
X38608000Y-45659000D03*
%TD*%
D39*
%TO.C,U1201*%
X108524000Y-109595500D03*
X109474000Y-109595500D03*
X110424000Y-109595500D03*
X110424000Y-107320500D03*
X109474000Y-107320500D03*
X108524000Y-107320500D03*
%TD*%
D31*
%TO.C,C209*%
X38608000Y-50988000D03*
X38608000Y-49088000D03*
%TD*%
D40*
%TO.C,R302*%
X92392000Y-96266000D03*
X90742000Y-96266000D03*
%TD*%
D25*
%TO.C,R1208*%
X114554000Y-113180500D03*
X114554000Y-111355500D03*
%TD*%
D41*
%TO.C,L201*%
X72275700Y-43132200D03*
X72275700Y-48732200D03*
%TD*%
D40*
%TO.C,R301*%
X92392000Y-97790000D03*
X90742000Y-97790000D03*
%TD*%
D18*
%TO.C,R1503*%
X82145500Y-75692000D03*
X83970500Y-75692000D03*
%TD*%
D42*
%TO.C,R1306*%
X42418000Y-36933500D03*
X42418000Y-38758500D03*
%TD*%
D18*
%TO.C,R1231*%
X111507900Y-71628000D03*
X113332900Y-71628000D03*
%TD*%
%TO.C,R1506*%
X81637500Y-73660000D03*
X83462500Y-73660000D03*
%TD*%
%TO.C,R1219*%
X39092500Y-72390000D03*
X40917500Y-72390000D03*
%TD*%
D12*
%TO.C,Q1503*%
X82999200Y-77328000D03*
X81999200Y-77328000D03*
X82499200Y-78628000D03*
%TD*%
D39*
%TO.C,U1202*%
X120716000Y-109595500D03*
X121666000Y-109595500D03*
X122616000Y-109595500D03*
X122616000Y-107320500D03*
X121666000Y-107320500D03*
X120716000Y-107320500D03*
%TD*%
D25*
%TO.C,R232*%
X104648000Y-102258500D03*
X104648000Y-100433500D03*
%TD*%
D22*
%TO.C,Q1501*%
X78852000Y-73414000D03*
X78852000Y-74414000D03*
X80152000Y-73914000D03*
%TD*%
D12*
%TO.C,Q1204*%
X116070000Y-116190000D03*
X115070000Y-116190000D03*
X115570000Y-117490000D03*
%TD*%
D14*
%TO.C,D209*%
X84836000Y-110741000D03*
X84836000Y-113541000D03*
%TD*%
D43*
%TO.C,C219*%
X67705500Y-45983000D03*
X64755500Y-45983000D03*
%TD*%
D23*
%TO.C,C303*%
X64582000Y-79197200D03*
X66482000Y-79197200D03*
%TD*%
D25*
%TO.C,R1207*%
X110490000Y-113180500D03*
X110490000Y-111355500D03*
%TD*%
D44*
%TO.C,C1002*%
X35558000Y-32524000D03*
X34423000Y-32524000D03*
%TD*%
D45*
%TO.C,C206*%
X68348900Y-33435400D03*
X66448900Y-33435400D03*
%TD*%
D46*
%TO.C,J801*%
X33946972Y-92037600D03*
X33946972Y-92837600D03*
X33946972Y-94137600D03*
X33946972Y-95137600D03*
X33946972Y-95637600D03*
X33946972Y-96637600D03*
X33946972Y-97937600D03*
X33946972Y-98737600D03*
X33946972Y-98437600D03*
X33946972Y-97637600D03*
X33946972Y-97137600D03*
X33946972Y-96137600D03*
X33946972Y-94637600D03*
X33946972Y-93637600D03*
X33946972Y-93137600D03*
X33946972Y-92337600D03*
D47*
X33371972Y-90277600D03*
X29441972Y-90277600D03*
X33371972Y-100497600D03*
X29441972Y-100497600D03*
%TD*%
D25*
%TO.C,R1213*%
X118618000Y-113180500D03*
X118618000Y-111355500D03*
%TD*%
D11*
%TO.C,R1225*%
X113307500Y-59690000D03*
X111482500Y-59690000D03*
%TD*%
D15*
%TO.C,C307*%
X63767000Y-88685000D03*
X62217000Y-88685000D03*
%TD*%
D39*
%TO.C,U1101*%
X55641200Y-109798700D03*
X56591200Y-109798700D03*
X57541200Y-109798700D03*
X57541200Y-107523700D03*
X56591200Y-107523700D03*
X55641200Y-107523700D03*
%TD*%
D11*
%TO.C,R234*%
X63396500Y-109728000D03*
X61571500Y-109728000D03*
%TD*%
%TO.C,R205*%
X77303000Y-34299000D03*
X75478000Y-34299000D03*
%TD*%
D22*
%TO.C,Q1210*%
X40020000Y-66540000D03*
X40020000Y-65540000D03*
X38720000Y-66040000D03*
%TD*%
D15*
%TO.C,C1503*%
X76975000Y-73406000D03*
X75425000Y-73406000D03*
%TD*%
D48*
%TO.C,C1501*%
X78981000Y-75946000D03*
X80531000Y-75946000D03*
%TD*%
%TO.C,C309*%
X84416600Y-79451200D03*
X85966600Y-79451200D03*
%TD*%
D18*
%TO.C,R1230*%
X111482500Y-63500000D03*
X113307500Y-63500000D03*
%TD*%
D49*
%TO.C,L1001*%
X35558000Y-34874500D03*
X35558000Y-33729500D03*
%TD*%
D50*
%TO.C,U202*%
X70040500Y-38916000D03*
X71310500Y-38916000D03*
X72580500Y-38916000D03*
X73850500Y-38916000D03*
X73850500Y-33492000D03*
X72580500Y-33492000D03*
X71310500Y-33492000D03*
X70040500Y-33492000D03*
%TD*%
D18*
%TO.C,R1229*%
X111482500Y-54610000D03*
X113307500Y-54610000D03*
%TD*%
D25*
%TO.C,R1102*%
X58420000Y-113307500D03*
X58420000Y-111482500D03*
%TD*%
D18*
%TO.C,R230*%
X83288500Y-48006000D03*
X85113500Y-48006000D03*
%TD*%
D25*
%TO.C,R1505*%
X73406000Y-70762500D03*
X73406000Y-68937500D03*
%TD*%
D42*
%TO.C,R1212*%
X88900000Y-111482500D03*
X88900000Y-113307500D03*
%TD*%
D12*
%TO.C,Q1207*%
X56889000Y-39963000D03*
X57889000Y-39963000D03*
X57389000Y-38663000D03*
%TD*%
D42*
%TO.C,R1216*%
X93980000Y-111482500D03*
X93980000Y-113307500D03*
%TD*%
D39*
%TO.C,U203*%
X70170000Y-113532500D03*
X71120000Y-113532500D03*
X72070000Y-113532500D03*
X72070000Y-111257500D03*
X70170000Y-111257500D03*
%TD*%
D12*
%TO.C,Q1502*%
X68826000Y-72248000D03*
X67826000Y-72248000D03*
X68326000Y-73548000D03*
%TD*%
D51*
%TO.C,D203*%
X74545400Y-55854600D03*
X67745400Y-55854600D03*
%TD*%
D23*
%TO.C,C213*%
X83317000Y-52959000D03*
X85217000Y-52959000D03*
%TD*%
D25*
%TO.C,R1203*%
X112522000Y-113180500D03*
X112522000Y-111355500D03*
%TD*%
D23*
%TO.C,C216*%
X79060000Y-69596000D03*
X80960000Y-69596000D03*
%TD*%
D11*
%TO.C,R1227*%
X113307500Y-77470000D03*
X111482500Y-77470000D03*
%TD*%
D31*
%TO.C,C304*%
X63449200Y-103515200D03*
X63449200Y-101615200D03*
%TD*%
D52*
%TO.C,BT201*%
X49530000Y-49658000D03*
X49530000Y-65658000D03*
%TD*%
D25*
%TO.C,R1101*%
X49530000Y-113307500D03*
X49530000Y-111482500D03*
%TD*%
D42*
%TO.C,R1211*%
X59929000Y-38758000D03*
X59929000Y-40583000D03*
%TD*%
D25*
%TO.C,R204*%
X97155000Y-99591500D03*
X97155000Y-97766500D03*
%TD*%
%TO.C,R203*%
X73787000Y-113688500D03*
X73787000Y-111863500D03*
%TD*%
D20*
%TO.C,C223*%
X90678000Y-44818000D03*
X90678000Y-46368000D03*
%TD*%
D53*
%TO.C,AE1001*%
X30925200Y-26454800D03*
X31455200Y-30784800D03*
X34925200Y-26454800D03*
X38425200Y-26454800D03*
X35555200Y-30784800D03*
X38555200Y-30784800D03*
%TD*%
D17*
%TO.C,R220*%
X84582000Y-40957000D03*
X84582000Y-39307000D03*
%TD*%
D10*
%TO.C,R225*%
X82487000Y-71678800D03*
X84137000Y-71678800D03*
%TD*%
D45*
%TO.C,C201*%
X100772000Y-97917000D03*
X98872000Y-97917000D03*
%TD*%
D25*
%TO.C,R1210*%
X124714000Y-113180500D03*
X124714000Y-111355500D03*
%TD*%
D20*
%TO.C,C204*%
X68580000Y-109080000D03*
X68580000Y-110630000D03*
%TD*%
D22*
%TO.C,Q1211*%
X40020000Y-75430000D03*
X40020000Y-74430000D03*
X38720000Y-74930000D03*
%TD*%
D42*
%TO.C,R1104*%
X63500000Y-111482500D03*
X63500000Y-113307500D03*
%TD*%
%TO.C,R1103*%
X54610000Y-111482500D03*
X54610000Y-113307500D03*
%TD*%
D48*
%TO.C,C1502*%
X78981000Y-77470000D03*
X80531000Y-77470000D03*
%TD*%
D18*
%TO.C,R1232*%
X111482500Y-81280000D03*
X113307500Y-81280000D03*
%TD*%
D54*
%TO.C,C207*%
X78676500Y-34553000D03*
X78676500Y-35513000D03*
%TD*%
D22*
%TO.C,Q1213*%
X112380000Y-56650000D03*
X112380000Y-57650000D03*
X113680000Y-57150000D03*
%TD*%
%TO.C,Q1214*%
X112380000Y-65540000D03*
X112380000Y-66540000D03*
X113680000Y-66040000D03*
%TD*%
D12*
%TO.C,Q201*%
X55237000Y-42022000D03*
X54237000Y-42022000D03*
X54737000Y-43322000D03*
%TD*%
D55*
%TO.C,U301*%
X86862500Y-100685000D03*
X86862500Y-100185000D03*
X86862500Y-99685000D03*
X86862500Y-99185000D03*
X86862500Y-98685000D03*
X86862500Y-98185000D03*
X86862500Y-97685000D03*
X86862500Y-97185000D03*
X86862500Y-96685000D03*
X86862500Y-96185000D03*
X86862500Y-95685000D03*
X86862500Y-95185000D03*
X86862500Y-94685000D03*
X86862500Y-94185000D03*
X86862500Y-93685000D03*
X86862500Y-93185000D03*
X86862500Y-92685000D03*
X86862500Y-92185000D03*
X86862500Y-91685000D03*
X86862500Y-91185000D03*
X86862500Y-90685000D03*
X86862500Y-90185000D03*
X86862500Y-89685000D03*
X86862500Y-89185000D03*
X86862500Y-88685000D03*
X86862500Y-88185000D03*
X86862500Y-87685000D03*
X86862500Y-87185000D03*
X86862500Y-86685000D03*
X86862500Y-86185000D03*
X86862500Y-85685000D03*
X86862500Y-85185000D03*
X86862500Y-84685000D03*
X86862500Y-84185000D03*
X86862500Y-83685000D03*
X86862500Y-83185000D03*
D56*
X84950000Y-81272500D03*
X84450000Y-81272500D03*
X83950000Y-81272500D03*
X83450000Y-81272500D03*
X82950000Y-81272500D03*
X82450000Y-81272500D03*
X81950000Y-81272500D03*
X81450000Y-81272500D03*
X80950000Y-81272500D03*
X80450000Y-81272500D03*
X79950000Y-81272500D03*
X79450000Y-81272500D03*
X78950000Y-81272500D03*
X78450000Y-81272500D03*
X77950000Y-81272500D03*
X77450000Y-81272500D03*
X76950000Y-81272500D03*
X76450000Y-81272500D03*
X75950000Y-81272500D03*
X75450000Y-81272500D03*
X74950000Y-81272500D03*
X74450000Y-81272500D03*
X73950000Y-81272500D03*
X73450000Y-81272500D03*
X72950000Y-81272500D03*
X72450000Y-81272500D03*
X71950000Y-81272500D03*
X71450000Y-81272500D03*
X70950000Y-81272500D03*
X70450000Y-81272500D03*
X69950000Y-81272500D03*
X69450000Y-81272500D03*
X68950000Y-81272500D03*
X68450000Y-81272500D03*
X67950000Y-81272500D03*
X67450000Y-81272500D03*
D55*
X65537500Y-83185000D03*
X65537500Y-83685000D03*
X65537500Y-84185000D03*
X65537500Y-84685000D03*
X65537500Y-85185000D03*
X65537500Y-85685000D03*
X65537500Y-86185000D03*
X65537500Y-86685000D03*
X65537500Y-87185000D03*
X65537500Y-87685000D03*
X65537500Y-88185000D03*
X65537500Y-88685000D03*
X65537500Y-89185000D03*
X65537500Y-89685000D03*
X65537500Y-90185000D03*
X65537500Y-90685000D03*
X65537500Y-91185000D03*
X65537500Y-91685000D03*
X65537500Y-92185000D03*
X65537500Y-92685000D03*
X65537500Y-93185000D03*
X65537500Y-93685000D03*
X65537500Y-94185000D03*
X65537500Y-94685000D03*
X65537500Y-95185000D03*
X65537500Y-95685000D03*
X65537500Y-96185000D03*
X65537500Y-96685000D03*
X65537500Y-97185000D03*
X65537500Y-97685000D03*
X65537500Y-98185000D03*
X65537500Y-98685000D03*
X65537500Y-99185000D03*
X65537500Y-99685000D03*
X65537500Y-100185000D03*
X65537500Y-100685000D03*
D56*
X67450000Y-102597500D03*
X67950000Y-102597500D03*
X68450000Y-102597500D03*
X68950000Y-102597500D03*
X69450000Y-102597500D03*
X69950000Y-102597500D03*
X70450000Y-102597500D03*
X70950000Y-102597500D03*
X71450000Y-102597500D03*
X71950000Y-102597500D03*
X72450000Y-102597500D03*
X72950000Y-102597500D03*
X73450000Y-102597500D03*
X73950000Y-102597500D03*
X74450000Y-102597500D03*
X74950000Y-102597500D03*
X75450000Y-102597500D03*
X75950000Y-102597500D03*
X76450000Y-102597500D03*
X76950000Y-102597500D03*
X77450000Y-102597500D03*
X77950000Y-102597500D03*
X78450000Y-102597500D03*
X78950000Y-102597500D03*
X79450000Y-102597500D03*
X79950000Y-102597500D03*
X80450000Y-102597500D03*
X80950000Y-102597500D03*
X81450000Y-102597500D03*
X81950000Y-102597500D03*
X82450000Y-102597500D03*
X82950000Y-102597500D03*
X83450000Y-102597500D03*
X83950000Y-102597500D03*
X84450000Y-102597500D03*
X84950000Y-102597500D03*
%TD*%
D28*
%TO.C,U1401*%
X78872500Y-111775200D03*
X78872500Y-112725200D03*
X78872500Y-113675200D03*
X81147500Y-113675200D03*
X81147500Y-112725200D03*
X81147500Y-111775200D03*
%TD*%
D57*
%TO.C,U901*%
X115863000Y-46228000D03*
X115863000Y-43688000D03*
X115863000Y-41148000D03*
X115863000Y-38608000D03*
X115863000Y-36068000D03*
X115863000Y-33528000D03*
X115863000Y-30988000D03*
X115863000Y-28448000D03*
X98413000Y-28448000D03*
X98413000Y-30988000D03*
X98413000Y-33528000D03*
X98413000Y-36068000D03*
X98413000Y-38608000D03*
X98413000Y-41148000D03*
X98413000Y-43688000D03*
X98413000Y-46228000D03*
%TD*%
D58*
%TO.C,C214*%
X66167000Y-113616000D03*
X66167000Y-110666000D03*
%TD*%
D25*
%TO.C,R235*%
X86995000Y-113307500D03*
X86995000Y-111482500D03*
%TD*%
D12*
%TO.C,Q1208*%
X91940000Y-112380000D03*
X90940000Y-112380000D03*
X91440000Y-113680000D03*
%TD*%
D13*
%TO.C,C312*%
X72186800Y-79565800D03*
X72186800Y-78015800D03*
%TD*%
D18*
%TO.C,R1508*%
X84431500Y-77724000D03*
X86256500Y-77724000D03*
%TD*%
D11*
%TO.C,R201*%
X90003000Y-37093000D03*
X88178000Y-37093000D03*
%TD*%
D59*
%TO.C,U1001*%
X27858000Y-50470000D03*
D60*
X28958000Y-50470000D03*
X30058000Y-50470000D03*
X31158000Y-50470000D03*
X32258000Y-50470000D03*
X33358000Y-50470000D03*
X34458000Y-50470000D03*
X35558000Y-50470000D03*
D59*
X36658000Y-50470000D03*
X36658000Y-40970000D03*
D60*
X35558000Y-40970000D03*
X34458000Y-40970000D03*
X33358000Y-40970000D03*
X32258000Y-40970000D03*
X31158000Y-40970000D03*
X30058000Y-40970000D03*
X28958000Y-40970000D03*
D59*
X27858000Y-40970000D03*
%TD*%
D10*
%TO.C,R214*%
X85012000Y-37338000D03*
X86662000Y-37338000D03*
%TD*%
D12*
%TO.C,Q1504*%
X71366000Y-72248000D03*
X70366000Y-72248000D03*
X70866000Y-73548000D03*
%TD*%
D25*
%TO.C,R1201*%
X104394000Y-113180500D03*
X104394000Y-111355500D03*
%TD*%
D20*
%TO.C,C313*%
X86106000Y-102907800D03*
X86106000Y-104457800D03*
%TD*%
D16*
%TO.C,U801*%
X40163972Y-96337600D03*
X40163972Y-95387600D03*
X40163972Y-94437600D03*
X37888972Y-94437600D03*
X37888972Y-95387600D03*
X37888972Y-96337600D03*
%TD*%
D18*
%TO.C,R231*%
X38457500Y-43942000D03*
X40282500Y-43942000D03*
%TD*%
D16*
%TO.C,U401*%
X38881900Y-112405200D03*
X38881900Y-111455200D03*
X38881900Y-110505200D03*
X36606900Y-110505200D03*
X36606900Y-111455200D03*
X36606900Y-112405200D03*
%TD*%
D22*
%TO.C,Q1209*%
X40020000Y-57650000D03*
X40020000Y-56650000D03*
X38720000Y-57150000D03*
%TD*%
D11*
%TO.C,R1222*%
X40790500Y-69037200D03*
X38965500Y-69037200D03*
%TD*%
D40*
%TO.C,R213*%
X81800200Y-56642000D03*
X80150200Y-56642000D03*
%TD*%
D15*
%TO.C,C306*%
X63767000Y-94185000D03*
X62217000Y-94185000D03*
%TD*%
D25*
%TO.C,R1504*%
X70866000Y-70762500D03*
X70866000Y-68937500D03*
%TD*%
D39*
%TO.C,U204*%
X40452000Y-49397500D03*
X41402000Y-49397500D03*
X42352000Y-49397500D03*
X42352000Y-47122500D03*
X40452000Y-47122500D03*
%TD*%
D61*
%TO.C,J401*%
X28597400Y-104444800D03*
X32667400Y-104444800D03*
X28597400Y-105714800D03*
X32667400Y-105714800D03*
X28597400Y-106984800D03*
X32667400Y-106984800D03*
X28597400Y-108254800D03*
X32667400Y-108254800D03*
X28597400Y-109524800D03*
X32667400Y-109524800D03*
X28597400Y-110794800D03*
X32667400Y-110794800D03*
X28597400Y-112064800D03*
X32667400Y-112064800D03*
%TD*%
M02*
