%TF.GenerationSoftware,KiCad,Pcbnew,7.0.9*%
%TF.CreationDate,2023-11-27T13:55:03+01:00*%
%TF.ProjectId,Avionus_Flight_Controller,4176696f-6e75-4735-9f46-6c696768745f,1.0*%
%TF.SameCoordinates,Original*%
%TF.FileFunction,Drillmap*%
%TF.FilePolarity,Positive*%
%FSLAX45Y45*%
G04 Gerber Fmt 4.5, Leading zero omitted, Abs format (unit mm)*
G04 Created by KiCad (PCBNEW 7.0.9) date 2023-11-27 13:55:03*
%MOMM*%
%LPD*%
G01*
G04 APERTURE LIST*
%ADD10C,0.150000*%
%ADD11C,0.200000*%
%ADD12C,0.100000*%
%ADD13C,0.110000*%
%ADD14C,0.170000*%
%ADD15C,0.180000*%
G04 APERTURE END LIST*
D10*
X12446000Y-12700000D02*
X2794000Y-12700000D01*
X12700000Y-2794000D02*
G75*
G03*
X12446000Y-2540000I-254000J0D01*
G01*
X2794000Y-2540000D02*
X12446000Y-2540000D01*
X2794000Y-2540000D02*
G75*
G03*
X2540000Y-2794000I0J-254000D01*
G01*
X2540000Y-12446000D02*
X2540000Y-2794000D01*
X2540000Y-12446000D02*
G75*
G03*
X2794000Y-12700000I254000J0D01*
G01*
X12700000Y-2794000D02*
X12700000Y-12446000D01*
X12446000Y-12700000D02*
G75*
G03*
X12700000Y-12446000I0J254000D01*
G01*
D11*
D12*
X2621600Y-3256600D02*
X2661600Y-3296600D01*
X2661600Y-3256600D02*
X2621600Y-3296600D01*
X2621600Y-3663000D02*
X2661600Y-3703000D01*
X2661600Y-3663000D02*
X2621600Y-3703000D01*
X2702880Y-11308400D02*
X2742880Y-11348400D01*
X2742880Y-11308400D02*
X2702880Y-11348400D01*
X2723200Y-3459800D02*
X2763200Y-3499800D01*
X2763200Y-3459800D02*
X2723200Y-3499800D01*
X2753680Y-10307640D02*
X2793680Y-10347640D01*
X2793680Y-10307640D02*
X2753680Y-10347640D01*
X2763840Y-4811080D02*
X2803840Y-4851080D01*
X2803840Y-4811080D02*
X2763840Y-4851080D01*
X2763840Y-5242880D02*
X2803840Y-5282880D01*
X2803840Y-5242880D02*
X2763840Y-5282880D01*
X2768920Y-4358960D02*
X2808920Y-4398960D01*
X2808920Y-4358960D02*
X2768920Y-4398960D01*
X2794320Y-11963720D02*
X2834320Y-12003720D01*
X2834320Y-11963720D02*
X2794320Y-12003720D01*
X2794320Y-12471720D02*
X2834320Y-12511720D01*
X2834320Y-12471720D02*
X2794320Y-12511720D01*
X2824800Y-3663000D02*
X2864800Y-3703000D01*
X2864800Y-3663000D02*
X2824800Y-3703000D01*
X2850200Y-3256600D02*
X2890200Y-3296600D01*
X2890200Y-3256600D02*
X2850200Y-3296600D01*
X2875600Y-5171760D02*
X2915600Y-5211760D01*
X2915600Y-5171760D02*
X2875600Y-5211760D01*
X2901000Y-4196400D02*
X2941000Y-4236400D01*
X2941000Y-4196400D02*
X2901000Y-4236400D01*
X2951800Y-3459800D02*
X2991800Y-3499800D01*
X2991800Y-3459800D02*
X2951800Y-3499800D01*
X2987360Y-5171760D02*
X3027360Y-5211760D01*
X3027360Y-5171760D02*
X2987360Y-5211760D01*
X3002600Y-4196400D02*
X3042600Y-4236400D01*
X3042600Y-4196400D02*
X3002600Y-4236400D01*
X3017290Y-10762385D02*
X3057290Y-10802385D01*
X3057290Y-10762385D02*
X3017290Y-10802385D01*
X3017840Y-5649280D02*
X3057840Y-5689280D01*
X3057840Y-5649280D02*
X3017840Y-5689280D01*
X3017840Y-11420160D02*
X3057840Y-11460160D01*
X3057840Y-11420160D02*
X3017840Y-11460160D01*
X3020380Y-10625140D02*
X3060380Y-10665140D01*
X3060380Y-10625140D02*
X3020380Y-10665140D01*
X3028000Y-3256600D02*
X3068000Y-3296600D01*
X3068000Y-3256600D02*
X3028000Y-3296600D01*
X3028000Y-3663000D02*
X3068000Y-3703000D01*
X3068000Y-3663000D02*
X3028000Y-3703000D01*
X3028000Y-3866200D02*
X3068000Y-3906200D01*
X3068000Y-3866200D02*
X3028000Y-3906200D01*
X3037377Y-9193640D02*
X3077377Y-9233640D01*
X3077377Y-9193640D02*
X3037377Y-9233640D01*
X3047537Y-9848960D02*
X3087537Y-9888960D01*
X3087537Y-9848960D02*
X3047537Y-9888960D01*
X3078800Y-4597720D02*
X3118800Y-4637720D01*
X3118800Y-4597720D02*
X3078800Y-4637720D01*
X3088960Y-5888040D02*
X3128960Y-5928040D01*
X3128960Y-5888040D02*
X3088960Y-5928040D01*
X3093833Y-5746007D02*
X3133833Y-5786007D01*
X3133833Y-5746007D02*
X3093833Y-5786007D01*
X3114360Y-8834440D02*
X3154360Y-8874440D01*
X3154360Y-8834440D02*
X3114360Y-8874440D01*
X3114360Y-10216200D02*
X3154360Y-10256200D01*
X3154360Y-10216200D02*
X3114360Y-10256200D01*
X3129600Y-3459800D02*
X3169600Y-3499800D01*
X3169600Y-3459800D02*
X3129600Y-3499800D01*
X3203053Y-5946667D02*
X3243053Y-5986667D01*
X3243053Y-5946667D02*
X3203053Y-5986667D01*
X3231200Y-3256600D02*
X3271200Y-3296600D01*
X3271200Y-3256600D02*
X3231200Y-3296600D01*
X3231200Y-3663000D02*
X3271200Y-3703000D01*
X3271200Y-3663000D02*
X3231200Y-3703000D01*
X3231200Y-3866200D02*
X3271200Y-3906200D01*
X3271200Y-3866200D02*
X3231200Y-3906200D01*
X3236280Y-6065840D02*
X3276280Y-6105840D01*
X3276280Y-6065840D02*
X3236280Y-6105840D01*
X3260549Y-9709139D02*
X3300549Y-9749139D01*
X3300549Y-9709139D02*
X3260549Y-9749139D01*
X3260897Y-9391760D02*
X3300897Y-9431760D01*
X3300897Y-9391760D02*
X3260897Y-9431760D01*
X3297240Y-5735640D02*
X3337240Y-5775640D01*
X3337240Y-5735640D02*
X3297240Y-5775640D01*
X3332800Y-3459800D02*
X3372800Y-3499800D01*
X3372800Y-3459800D02*
X3332800Y-3499800D01*
X3388680Y-11374440D02*
X3428680Y-11414440D01*
X3428680Y-11374440D02*
X3388680Y-11414440D01*
X3403920Y-5298760D02*
X3443920Y-5338760D01*
X3443920Y-5298760D02*
X3403920Y-5338760D01*
X3424240Y-4369120D02*
X3464240Y-4409120D01*
X3464240Y-4369120D02*
X3424240Y-4409120D01*
X3424240Y-4811080D02*
X3464240Y-4851080D01*
X3464240Y-4811080D02*
X3424240Y-4851080D01*
X3434400Y-3663000D02*
X3474400Y-3703000D01*
X3474400Y-3663000D02*
X3434400Y-3703000D01*
X3434400Y-3866200D02*
X3474400Y-3906200D01*
X3474400Y-3866200D02*
X3434400Y-3906200D01*
X3494577Y-9097120D02*
X3534577Y-9137120D01*
X3534577Y-9097120D02*
X3494577Y-9137120D01*
X3519977Y-9838800D02*
X3559977Y-9878800D01*
X3559977Y-9838800D02*
X3519977Y-9878800D01*
X3536000Y-10414320D02*
X3576000Y-10454320D01*
X3576000Y-10414320D02*
X3536000Y-10454320D01*
X3536000Y-11125520D02*
X3576000Y-11165520D01*
X3576000Y-11125520D02*
X3536000Y-11165520D01*
X3578397Y-9468600D02*
X3618397Y-9508600D01*
X3618397Y-9468600D02*
X3578397Y-9508600D01*
X3578397Y-9568920D02*
X3618397Y-9608920D01*
X3618397Y-9568920D02*
X3578397Y-9608920D01*
X3637600Y-3256600D02*
X3677600Y-3296600D01*
X3677600Y-3256600D02*
X3637600Y-3296600D01*
X3637600Y-3663000D02*
X3677600Y-3703000D01*
X3677600Y-3663000D02*
X3637600Y-3703000D01*
X3637600Y-3866200D02*
X3677600Y-3906200D01*
X3677600Y-3866200D02*
X3637600Y-3906200D01*
X3644013Y-9392780D02*
X3684013Y-9432780D01*
X3684013Y-9392780D02*
X3644013Y-9432780D01*
X3644013Y-9644740D02*
X3684013Y-9684740D01*
X3684013Y-9644740D02*
X3644013Y-9684740D01*
X3647760Y-4369120D02*
X3687760Y-4409120D01*
X3687760Y-4369120D02*
X3647760Y-4409120D01*
X3723960Y-4973640D02*
X3763960Y-5013640D01*
X3763960Y-4973640D02*
X3723960Y-5013640D01*
X3739200Y-3459800D02*
X3779200Y-3499800D01*
X3779200Y-3459800D02*
X3739200Y-3499800D01*
X3739200Y-4069400D02*
X3779200Y-4109400D01*
X3779200Y-4069400D02*
X3739200Y-4109400D01*
X3751990Y-10329270D02*
X3791990Y-10369270D01*
X3791990Y-10329270D02*
X3751990Y-10369270D01*
X3751990Y-10510840D02*
X3791990Y-10550840D01*
X3791990Y-10510840D02*
X3751990Y-10550840D01*
X3751990Y-11029000D02*
X3791990Y-11069000D01*
X3791990Y-11029000D02*
X3751990Y-11069000D01*
X3751990Y-11216960D02*
X3791990Y-11256960D01*
X3791990Y-11216960D02*
X3751990Y-11256960D01*
X3764600Y-5324160D02*
X3804600Y-5364160D01*
X3804600Y-5324160D02*
X3764600Y-5364160D01*
X3790000Y-10856280D02*
X3830000Y-10896280D01*
X3830000Y-10856280D02*
X3790000Y-10896280D01*
X3840800Y-3256600D02*
X3880800Y-3296600D01*
X3880800Y-3256600D02*
X3840800Y-3296600D01*
X3840800Y-3663000D02*
X3880800Y-3703000D01*
X3880800Y-3663000D02*
X3840800Y-3703000D01*
X3840800Y-3866200D02*
X3880800Y-3906200D01*
X3880800Y-3866200D02*
X3840800Y-3906200D01*
X3889250Y-8219250D02*
X3929250Y-8259250D01*
X3929250Y-8219250D02*
X3889250Y-8259250D01*
X3911920Y-7031040D02*
X3951920Y-7071040D01*
X3951920Y-7031040D02*
X3911920Y-7071040D01*
X3922080Y-8829360D02*
X3962080Y-8869360D01*
X3962080Y-8829360D02*
X3922080Y-8869360D01*
X3925050Y-6806708D02*
X3965050Y-6846708D01*
X3965050Y-6806708D02*
X3925050Y-6846708D01*
X3932240Y-6136960D02*
X3972240Y-6176960D01*
X3972240Y-6136960D02*
X3932240Y-6176960D01*
X3942400Y-3459800D02*
X3982400Y-3499800D01*
X3982400Y-3459800D02*
X3942400Y-3499800D01*
X3942400Y-4069400D02*
X3982400Y-4109400D01*
X3982400Y-4069400D02*
X3942400Y-4109400D01*
X3972880Y-10317800D02*
X4012880Y-10357800D01*
X4012880Y-10317800D02*
X3972880Y-10357800D01*
X3972880Y-10414320D02*
X4012880Y-10454320D01*
X4012880Y-10414320D02*
X3972880Y-10454320D01*
X3972880Y-10510840D02*
X4012880Y-10550840D01*
X4012880Y-10510840D02*
X3972880Y-10550840D01*
X3972880Y-11029000D02*
X4012880Y-11069000D01*
X4012880Y-11029000D02*
X3972880Y-11069000D01*
X3972880Y-11125520D02*
X4012880Y-11165520D01*
X4012880Y-11125520D02*
X3972880Y-11165520D01*
X3977960Y-7925120D02*
X4017960Y-7965120D01*
X4017960Y-7925120D02*
X3977960Y-7965120D01*
X3982000Y-5533750D02*
X4022000Y-5573750D01*
X4022000Y-5533750D02*
X3982000Y-5573750D01*
X3982000Y-6422750D02*
X4022000Y-6462750D01*
X4022000Y-6422750D02*
X3982000Y-6462750D01*
X3982000Y-7311750D02*
X4022000Y-7351750D01*
X4022000Y-7311750D02*
X3982000Y-7351750D01*
X4003360Y-7031040D02*
X4043360Y-7071040D01*
X4043360Y-7031040D02*
X4003360Y-7071040D01*
X4018600Y-8925880D02*
X4058600Y-8965880D01*
X4058600Y-8925880D02*
X4018600Y-8965880D01*
X4054160Y-4531680D02*
X4094160Y-4571680D01*
X4094160Y-4531680D02*
X4054160Y-4571680D01*
X4064320Y-11963720D02*
X4104320Y-12003720D01*
X4104320Y-11963720D02*
X4064320Y-12003720D01*
X4064320Y-12471720D02*
X4104320Y-12511720D01*
X4104320Y-12471720D02*
X4064320Y-12511720D01*
X4074480Y-5314000D02*
X4114480Y-5354000D01*
X4114480Y-5314000D02*
X4074480Y-5354000D01*
X4087527Y-9518760D02*
X4127527Y-9558760D01*
X4127527Y-9518760D02*
X4087527Y-9558760D01*
X4191320Y-10058720D02*
X4231320Y-10098720D01*
X4231320Y-10058720D02*
X4191320Y-10098720D01*
X4196400Y-8158800D02*
X4236400Y-8198800D01*
X4236400Y-8158800D02*
X4196400Y-8198800D01*
X4201480Y-10536240D02*
X4241480Y-10576240D01*
X4241480Y-10536240D02*
X4201480Y-10576240D01*
X4247200Y-10962960D02*
X4287200Y-11002960D01*
X4287200Y-10962960D02*
X4247200Y-11002960D01*
X4262440Y-7838760D02*
X4302440Y-7878760D01*
X4302440Y-7838760D02*
X4262440Y-7878760D01*
X4262440Y-9179880D02*
X4302440Y-9219880D01*
X4302440Y-9179880D02*
X4262440Y-9219880D01*
X4267520Y-9408480D02*
X4307520Y-9448480D01*
X4307520Y-9408480D02*
X4267520Y-9448480D01*
X4267520Y-9626920D02*
X4307520Y-9666920D01*
X4307520Y-9626920D02*
X4267520Y-9666920D01*
X4277680Y-11062020D02*
X4317680Y-11102020D01*
X4317680Y-11062020D02*
X4277680Y-11102020D01*
X4333560Y-3917000D02*
X4373560Y-3957000D01*
X4373560Y-3917000D02*
X4333560Y-3957000D01*
X4333560Y-4684080D02*
X4373560Y-4724080D01*
X4373560Y-4684080D02*
X4333560Y-4724080D01*
X4400378Y-5088873D02*
X4440378Y-5128873D01*
X4440378Y-5088873D02*
X4400378Y-5128873D01*
X4404680Y-8539800D02*
X4444680Y-8579800D01*
X4444680Y-8539800D02*
X4404680Y-8579800D01*
X4465640Y-9408480D02*
X4505640Y-9448480D01*
X4505640Y-9408480D02*
X4465640Y-9448480D01*
X4475800Y-9626920D02*
X4515800Y-9666920D01*
X4515800Y-9626920D02*
X4475800Y-9666920D01*
X4496120Y-8448360D02*
X4536120Y-8488360D01*
X4536120Y-8448360D02*
X4496120Y-8488360D01*
X4501200Y-10475280D02*
X4541200Y-10515280D01*
X4541200Y-10475280D02*
X4501200Y-10515280D01*
X4511360Y-10058720D02*
X4551360Y-10098720D01*
X4551360Y-10058720D02*
X4511360Y-10098720D01*
X4521520Y-9088440D02*
X4561520Y-9128440D01*
X4561520Y-9088440D02*
X4521520Y-9128440D01*
X4567240Y-5080320D02*
X4607240Y-5120320D01*
X4607240Y-5080320D02*
X4567240Y-5120320D01*
X4572320Y-10935020D02*
X4612320Y-10975020D01*
X4612320Y-10935020D02*
X4572320Y-10975020D01*
X4587560Y-8158800D02*
X4627560Y-8198800D01*
X4627560Y-8158800D02*
X4587560Y-8198800D01*
X4602800Y-8616000D02*
X4642800Y-8656000D01*
X4642800Y-8616000D02*
X4602800Y-8656000D01*
X4618040Y-9408480D02*
X4658040Y-9448480D01*
X4658040Y-9408480D02*
X4618040Y-9448480D01*
X4699320Y-8514400D02*
X4739320Y-8554400D01*
X4739320Y-8514400D02*
X4699320Y-8554400D01*
X4725000Y-5153800D02*
X4765000Y-5193800D01*
X4765000Y-5153800D02*
X4725000Y-5193800D01*
X4785680Y-11323150D02*
X4825680Y-11363150D01*
X4825680Y-11323150D02*
X4785680Y-11363150D01*
X4790760Y-9571040D02*
X4830760Y-9611040D01*
X4830760Y-9571040D02*
X4790760Y-9611040D01*
X4790760Y-9860600D02*
X4830760Y-9900600D01*
X4830760Y-9860600D02*
X4790760Y-9900600D01*
X4800920Y-10693720D02*
X4840920Y-10733720D01*
X4840920Y-10693720D02*
X4800920Y-10733720D01*
X4811080Y-4028760D02*
X4851080Y-4068760D01*
X4851080Y-4028760D02*
X4811080Y-4068760D01*
X4846640Y-3525840D02*
X4886640Y-3565840D01*
X4886640Y-3525840D02*
X4846640Y-3565840D01*
X4877120Y-10378760D02*
X4917120Y-10418760D01*
X4917120Y-10378760D02*
X4877120Y-10418760D01*
X5054920Y-11193200D02*
X5094920Y-11233200D01*
X5094920Y-11193200D02*
X5054920Y-11233200D01*
X5065080Y-10068880D02*
X5105080Y-10108880D01*
X5105080Y-10068880D02*
X5065080Y-10108880D01*
X5110800Y-7813360D02*
X5150800Y-7853360D01*
X5150800Y-7813360D02*
X5110800Y-7853360D01*
X5115880Y-8915720D02*
X5155880Y-8955720D01*
X5155880Y-8915720D02*
X5115880Y-8955720D01*
X5212400Y-11445560D02*
X5252400Y-11485560D01*
X5252400Y-11445560D02*
X5212400Y-11485560D01*
X5258120Y-7965760D02*
X5298120Y-8005760D01*
X5298120Y-7965760D02*
X5258120Y-8005760D01*
X5278440Y-9083360D02*
X5318440Y-9123360D01*
X5318440Y-9083360D02*
X5278440Y-9123360D01*
X5303840Y-7620320D02*
X5343840Y-7660320D01*
X5343840Y-7620320D02*
X5303840Y-7660320D01*
X5308920Y-4399600D02*
X5348920Y-4439600D01*
X5348920Y-4399600D02*
X5308920Y-4439600D01*
X5334320Y-11963720D02*
X5374320Y-12003720D01*
X5374320Y-11963720D02*
X5334320Y-12003720D01*
X5334320Y-12471720D02*
X5374320Y-12511720D01*
X5374320Y-12471720D02*
X5334320Y-12511720D01*
X5345960Y-11447040D02*
X5385960Y-11487040D01*
X5385960Y-11447040D02*
X5345960Y-11487040D01*
X5425760Y-9230680D02*
X5465760Y-9270680D01*
X5465760Y-9230680D02*
X5425760Y-9270680D01*
X5471480Y-7757480D02*
X5511480Y-7797480D01*
X5511480Y-7757480D02*
X5471480Y-7797480D01*
X5522280Y-4358960D02*
X5562280Y-4398960D01*
X5562280Y-4358960D02*
X5522280Y-4398960D01*
X5623880Y-4358960D02*
X5663880Y-4398960D01*
X5663880Y-4358960D02*
X5623880Y-4398960D01*
X5639120Y-10609900D02*
X5679120Y-10649900D01*
X5679120Y-10609900D02*
X5639120Y-10649900D01*
X5659440Y-8382320D02*
X5699440Y-8422320D01*
X5699440Y-8382320D02*
X5659440Y-8422320D01*
X5674680Y-9550720D02*
X5714680Y-9590720D01*
X5714680Y-9550720D02*
X5674680Y-9590720D01*
X5827080Y-4272600D02*
X5867080Y-4312600D01*
X5867080Y-4272600D02*
X5827080Y-4312600D01*
X5847400Y-3973350D02*
X5887400Y-4013350D01*
X5887400Y-3973350D02*
X5847400Y-4013350D01*
X5872800Y-10287320D02*
X5912800Y-10327320D01*
X5912800Y-10287320D02*
X5872800Y-10327320D01*
X5923600Y-4602800D02*
X5963600Y-4642800D01*
X5963600Y-4602800D02*
X5923600Y-4642800D01*
X5938840Y-8819065D02*
X5978840Y-8859065D01*
X5978840Y-8819065D02*
X5938840Y-8859065D01*
X5943920Y-8549960D02*
X5983920Y-8589960D01*
X5983920Y-8549960D02*
X5943920Y-8589960D01*
X5949000Y-9774240D02*
X5989000Y-9814240D01*
X5989000Y-9774240D02*
X5949000Y-9814240D01*
X5954080Y-8910640D02*
X5994080Y-8950640D01*
X5994080Y-8910640D02*
X5954080Y-8950640D01*
X5994720Y-7686360D02*
X6034720Y-7726360D01*
X6034720Y-7686360D02*
X5994720Y-7726360D01*
X6009960Y-10129840D02*
X6049960Y-10169840D01*
X6049960Y-10129840D02*
X6009960Y-10169840D01*
X6030280Y-10444800D02*
X6070280Y-10484800D01*
X6070280Y-10444800D02*
X6030280Y-10484800D01*
X6050600Y-9865680D02*
X6090600Y-9905680D01*
X6090600Y-9865680D02*
X6050600Y-9905680D01*
X6050600Y-9962200D02*
X6090600Y-10002200D01*
X6090600Y-9962200D02*
X6050600Y-10002200D01*
X6152200Y-10282240D02*
X6192200Y-10322240D01*
X6192200Y-10282240D02*
X6152200Y-10322240D01*
X6152200Y-10566720D02*
X6192200Y-10606720D01*
X6192200Y-10566720D02*
X6152200Y-10606720D01*
X6162360Y-4257360D02*
X6202360Y-4297360D01*
X6202360Y-4257360D02*
X6162360Y-4297360D01*
X6162360Y-10775000D02*
X6202360Y-10815000D01*
X6202360Y-10775000D02*
X6162360Y-10815000D01*
X6177600Y-8631240D02*
X6217600Y-8671240D01*
X6217600Y-8631240D02*
X6177600Y-8671240D01*
X6200253Y-8745747D02*
X6240253Y-8785747D01*
X6240253Y-8745747D02*
X6200253Y-8785747D01*
X6213160Y-3581720D02*
X6253160Y-3621720D01*
X6253160Y-3581720D02*
X6213160Y-3621720D01*
X6225656Y-9012730D02*
X6265656Y-9052730D01*
X6265656Y-9012730D02*
X6225656Y-9052730D01*
X6238560Y-10013000D02*
X6278560Y-10053000D01*
X6278560Y-10013000D02*
X6238560Y-10053000D01*
X6296650Y-9384170D02*
X6336650Y-9424170D01*
X6336650Y-9384170D02*
X6296650Y-9424170D01*
X6319633Y-9677927D02*
X6359633Y-9717927D01*
X6359633Y-9677927D02*
X6319633Y-9717927D01*
X6319840Y-8621080D02*
X6359840Y-8661080D01*
X6359840Y-8621080D02*
X6319840Y-8661080D01*
X6319840Y-9586280D02*
X6359840Y-9626280D01*
X6359840Y-9586280D02*
X6319840Y-9626280D01*
X6319840Y-9774240D02*
X6359840Y-9814240D01*
X6359840Y-9774240D02*
X6319840Y-9814240D01*
X6330000Y-10465120D02*
X6370000Y-10505120D01*
X6370000Y-10465120D02*
X6330000Y-10505120D01*
X6370640Y-8283550D02*
X6410640Y-8323550D01*
X6410640Y-8283550D02*
X6370640Y-8323550D01*
X6380800Y-8697280D02*
X6420800Y-8737280D01*
X6420800Y-8697280D02*
X6380800Y-8737280D01*
X6390960Y-2682560D02*
X6430960Y-2722560D01*
X6430960Y-2682560D02*
X6390960Y-2722560D01*
X6390960Y-9525320D02*
X6430960Y-9565320D01*
X6430960Y-9525320D02*
X6390960Y-9565320D01*
X6401120Y-3185480D02*
X6441120Y-3225480D01*
X6441120Y-3185480D02*
X6401120Y-3225480D01*
X6421440Y-10541320D02*
X6461440Y-10581320D01*
X6461440Y-10541320D02*
X6421440Y-10581320D01*
X6507800Y-10460040D02*
X6547800Y-10500040D01*
X6547800Y-10460040D02*
X6507800Y-10500040D01*
X6596700Y-11232200D02*
X6636700Y-11272200D01*
X6636700Y-11232200D02*
X6596700Y-11272200D01*
X6604320Y-11963720D02*
X6644320Y-12003720D01*
X6644320Y-11963720D02*
X6604320Y-12003720D01*
X6604320Y-12471720D02*
X6644320Y-12511720D01*
X6644320Y-12471720D02*
X6604320Y-12511720D01*
X6619560Y-4577400D02*
X6659560Y-4617400D01*
X6659560Y-4577400D02*
X6619560Y-4617400D01*
X6634800Y-7587739D02*
X6674800Y-7627739D01*
X6674800Y-7587739D02*
X6634800Y-7627739D01*
X6634800Y-7677690D02*
X6674800Y-7717690D01*
X6674800Y-7677690D02*
X6634800Y-7717690D01*
X6634800Y-7767640D02*
X6674800Y-7807640D01*
X6674800Y-7767640D02*
X6634800Y-7807640D01*
X6650040Y-8174040D02*
X6690040Y-8214040D01*
X6690040Y-8174040D02*
X6650040Y-8214040D01*
X6657450Y-9422630D02*
X6697450Y-9462630D01*
X6697450Y-9422630D02*
X6657450Y-9462630D01*
X6660200Y-10084120D02*
X6700200Y-10124120D01*
X6700200Y-10084120D02*
X6660200Y-10124120D01*
X6664729Y-9068671D02*
X6704729Y-9108671D01*
X6704729Y-9068671D02*
X6664729Y-9108671D01*
X6665280Y-10383840D02*
X6705280Y-10423840D01*
X6705280Y-10383840D02*
X6665280Y-10423840D01*
X6669809Y-8826650D02*
X6709809Y-8866650D01*
X6709809Y-8826650D02*
X6669809Y-8866650D01*
X6685600Y-8250240D02*
X6725600Y-8290240D01*
X6725600Y-8250240D02*
X6685600Y-8290240D01*
X6685600Y-8336600D02*
X6725600Y-8376600D01*
X6725600Y-8336600D02*
X6685600Y-8376600D01*
X6685600Y-9779320D02*
X6725600Y-9819320D01*
X6725600Y-9779320D02*
X6685600Y-9819320D01*
X6690680Y-9997760D02*
X6730680Y-10037760D01*
X6730680Y-9997760D02*
X6690680Y-10037760D01*
X6746560Y-9139240D02*
X6786560Y-9179240D01*
X6786560Y-9139240D02*
X6746560Y-9179240D01*
X6746560Y-10886760D02*
X6786560Y-10926760D01*
X6786560Y-10886760D02*
X6746560Y-10926760D01*
X6751640Y-10424480D02*
X6791640Y-10464480D01*
X6791640Y-10424480D02*
X6751640Y-10464480D01*
X6761593Y-9423513D02*
X6801593Y-9463513D01*
X6801593Y-9423513D02*
X6761593Y-9463513D01*
X6782120Y-7671120D02*
X6822120Y-7711120D01*
X6822120Y-7671120D02*
X6782120Y-7711120D01*
X6797360Y-8960350D02*
X6837360Y-9000350D01*
X6837360Y-8960350D02*
X6797360Y-9000350D01*
X6802440Y-3596960D02*
X6842440Y-3636960D01*
X6842440Y-3596960D02*
X6802440Y-3636960D01*
X6827840Y-8372160D02*
X6867840Y-8412160D01*
X6867840Y-8372160D02*
X6827840Y-8412160D01*
X6848113Y-7742834D02*
X6888113Y-7782834D01*
X6888113Y-7742834D02*
X6848113Y-7782834D01*
X6848160Y-9144320D02*
X6888160Y-9184320D01*
X6888160Y-9144320D02*
X6848160Y-9184320D01*
X6849050Y-7832780D02*
X6889050Y-7872780D01*
X6889050Y-7832780D02*
X6849050Y-7872780D01*
X6853240Y-9423720D02*
X6893240Y-9463720D01*
X6893240Y-9423720D02*
X6853240Y-9463720D01*
X6883776Y-8986789D02*
X6923776Y-9026789D01*
X6923776Y-8986789D02*
X6883776Y-9026789D01*
X6896991Y-7439409D02*
X6936991Y-7479409D01*
X6936991Y-7439409D02*
X6896991Y-7479409D01*
X6914200Y-8270560D02*
X6954200Y-8310560D01*
X6954200Y-8270560D02*
X6914200Y-8310560D01*
X6930398Y-8657850D02*
X6970398Y-8697850D01*
X6970398Y-8657850D02*
X6930398Y-8697850D01*
X6949760Y-9423720D02*
X6989760Y-9463720D01*
X6989760Y-9423720D02*
X6949760Y-9463720D01*
X6965000Y-3160080D02*
X7005000Y-3200080D01*
X7005000Y-3160080D02*
X6965000Y-3200080D01*
X6979600Y-8986200D02*
X7019600Y-9026200D01*
X7019600Y-8986200D02*
X6979600Y-9026200D01*
X6990400Y-4587560D02*
X7030400Y-4627560D01*
X7030400Y-4587560D02*
X6990400Y-4627560D01*
X6995480Y-2682560D02*
X7035480Y-2722560D01*
X7035480Y-2682560D02*
X6995480Y-2722560D01*
X7019450Y-8781784D02*
X7059450Y-8821784D01*
X7059450Y-8781784D02*
X7019450Y-8821784D01*
X7031040Y-9929482D02*
X7071040Y-9969482D01*
X7071040Y-9929482D02*
X7031040Y-9969482D01*
X7046280Y-3596960D02*
X7086280Y-3636960D01*
X7086280Y-3596960D02*
X7046280Y-3636960D01*
X7051760Y-8921200D02*
X7091760Y-8961200D01*
X7091760Y-8921200D02*
X7051760Y-8961200D01*
X7071680Y-9068120D02*
X7111680Y-9108120D01*
X7111680Y-9068120D02*
X7071680Y-9108120D01*
X7076760Y-7701600D02*
X7116760Y-7741600D01*
X7116760Y-7701600D02*
X7076760Y-7741600D01*
X7092000Y-11039160D02*
X7132000Y-11079160D01*
X7132000Y-11039160D02*
X7092000Y-11079160D01*
X7130100Y-8298500D02*
X7170100Y-8338500D01*
X7170100Y-8298500D02*
X7130100Y-8338500D01*
X7137670Y-10020438D02*
X7177670Y-10060438D01*
X7177670Y-10020438D02*
X7137670Y-10060438D01*
X7137721Y-9930488D02*
X7177721Y-9970488D01*
X7177721Y-9930488D02*
X7137721Y-9970488D01*
X7139309Y-10110373D02*
X7179309Y-10150373D01*
X7179309Y-10110373D02*
X7139309Y-10150373D01*
X7147880Y-9764080D02*
X7187880Y-9804080D01*
X7187880Y-9764080D02*
X7147880Y-9804080D01*
X7150991Y-7439409D02*
X7190991Y-7479409D01*
X7190991Y-7439409D02*
X7150991Y-7479409D01*
X7188520Y-11221950D02*
X7228520Y-11261950D01*
X7228520Y-11221950D02*
X7188520Y-11261950D01*
X7219000Y-8245160D02*
X7259000Y-8285160D01*
X7259000Y-8245160D02*
X7219000Y-8285160D01*
X7229160Y-7676200D02*
X7269160Y-7716200D01*
X7269160Y-7676200D02*
X7229160Y-7716200D01*
X7239320Y-10109520D02*
X7279320Y-10149520D01*
X7279320Y-10109520D02*
X7239320Y-10149520D01*
X7244400Y-8372160D02*
X7284400Y-8412160D01*
X7284400Y-8372160D02*
X7244400Y-8412160D01*
X7264720Y-11084880D02*
X7304720Y-11124880D01*
X7304720Y-11084880D02*
X7264720Y-11124880D01*
X7300280Y-3596960D02*
X7340280Y-3636960D01*
X7340280Y-3596960D02*
X7300280Y-3636960D01*
X7300280Y-4587560D02*
X7340280Y-4627560D01*
X7340280Y-4587560D02*
X7300280Y-4627560D01*
X7308748Y-7423892D02*
X7348748Y-7463892D01*
X7348748Y-7423892D02*
X7308748Y-7463892D01*
X7320600Y-8260400D02*
X7360600Y-8300400D01*
X7360600Y-8260400D02*
X7320600Y-8300400D01*
X7320600Y-9454200D02*
X7360600Y-9494200D01*
X7360600Y-9454200D02*
X7320600Y-9494200D01*
X7325680Y-9698040D02*
X7365680Y-9738040D01*
X7365680Y-9698040D02*
X7325680Y-9738040D01*
X7325680Y-10084120D02*
X7365680Y-10124120D01*
X7365680Y-10084120D02*
X7325680Y-10124120D01*
X7331503Y-7839503D02*
X7371503Y-7879503D01*
X7371503Y-7839503D02*
X7331503Y-7879503D01*
X7340920Y-9047800D02*
X7380920Y-9087800D01*
X7380920Y-9047800D02*
X7340920Y-9087800D01*
X7366320Y-7930200D02*
X7406320Y-7970200D01*
X7406320Y-7930200D02*
X7366320Y-7970200D01*
X7441430Y-7320266D02*
X7481430Y-7360266D01*
X7481430Y-7320266D02*
X7441430Y-7360266D01*
X7469200Y-6134728D02*
X7509200Y-6174728D01*
X7509200Y-6134728D02*
X7469200Y-6174728D01*
X7478529Y-7858631D02*
X7518529Y-7898631D01*
X7518529Y-7858631D02*
X7478529Y-7898631D01*
X7483160Y-10714040D02*
X7523160Y-10754040D01*
X7523160Y-10714040D02*
X7483160Y-10754040D01*
X7483160Y-10805480D02*
X7523160Y-10845480D01*
X7523160Y-10805480D02*
X7483160Y-10845480D01*
X7483160Y-10896920D02*
X7523160Y-10936920D01*
X7523160Y-10896920D02*
X7483160Y-10936920D01*
X7483160Y-10988360D02*
X7523160Y-11028360D01*
X7523160Y-10988360D02*
X7483160Y-11028360D01*
X7488240Y-10515920D02*
X7528240Y-10555920D01*
X7528240Y-10515920D02*
X7488240Y-10555920D01*
X7505050Y-10424480D02*
X7545050Y-10464480D01*
X7545050Y-10424480D02*
X7505050Y-10464480D01*
X7518720Y-9530400D02*
X7558720Y-9570400D01*
X7558720Y-9530400D02*
X7518720Y-9570400D01*
X7520502Y-10019170D02*
X7560502Y-10059170D01*
X7560502Y-10019170D02*
X7520502Y-10059170D01*
X7523800Y-8285800D02*
X7563800Y-8325800D01*
X7563800Y-8285800D02*
X7523800Y-8325800D01*
X7523800Y-9764080D02*
X7563800Y-9804080D01*
X7563800Y-9764080D02*
X7523800Y-9804080D01*
X7534150Y-6777040D02*
X7574150Y-6817040D01*
X7574150Y-6777040D02*
X7534150Y-6817040D01*
X7544120Y-11420160D02*
X7584120Y-11460160D01*
X7584120Y-11420160D02*
X7544120Y-11460160D01*
X7549200Y-3591880D02*
X7589200Y-3631880D01*
X7589200Y-3591880D02*
X7549200Y-3631880D01*
X7579680Y-2682560D02*
X7619680Y-2722560D01*
X7619680Y-2682560D02*
X7579680Y-2722560D01*
X7579680Y-3119440D02*
X7619680Y-3159440D01*
X7619680Y-3119440D02*
X7579680Y-3159440D01*
X7579680Y-11135680D02*
X7619680Y-11175680D01*
X7619680Y-11135680D02*
X7579680Y-11175680D01*
X7596705Y-9942970D02*
X7636705Y-9982970D01*
X7636705Y-9942970D02*
X7596705Y-9982970D01*
X7608479Y-7848920D02*
X7648479Y-7888920D01*
X7648479Y-7848920D02*
X7608479Y-7888920D01*
X7614461Y-8354202D02*
X7654461Y-8394202D01*
X7654461Y-8354202D02*
X7614461Y-8394202D01*
X7625400Y-5961700D02*
X7665400Y-6001700D01*
X7665400Y-5961700D02*
X7625400Y-6001700D01*
X7645720Y-4287840D02*
X7685720Y-4327840D01*
X7685720Y-4287840D02*
X7645720Y-4327840D01*
X7650800Y-9093520D02*
X7690800Y-9133520D01*
X7690800Y-9093520D02*
X7650800Y-9133520D01*
X7675000Y-7925120D02*
X7715000Y-7965120D01*
X7715000Y-7925120D02*
X7675000Y-7965120D01*
X7679112Y-8535173D02*
X7719112Y-8575173D01*
X7719112Y-8535173D02*
X7679112Y-8575173D01*
X7686360Y-6533200D02*
X7726360Y-6573200D01*
X7726360Y-6533200D02*
X7686360Y-6573200D01*
X7696520Y-11272840D02*
X7736520Y-11312840D01*
X7736520Y-11272840D02*
X7696520Y-11312840D01*
X7701600Y-5347020D02*
X7741600Y-5387020D01*
X7741600Y-5347020D02*
X7701600Y-5387020D01*
X7701600Y-9596440D02*
X7741600Y-9636440D01*
X7741600Y-9596440D02*
X7701600Y-9636440D01*
X7717152Y-8225440D02*
X7757152Y-8265440D01*
X7757152Y-8225440D02*
X7717152Y-8265440D01*
X7732080Y-10114600D02*
X7772080Y-10154600D01*
X7772080Y-10114600D02*
X7732080Y-10154600D01*
X7742240Y-10490520D02*
X7782240Y-10530520D01*
X7782240Y-10490520D02*
X7742240Y-10530520D01*
X7775948Y-5885704D02*
X7815948Y-5925704D01*
X7815948Y-5885704D02*
X7775948Y-5925704D01*
X7783980Y-8641180D02*
X7823980Y-8681180D01*
X7823980Y-8641180D02*
X7783980Y-8681180D01*
X7787960Y-9682800D02*
X7827960Y-9722800D01*
X7827960Y-9682800D02*
X7787960Y-9722800D01*
X7808280Y-8362000D02*
X7848280Y-8402000D01*
X7848280Y-8362000D02*
X7808280Y-8402000D01*
X7823520Y-9601520D02*
X7863520Y-9641520D01*
X7863520Y-9601520D02*
X7823520Y-9641520D01*
X7823520Y-10114600D02*
X7863520Y-10154600D01*
X7863520Y-10114600D02*
X7823520Y-10154600D01*
X7848920Y-9764080D02*
X7888920Y-9804080D01*
X7888920Y-9764080D02*
X7848920Y-9804080D01*
X7864160Y-5159060D02*
X7904160Y-5199060D01*
X7904160Y-5159060D02*
X7864160Y-5199060D01*
X7869240Y-11079800D02*
X7909240Y-11119800D01*
X7909240Y-11079800D02*
X7869240Y-11119800D01*
X7874320Y-11963720D02*
X7914320Y-12003720D01*
X7914320Y-11963720D02*
X7874320Y-12003720D01*
X7874320Y-12471720D02*
X7914320Y-12511720D01*
X7914320Y-12471720D02*
X7874320Y-12511720D01*
X7884480Y-10373680D02*
X7924480Y-10413680D01*
X7924480Y-10373680D02*
X7884480Y-10413680D01*
X7911185Y-8322665D02*
X7951185Y-8362665D01*
X7951185Y-8322665D02*
X7911185Y-8362665D01*
X7917500Y-5644200D02*
X7957500Y-5684200D01*
X7957500Y-5644200D02*
X7917500Y-5684200D01*
X7925120Y-10114600D02*
X7965120Y-10154600D01*
X7965120Y-10114600D02*
X7925120Y-10154600D01*
X7930200Y-3693480D02*
X7970200Y-3733480D01*
X7970200Y-3693480D02*
X7930200Y-3733480D01*
X7935280Y-9037640D02*
X7975280Y-9077640D01*
X7975280Y-9037640D02*
X7935280Y-9077640D01*
X7945440Y-7467920D02*
X7985440Y-7507920D01*
X7985440Y-7467920D02*
X7945440Y-7507920D01*
X7975920Y-8641400D02*
X8015920Y-8681400D01*
X8015920Y-8641400D02*
X7975920Y-8681400D01*
X7976050Y-6721160D02*
X8016050Y-6761160D01*
X8016050Y-6721160D02*
X7976050Y-6761160D01*
X7981024Y-11201720D02*
X8021024Y-11241720D01*
X8021024Y-11201720D02*
X7981024Y-11241720D01*
X8026720Y-10116050D02*
X8066720Y-10156050D01*
X8066720Y-10116050D02*
X8026720Y-10156050D01*
X8026720Y-10764840D02*
X8066720Y-10804840D01*
X8066720Y-10764840D02*
X8026720Y-10804840D01*
X8057200Y-7346000D02*
X8097200Y-7386000D01*
X8097200Y-7346000D02*
X8057200Y-7386000D01*
X8067360Y-4298000D02*
X8107360Y-4338000D01*
X8107360Y-4298000D02*
X8067360Y-4338000D01*
X8085280Y-8248003D02*
X8125280Y-8288003D01*
X8125280Y-8248003D02*
X8085280Y-8288003D01*
X8087680Y-6396040D02*
X8127680Y-6436040D01*
X8127680Y-6396040D02*
X8087680Y-6436040D01*
X8092760Y-11079800D02*
X8132760Y-11119800D01*
X8132760Y-11079800D02*
X8092760Y-11119800D01*
X8102920Y-7975920D02*
X8142920Y-8015920D01*
X8142920Y-7975920D02*
X8102920Y-8015920D01*
X8104970Y-7727000D02*
X8144970Y-7767000D01*
X8144970Y-7727000D02*
X8104970Y-7767000D01*
X8118160Y-9860600D02*
X8158160Y-9900600D01*
X8158160Y-9860600D02*
X8118160Y-9900600D01*
X8128988Y-10116050D02*
X8168988Y-10156050D01*
X8168988Y-10116050D02*
X8128988Y-10156050D01*
X8158104Y-8899068D02*
X8198104Y-8939068D01*
X8198104Y-8899068D02*
X8158104Y-8939068D01*
X8187082Y-6794478D02*
X8227082Y-6834478D01*
X8227082Y-6794478D02*
X8187082Y-6834478D01*
X8194360Y-5369880D02*
X8234360Y-5409880D01*
X8234360Y-5369880D02*
X8194360Y-5409880D01*
X8209600Y-4729800D02*
X8249600Y-4769800D01*
X8249600Y-4729800D02*
X8209600Y-4769800D01*
X8231009Y-8331520D02*
X8271009Y-8371520D01*
X8271009Y-8331520D02*
X8231009Y-8371520D01*
X8235000Y-9585350D02*
X8275000Y-9625350D01*
X8275000Y-9585350D02*
X8235000Y-9625350D01*
X8236271Y-8240645D02*
X8276271Y-8280645D01*
X8276271Y-8240645D02*
X8236271Y-8280645D01*
X8240080Y-11125520D02*
X8280080Y-11165520D01*
X8280080Y-11125520D02*
X8240080Y-11165520D01*
X8265480Y-4115120D02*
X8305480Y-4155120D01*
X8305480Y-4115120D02*
X8265480Y-4155120D01*
X8270560Y-6203000D02*
X8310560Y-6243000D01*
X8310560Y-6203000D02*
X8270560Y-6243000D01*
X8270560Y-11263770D02*
X8310560Y-11303770D01*
X8310560Y-11263770D02*
X8270560Y-11303770D01*
X8275433Y-10581753D02*
X8315433Y-10621753D01*
X8315433Y-10581753D02*
X8275433Y-10621753D01*
X8289950Y-7940360D02*
X8329950Y-7980360D01*
X8329950Y-7940360D02*
X8289950Y-7980360D01*
X8311223Y-7227067D02*
X8351223Y-7267067D01*
X8351223Y-7227067D02*
X8311223Y-7267067D01*
X8320958Y-8270962D02*
X8360958Y-8310962D01*
X8360958Y-8270962D02*
X8320958Y-8310962D01*
X8326440Y-3805240D02*
X8366440Y-3845240D01*
X8366440Y-3805240D02*
X8326440Y-3845240D01*
X8351840Y-11211880D02*
X8391840Y-11251880D01*
X8391840Y-11211880D02*
X8351840Y-11251880D01*
X8362000Y-8641400D02*
X8402000Y-8681400D01*
X8402000Y-8641400D02*
X8362000Y-8681400D01*
X8391101Y-9834110D02*
X8431101Y-9874110D01*
X8431101Y-9834110D02*
X8391101Y-9874110D01*
X8402640Y-7005640D02*
X8442640Y-7045640D01*
X8442640Y-7005640D02*
X8402640Y-7045640D01*
X8412800Y-8270950D02*
X8452800Y-8310950D01*
X8452800Y-8270950D02*
X8412800Y-8310950D01*
X8441450Y-9022400D02*
X8481450Y-9062400D01*
X8481450Y-9022400D02*
X8441450Y-9062400D01*
X8442269Y-9219352D02*
X8482269Y-9259352D01*
X8482269Y-9219352D02*
X8442269Y-9259352D01*
X8448360Y-9444040D02*
X8488360Y-9484040D01*
X8488360Y-9444040D02*
X8448360Y-9484040D01*
X8448360Y-9535480D02*
X8488360Y-9575480D01*
X8488360Y-9535480D02*
X8448360Y-9575480D01*
X8453440Y-10094280D02*
X8493440Y-10134280D01*
X8493440Y-10094280D02*
X8453440Y-10134280D01*
X8468680Y-8743000D02*
X8508680Y-8783000D01*
X8508680Y-8743000D02*
X8468680Y-8783000D01*
X8481050Y-8412800D02*
X8521050Y-8452800D01*
X8521050Y-8412800D02*
X8481050Y-8452800D01*
X8481200Y-3629600D02*
X8521200Y-3669600D01*
X8521200Y-3629600D02*
X8481200Y-3669600D01*
X8483920Y-9633090D02*
X8523920Y-9673090D01*
X8523920Y-9633090D02*
X8483920Y-9673090D01*
X8494080Y-9765170D02*
X8534080Y-9805170D01*
X8534080Y-9765170D02*
X8494080Y-9805170D01*
X8499160Y-10368600D02*
X8539160Y-10408600D01*
X8539160Y-10368600D02*
X8499160Y-10408600D01*
X8504033Y-4567447D02*
X8544033Y-4607447D01*
X8544033Y-4567447D02*
X8504033Y-4607447D01*
X8509320Y-5959160D02*
X8549320Y-5999160D01*
X8549320Y-5959160D02*
X8509320Y-5999160D01*
X8514400Y-9098600D02*
X8554400Y-9138600D01*
X8554400Y-9098600D02*
X8514400Y-9138600D01*
X8521310Y-8888490D02*
X8561310Y-8928490D01*
X8561310Y-8888490D02*
X8521310Y-8928490D01*
X8522227Y-10518667D02*
X8562227Y-10558667D01*
X8562227Y-10518667D02*
X8522227Y-10558667D01*
X8529640Y-8285800D02*
X8569640Y-8325800D01*
X8569640Y-8285800D02*
X8529640Y-8325800D01*
X8534720Y-9312373D02*
X8574720Y-9352373D01*
X8574720Y-9312373D02*
X8534720Y-9352373D01*
X8555040Y-6223320D02*
X8595040Y-6263320D01*
X8595040Y-6223320D02*
X8555040Y-6263320D01*
X8555040Y-7010720D02*
X8595040Y-7050720D01*
X8595040Y-7010720D02*
X8555040Y-7050720D01*
X8555040Y-8097840D02*
X8595040Y-8137840D01*
X8595040Y-8097840D02*
X8555040Y-8137840D01*
X8555040Y-10160320D02*
X8595040Y-10200320D01*
X8595040Y-10160320D02*
X8555040Y-10200320D01*
X8580440Y-4506280D02*
X8620440Y-4546280D01*
X8620440Y-4506280D02*
X8580440Y-4546280D01*
X8590600Y-7198680D02*
X8630600Y-7238680D01*
X8630600Y-7198680D02*
X8590600Y-7238680D01*
X8590600Y-11039160D02*
X8630600Y-11079160D01*
X8630600Y-11039160D02*
X8590600Y-11079160D01*
X8654283Y-7582350D02*
X8694283Y-7622350D01*
X8694283Y-7582350D02*
X8654283Y-7622350D01*
X8656640Y-10159230D02*
X8696640Y-10199230D01*
X8696640Y-10159230D02*
X8656640Y-10199230D01*
X8666800Y-7925120D02*
X8706800Y-7965120D01*
X8706800Y-7925120D02*
X8666800Y-7965120D01*
X8666800Y-8219760D02*
X8706800Y-8259760D01*
X8706800Y-8219760D02*
X8666800Y-8259760D01*
X8687120Y-10272080D02*
X8727120Y-10312080D01*
X8727120Y-10272080D02*
X8687120Y-10312080D01*
X8697315Y-4506315D02*
X8737315Y-4546315D01*
X8737315Y-4506315D02*
X8697315Y-4546315D01*
X8699820Y-3972880D02*
X8739820Y-4012880D01*
X8739820Y-3972880D02*
X8699820Y-4012880D01*
X8748080Y-10424480D02*
X8788080Y-10464480D01*
X8788080Y-10424480D02*
X8748080Y-10464480D01*
X8763320Y-5947960D02*
X8803320Y-5987960D01*
X8803320Y-5947960D02*
X8763320Y-5987960D01*
X8763320Y-7645720D02*
X8803320Y-7685720D01*
X8803320Y-7645720D02*
X8763320Y-7685720D01*
X8768400Y-6223320D02*
X8808400Y-6263320D01*
X8808400Y-6223320D02*
X8768400Y-6263320D01*
X8788720Y-11034080D02*
X8828720Y-11074080D01*
X8828720Y-11034080D02*
X8788720Y-11074080D01*
X8790403Y-9378000D02*
X8830403Y-9418000D01*
X8830403Y-9378000D02*
X8790403Y-9418000D01*
X8794372Y-8514478D02*
X8834372Y-8554478D01*
X8834372Y-8514478D02*
X8794372Y-8554478D01*
X8794950Y-9200200D02*
X8834950Y-9240200D01*
X8834950Y-9200200D02*
X8794950Y-9240200D01*
X8803960Y-8289578D02*
X8843960Y-8329578D01*
X8843960Y-8289578D02*
X8803960Y-8329578D01*
X8803960Y-8379528D02*
X8843960Y-8419528D01*
X8843960Y-8379528D02*
X8803960Y-8419528D01*
X8803960Y-9017320D02*
X8843960Y-9057320D01*
X8843960Y-9017320D02*
X8803960Y-9057320D01*
X8803960Y-9764080D02*
X8843960Y-9804080D01*
X8843960Y-9764080D02*
X8803960Y-9804080D01*
X8809040Y-6035360D02*
X8849040Y-6075360D01*
X8849040Y-6035360D02*
X8809040Y-6075360D01*
X8829360Y-4800920D02*
X8869360Y-4840920D01*
X8869360Y-4800920D02*
X8829360Y-4840920D01*
X8846666Y-8593731D02*
X8886666Y-8633731D01*
X8886666Y-8593731D02*
X8846666Y-8633731D01*
X8859840Y-3469960D02*
X8899840Y-3509960D01*
X8899840Y-3469960D02*
X8859840Y-3509960D01*
X8875080Y-7767640D02*
X8915080Y-7807640D01*
X8915080Y-7767640D02*
X8875080Y-7807640D01*
X8885240Y-5898200D02*
X8925240Y-5938200D01*
X8925240Y-5898200D02*
X8885240Y-5938200D01*
X8885240Y-7493320D02*
X8925240Y-7533320D01*
X8925240Y-7493320D02*
X8885240Y-7533320D01*
X8905353Y-5583033D02*
X8945353Y-5623033D01*
X8945353Y-5583033D02*
X8905353Y-5623033D01*
X8951280Y-9926640D02*
X8991280Y-9966640D01*
X8991280Y-9926640D02*
X8951280Y-9966640D01*
X8976680Y-9438960D02*
X9016680Y-9478960D01*
X9016680Y-9438960D02*
X8976680Y-9478960D01*
X8987050Y-8463600D02*
X9027050Y-8503600D01*
X9027050Y-8463600D02*
X8987050Y-8503600D01*
X8991920Y-5507040D02*
X9031920Y-5547040D01*
X9031920Y-5507040D02*
X8991920Y-5547040D01*
X9002080Y-11293160D02*
X9042080Y-11333160D01*
X9042080Y-11293160D02*
X9002080Y-11333160D01*
X9057960Y-9926640D02*
X9097960Y-9966640D01*
X9097960Y-9926640D02*
X9057960Y-9966640D01*
X9063040Y-5766120D02*
X9103040Y-5806120D01*
X9103040Y-5766120D02*
X9063040Y-5806120D01*
X9083360Y-6223320D02*
X9123360Y-6263320D01*
X9123360Y-6223320D02*
X9083360Y-6263320D01*
X9088440Y-7681280D02*
X9128440Y-7721280D01*
X9128440Y-7681280D02*
X9088440Y-7721280D01*
X9115954Y-9291640D02*
X9155954Y-9331640D01*
X9155954Y-9291640D02*
X9115954Y-9331640D01*
X9135300Y-4809124D02*
X9175300Y-4849124D01*
X9175300Y-4809124D02*
X9135300Y-4849124D01*
X9144320Y-11963720D02*
X9184320Y-12003720D01*
X9184320Y-11963720D02*
X9144320Y-12003720D01*
X9144320Y-12471720D02*
X9184320Y-12511720D01*
X9184320Y-12471720D02*
X9144320Y-12511720D01*
X9159560Y-11084880D02*
X9199560Y-11124880D01*
X9199560Y-11084880D02*
X9159560Y-11124880D01*
X9174800Y-10013000D02*
X9214800Y-10053000D01*
X9214800Y-10013000D02*
X9174800Y-10053000D01*
X9245920Y-5308920D02*
X9285920Y-5348920D01*
X9285920Y-5308920D02*
X9245920Y-5348920D01*
X9245920Y-5501960D02*
X9285920Y-5541960D01*
X9285920Y-5501960D02*
X9245920Y-5541960D01*
X9256080Y-10546400D02*
X9296080Y-10586400D01*
X9296080Y-10546400D02*
X9256080Y-10586400D01*
X9291640Y-9052880D02*
X9331640Y-9092880D01*
X9331640Y-9052880D02*
X9291640Y-9092880D01*
X9311960Y-3632520D02*
X9351960Y-3672520D01*
X9351960Y-3632520D02*
X9311960Y-3672520D01*
X9311960Y-5164140D02*
X9351960Y-5204140D01*
X9351960Y-5164140D02*
X9311960Y-5204140D01*
X9421180Y-5306380D02*
X9461180Y-5346380D01*
X9461180Y-5306380D02*
X9421180Y-5346380D01*
X9444040Y-7518720D02*
X9484040Y-7558720D01*
X9484040Y-7518720D02*
X9444040Y-7558720D01*
X9444250Y-9276098D02*
X9484250Y-9316098D01*
X9484250Y-9276098D02*
X9444250Y-9316098D01*
X9444250Y-9479298D02*
X9484250Y-9519298D01*
X9484250Y-9479298D02*
X9444250Y-9519298D01*
X9469150Y-10952800D02*
X9509150Y-10992800D01*
X9509150Y-10952800D02*
X9469150Y-10992800D01*
X9482140Y-5009200D02*
X9522140Y-5049200D01*
X9522140Y-5009200D02*
X9482140Y-5049200D01*
X9535060Y-2941640D02*
X9575060Y-2981640D01*
X9575060Y-2941640D02*
X9535060Y-2981640D01*
X9540560Y-11780840D02*
X9580560Y-11820840D01*
X9580560Y-11780840D02*
X9540560Y-11820840D01*
X9550720Y-4902520D02*
X9590720Y-4942520D01*
X9590720Y-4902520D02*
X9550720Y-4942520D01*
X9576120Y-2855280D02*
X9616120Y-2895280D01*
X9616120Y-2855280D02*
X9576120Y-2895280D01*
X9647240Y-3840800D02*
X9687240Y-3880800D01*
X9687240Y-3840800D02*
X9647240Y-3880800D01*
X9647240Y-4094800D02*
X9687240Y-4134800D01*
X9687240Y-4094800D02*
X9647240Y-4134800D01*
X9652500Y-11156000D02*
X9692500Y-11196000D01*
X9692500Y-11156000D02*
X9652500Y-11196000D01*
X9657400Y-4638360D02*
X9697400Y-4678360D01*
X9697400Y-4638360D02*
X9657400Y-4678360D01*
X9667560Y-5501960D02*
X9707560Y-5541960D01*
X9707560Y-5501960D02*
X9667560Y-5541960D01*
X9670100Y-12324400D02*
X9710100Y-12364400D01*
X9710100Y-12324400D02*
X9670100Y-12364400D01*
X9677720Y-5872800D02*
X9717720Y-5912800D01*
X9717720Y-5872800D02*
X9677720Y-5912800D01*
X9692960Y-9837950D02*
X9732960Y-9877950D01*
X9732960Y-9837950D02*
X9692960Y-9877950D01*
X9698040Y-7737160D02*
X9738040Y-7777160D01*
X9738040Y-7737160D02*
X9698040Y-7777160D01*
X9789480Y-2672400D02*
X9829480Y-2712400D01*
X9829480Y-2672400D02*
X9789480Y-2712400D01*
X9797100Y-12324400D02*
X9837100Y-12364400D01*
X9837100Y-12324400D02*
X9797100Y-12364400D01*
X9804720Y-7523800D02*
X9844720Y-7563800D01*
X9844720Y-7523800D02*
X9804720Y-7563800D01*
X9870760Y-10388920D02*
X9910760Y-10428920D01*
X9910760Y-10388920D02*
X9870760Y-10428920D01*
X9870760Y-10566720D02*
X9910760Y-10606720D01*
X9910760Y-10566720D02*
X9870760Y-10606720D01*
X9906320Y-11256510D02*
X9946320Y-11296510D01*
X9946320Y-11256510D02*
X9906320Y-11296510D01*
X9962200Y-10089200D02*
X10002200Y-10129200D01*
X10002200Y-10089200D02*
X9962200Y-10129200D01*
X9962200Y-10190800D02*
X10002200Y-10230800D01*
X10002200Y-10190800D02*
X9962200Y-10230800D01*
X9967150Y-9772003D02*
X10007150Y-9812003D01*
X10007150Y-9772003D02*
X9967150Y-9812003D01*
X9972360Y-12156760D02*
X10012360Y-12196760D01*
X10012360Y-12156760D02*
X9972360Y-12196760D01*
X9987600Y-4455480D02*
X10027600Y-4495480D01*
X10027600Y-4455480D02*
X9987600Y-4495480D01*
X10038400Y-11255060D02*
X10078400Y-11295060D01*
X10078400Y-11255060D02*
X10038400Y-11295060D01*
X10048560Y-2941640D02*
X10088560Y-2981640D01*
X10088560Y-2941640D02*
X10048560Y-2981640D01*
X10048560Y-10566720D02*
X10088560Y-10606720D01*
X10088560Y-10566720D02*
X10048560Y-10606720D01*
X10058720Y-11780840D02*
X10098720Y-11820840D01*
X10098720Y-11780840D02*
X10058720Y-11820840D01*
X10073960Y-9408480D02*
X10113960Y-9448480D01*
X10113960Y-9408480D02*
X10073960Y-9448480D01*
X10073960Y-9535480D02*
X10113960Y-9575480D01*
X10113960Y-9535480D02*
X10073960Y-9575480D01*
X10127300Y-10089200D02*
X10167300Y-10129200D01*
X10167300Y-10089200D02*
X10127300Y-10129200D01*
X10153328Y-11199012D02*
X10193328Y-11239012D01*
X10193328Y-11199012D02*
X10153328Y-11239012D01*
X10170480Y-10688640D02*
X10210480Y-10728640D01*
X10210480Y-10688640D02*
X10170480Y-10728640D01*
X10175560Y-9535480D02*
X10215560Y-9575480D01*
X10215560Y-9535480D02*
X10175560Y-9575480D01*
X10176111Y-3937871D02*
X10216111Y-3977871D01*
X10216111Y-3937871D02*
X10176111Y-3977871D01*
X10241600Y-11816400D02*
X10281600Y-11856400D01*
X10281600Y-11816400D02*
X10241600Y-11856400D01*
X10246680Y-2672400D02*
X10286680Y-2712400D01*
X10286680Y-2672400D02*
X10246680Y-2712400D01*
X10292400Y-9515160D02*
X10332400Y-9555160D01*
X10332400Y-9515160D02*
X10292400Y-9555160D01*
X10294690Y-11555567D02*
X10334690Y-11595567D01*
X10334690Y-11555567D02*
X10294690Y-11595567D01*
X10322880Y-5771200D02*
X10362880Y-5811200D01*
X10362880Y-5771200D02*
X10322880Y-5811200D01*
X10419400Y-11196850D02*
X10459400Y-11236850D01*
X10459400Y-11196850D02*
X10419400Y-11236850D01*
X10424480Y-7742240D02*
X10464480Y-7782240D01*
X10464480Y-7742240D02*
X10424480Y-7782240D01*
X10505760Y-2936560D02*
X10545760Y-2976560D01*
X10545760Y-2936560D02*
X10505760Y-2976560D01*
X10505760Y-4414840D02*
X10545760Y-4454840D01*
X10545760Y-4414840D02*
X10505760Y-4454840D01*
X10515920Y-11689400D02*
X10555920Y-11729400D01*
X10555920Y-11689400D02*
X10515920Y-11729400D01*
X10612440Y-4414840D02*
X10652440Y-4454840D01*
X10652440Y-4414840D02*
X10612440Y-4454840D01*
X10622600Y-11194100D02*
X10662600Y-11234100D01*
X10662600Y-11194100D02*
X10622600Y-11234100D01*
X10642920Y-9753920D02*
X10682920Y-9793920D01*
X10682920Y-9753920D02*
X10642920Y-9793920D01*
X10698800Y-10830880D02*
X10738800Y-10870880D01*
X10738800Y-10830880D02*
X10698800Y-10870880D01*
X10703880Y-2672400D02*
X10743880Y-2712400D01*
X10743880Y-2672400D02*
X10703880Y-2712400D01*
X10724200Y-11516680D02*
X10764200Y-11556680D01*
X10764200Y-11516680D02*
X10724200Y-11556680D01*
X10734360Y-6018800D02*
X10774360Y-6058800D01*
X10774360Y-6018800D02*
X10734360Y-6058800D01*
X10846120Y-6523040D02*
X10886120Y-6563040D01*
X10886120Y-6523040D02*
X10846120Y-6563040D01*
X10846120Y-7158040D02*
X10886120Y-7198040D01*
X10886120Y-7158040D02*
X10846120Y-7198040D01*
X10846120Y-7823520D02*
X10886120Y-7863520D01*
X10886120Y-7823520D02*
X10846120Y-7863520D01*
X10876600Y-3810320D02*
X10916600Y-3850320D01*
X10916600Y-3810320D02*
X10876600Y-3850320D01*
X10932480Y-11689400D02*
X10972480Y-11729400D01*
X10972480Y-11689400D02*
X10932480Y-11729400D01*
X10957880Y-4343720D02*
X10997880Y-4383720D01*
X10997880Y-4343720D02*
X10957880Y-4383720D01*
X10973120Y-10820720D02*
X11013120Y-10860720D01*
X11013120Y-10820720D02*
X10973120Y-10860720D01*
X11018840Y-8788720D02*
X11058840Y-8828720D01*
X11058840Y-8788720D02*
X11018840Y-8828720D01*
X11023920Y-8468680D02*
X11063920Y-8508680D01*
X11063920Y-8468680D02*
X11023920Y-8508680D01*
X11023920Y-9520240D02*
X11063920Y-9560240D01*
X11063920Y-9520240D02*
X11023920Y-9560240D01*
X11023920Y-9840280D02*
X11063920Y-9880280D01*
X11063920Y-9840280D02*
X11023920Y-9880280D01*
X11029000Y-10475280D02*
X11069000Y-10515280D01*
X11069000Y-10475280D02*
X11029000Y-10515280D01*
X11029000Y-11194100D02*
X11069000Y-11234100D01*
X11069000Y-11194100D02*
X11029000Y-11234100D01*
X11064560Y-3190560D02*
X11104560Y-3230560D01*
X11104560Y-3190560D02*
X11064560Y-3230560D01*
X11124709Y-11529748D02*
X11164709Y-11569748D01*
X11164709Y-11529748D02*
X11124709Y-11569748D01*
X11125520Y-8732840D02*
X11165520Y-8772840D01*
X11165520Y-8732840D02*
X11125520Y-8772840D01*
X11161080Y-2672400D02*
X11201080Y-2712400D01*
X11201080Y-2672400D02*
X11161080Y-2712400D01*
X11194100Y-3980500D02*
X11234100Y-4020500D01*
X11234100Y-3980500D02*
X11194100Y-4020500D01*
X11216960Y-10475280D02*
X11256960Y-10515280D01*
X11256960Y-10475280D02*
X11216960Y-10515280D01*
X11227120Y-9520240D02*
X11267120Y-9560240D01*
X11267120Y-9520240D02*
X11227120Y-9560240D01*
X11227120Y-9840280D02*
X11267120Y-9880280D01*
X11267120Y-9840280D02*
X11227120Y-9880280D01*
X11232200Y-4602800D02*
X11272200Y-4642800D01*
X11272200Y-4602800D02*
X11232200Y-4642800D01*
X11232200Y-11003600D02*
X11272200Y-11043600D01*
X11272200Y-11003600D02*
X11232200Y-11043600D01*
X11257600Y-4882200D02*
X11297600Y-4922200D01*
X11297600Y-4882200D02*
X11257600Y-4922200D01*
X11272840Y-7259640D02*
X11312840Y-7299640D01*
X11312840Y-7259640D02*
X11272840Y-7299640D01*
X11293160Y-4389440D02*
X11333160Y-4429440D01*
X11333160Y-4389440D02*
X11293160Y-4429440D01*
X11310750Y-5837750D02*
X11350750Y-5877750D01*
X11350750Y-5837750D02*
X11310750Y-5877750D01*
X11310750Y-6726750D02*
X11350750Y-6766750D01*
X11350750Y-6726750D02*
X11310750Y-6766750D01*
X11310750Y-7615750D02*
X11350750Y-7655750D01*
X11350750Y-7615750D02*
X11310750Y-7655750D01*
X11310750Y-8504750D02*
X11350750Y-8544750D01*
X11350750Y-8504750D02*
X11310750Y-8544750D01*
X11379520Y-11745280D02*
X11419520Y-11785280D01*
X11419520Y-11745280D02*
X11379520Y-11785280D01*
X11397300Y-3993200D02*
X11437300Y-4033200D01*
X11437300Y-3993200D02*
X11397300Y-4033200D01*
X11399840Y-2824800D02*
X11439840Y-2864800D01*
X11439840Y-2824800D02*
X11399840Y-2864800D01*
X11399840Y-3078800D02*
X11439840Y-3118800D01*
X11439840Y-3078800D02*
X11399840Y-3118800D01*
X11399840Y-3332800D02*
X11439840Y-3372800D01*
X11439840Y-3332800D02*
X11399840Y-3372800D01*
X11399840Y-3586800D02*
X11439840Y-3626800D01*
X11439840Y-3586800D02*
X11399840Y-3626800D01*
X11399997Y-3811596D02*
X11439997Y-3851596D01*
X11439997Y-3811596D02*
X11399997Y-3851596D01*
X11440480Y-5075240D02*
X11480480Y-5115240D01*
X11480480Y-5075240D02*
X11440480Y-5115240D01*
X11461361Y-11196289D02*
X11501361Y-11236289D01*
X11501361Y-11196289D02*
X11461361Y-11236289D01*
X11501440Y-10785160D02*
X11541440Y-10825160D01*
X11541440Y-10785160D02*
X11501440Y-10825160D01*
X11594800Y-11440480D02*
X11634800Y-11480480D01*
X11634800Y-11440480D02*
X11594800Y-11480480D01*
X11618280Y-8788720D02*
X11658280Y-8828720D01*
X11658280Y-8788720D02*
X11618280Y-8828720D01*
X11625900Y-9505000D02*
X11665900Y-9545000D01*
X11665900Y-9505000D02*
X11625900Y-9545000D01*
X11628440Y-9847900D02*
X11668440Y-9887900D01*
X11668440Y-9847900D02*
X11628440Y-9887900D01*
X11628440Y-10480360D02*
X11668440Y-10520360D01*
X11668440Y-10480360D02*
X11628440Y-10520360D01*
X11638600Y-11003600D02*
X11678600Y-11043600D01*
X11678600Y-11003600D02*
X11638600Y-11043600D01*
X11750360Y-4526600D02*
X11790360Y-4566600D01*
X11790360Y-4526600D02*
X11750360Y-4566600D01*
X11750360Y-4679000D02*
X11790360Y-4719000D01*
X11790360Y-4679000D02*
X11750360Y-4719000D01*
X11785920Y-11836720D02*
X11825920Y-11876720D01*
X11825920Y-11836720D02*
X11785920Y-11876720D01*
X11836720Y-10480360D02*
X11876720Y-10520360D01*
X11876720Y-10480360D02*
X11836720Y-10520360D01*
X11841800Y-9073200D02*
X11881800Y-9113200D01*
X11881800Y-9073200D02*
X11841800Y-9113200D01*
X11841800Y-11194100D02*
X11881800Y-11234100D01*
X11881800Y-11194100D02*
X11841800Y-11234100D01*
X11846880Y-9720900D02*
X11886880Y-9760900D01*
X11886880Y-9720900D02*
X11846880Y-9760900D01*
X11857040Y-8737920D02*
X11897040Y-8777920D01*
X11897040Y-8737920D02*
X11857040Y-8777920D01*
X11877360Y-5517200D02*
X11917360Y-5557200D01*
X11917360Y-5517200D02*
X11877360Y-5557200D01*
X11887520Y-10780080D02*
X11927520Y-10820080D01*
X11927520Y-10780080D02*
X11887520Y-10820080D01*
X11930700Y-9847900D02*
X11970700Y-9887900D01*
X11970700Y-9847900D02*
X11930700Y-9887900D01*
X11933240Y-9505000D02*
X11973240Y-9545000D01*
X11973240Y-9505000D02*
X11933240Y-9545000D01*
X11933240Y-11415080D02*
X11973240Y-11455080D01*
X11973240Y-11415080D02*
X11933240Y-11455080D01*
X11978960Y-4526600D02*
X12018960Y-4566600D01*
X12018960Y-4526600D02*
X11978960Y-4566600D01*
X11978960Y-4679000D02*
X12018960Y-4719000D01*
X12018960Y-4679000D02*
X11978960Y-4719000D01*
X12107563Y-10813704D02*
X12147563Y-10853704D01*
X12147563Y-10813704D02*
X12107563Y-10853704D01*
X12121200Y-5441000D02*
X12161200Y-5481000D01*
X12161200Y-5441000D02*
X12121200Y-5481000D01*
X12121200Y-5949000D02*
X12161200Y-5989000D01*
X12161200Y-5949000D02*
X12121200Y-5989000D01*
X12121200Y-6330000D02*
X12161200Y-6370000D01*
X12161200Y-6330000D02*
X12121200Y-6370000D01*
X12121200Y-6838000D02*
X12161200Y-6878000D01*
X12161200Y-6838000D02*
X12121200Y-6878000D01*
X12121200Y-7727000D02*
X12161200Y-7767000D01*
X12161200Y-7727000D02*
X12121200Y-7767000D01*
X12121200Y-8108000D02*
X12161200Y-8148000D01*
X12161200Y-8108000D02*
X12121200Y-8148000D01*
X12121200Y-8616000D02*
X12161200Y-8656000D01*
X12161200Y-8616000D02*
X12121200Y-8656000D01*
X12126280Y-7219000D02*
X12166280Y-7259000D01*
X12166280Y-7219000D02*
X12126280Y-7259000D01*
X12146600Y-11755440D02*
X12186600Y-11795440D01*
X12186600Y-11755440D02*
X12146600Y-11795440D01*
X12156760Y-9505000D02*
X12196760Y-9545000D01*
X12196760Y-9505000D02*
X12156760Y-9545000D01*
X12156760Y-9746300D02*
X12196760Y-9786300D01*
X12196760Y-9746300D02*
X12156760Y-9786300D01*
X12197400Y-10825800D02*
X12237400Y-10865800D01*
X12237400Y-10825800D02*
X12197400Y-10865800D01*
X12243120Y-10592120D02*
X12283120Y-10632120D01*
X12283120Y-10592120D02*
X12243120Y-10632120D01*
X12248200Y-11194100D02*
X12288200Y-11234100D01*
X12288200Y-11194100D02*
X12248200Y-11234100D01*
X12344720Y-7219000D02*
X12384720Y-7259000D01*
X12384720Y-7219000D02*
X12344720Y-7259000D01*
X12344720Y-11415080D02*
X12384720Y-11455080D01*
X12384720Y-11415080D02*
X12344720Y-11455080D01*
X12349800Y-5441000D02*
X12389800Y-5481000D01*
X12389800Y-5441000D02*
X12349800Y-5481000D01*
X12349800Y-5949000D02*
X12389800Y-5989000D01*
X12389800Y-5949000D02*
X12349800Y-5989000D01*
X12349800Y-6330000D02*
X12389800Y-6370000D01*
X12389800Y-6330000D02*
X12349800Y-6370000D01*
X12349800Y-6838000D02*
X12389800Y-6878000D01*
X12389800Y-6838000D02*
X12349800Y-6878000D01*
X12349800Y-7727000D02*
X12389800Y-7767000D01*
X12389800Y-7727000D02*
X12349800Y-7767000D01*
X12349800Y-8108000D02*
X12389800Y-8148000D01*
X12389800Y-8108000D02*
X12349800Y-8148000D01*
X12349800Y-8616000D02*
X12389800Y-8656000D01*
X12389800Y-8616000D02*
X12349800Y-8656000D01*
X12359960Y-9505000D02*
X12399960Y-9545000D01*
X12399960Y-9505000D02*
X12359960Y-9545000D01*
X12362500Y-9746300D02*
X12402500Y-9786300D01*
X12402500Y-9746300D02*
X12362500Y-9786300D01*
X12451400Y-10973120D02*
X12491400Y-11013120D01*
X12491400Y-10973120D02*
X12451400Y-11013120D01*
X12463348Y-12102668D02*
X12503348Y-12142668D01*
X12503348Y-12102668D02*
X12463348Y-12142668D01*
X12466640Y-11435400D02*
X12506640Y-11475400D01*
X12506640Y-11435400D02*
X12466640Y-11475400D01*
X12514900Y-9251000D02*
X12554900Y-9291000D01*
X12554900Y-9251000D02*
X12514900Y-9291000D01*
X12514900Y-9390700D02*
X12554900Y-9430700D01*
X12554900Y-9390700D02*
X12514900Y-9430700D01*
X12514900Y-9530400D02*
X12554900Y-9570400D01*
X12554900Y-9530400D02*
X12514900Y-9570400D01*
X12514900Y-9682800D02*
X12554900Y-9722800D01*
X12554900Y-9682800D02*
X12514900Y-9722800D01*
X9178000Y-8696800D02*
G75*
G03*
X9178000Y-8696800I-34000J0D01*
G01*
X9178000Y-9184800D02*
G75*
G03*
X9178000Y-9184800I-34000J0D01*
G01*
X7972050Y-3008900D02*
X7972050Y-3088900D01*
X7932050Y-3048900D02*
X8012050Y-3048900D01*
X8322050Y-3008900D02*
X8322050Y-3088900D01*
X8282050Y-3048900D02*
X8362050Y-3048900D01*
X10631900Y-5675000D02*
X10631900Y-5755000D01*
X10591900Y-5715000D02*
X10671900Y-5715000D01*
X10881900Y-5675000D02*
X10881900Y-5755000D01*
X10841900Y-5715000D02*
X10921900Y-5715000D01*
X3337356Y-11668556D02*
X3337356Y-11597844D01*
X3266644Y-11597844D01*
X3266644Y-11668556D01*
X3337356Y-11668556D01*
X3591356Y-11668556D02*
X3591356Y-11597844D01*
X3520644Y-11597844D01*
X3520644Y-11668556D01*
X3591356Y-11668556D01*
X3647856Y-5494856D02*
X3647856Y-5424144D01*
X3577144Y-5424144D01*
X3577144Y-5494856D01*
X3647856Y-5494856D01*
X3647856Y-5748856D02*
X3647856Y-5678144D01*
X3577144Y-5678144D01*
X3577144Y-5748856D01*
X3647856Y-5748856D01*
X3647856Y-6002856D02*
X3647856Y-5932144D01*
X3577144Y-5932144D01*
X3577144Y-6002856D01*
X3647856Y-6002856D01*
X3647856Y-6383856D02*
X3647856Y-6313144D01*
X3577144Y-6313144D01*
X3577144Y-6383856D01*
X3647856Y-6383856D01*
X3647856Y-6637856D02*
X3647856Y-6567144D01*
X3577144Y-6567144D01*
X3577144Y-6637856D01*
X3647856Y-6637856D01*
X3647856Y-6891856D02*
X3647856Y-6821144D01*
X3577144Y-6821144D01*
X3577144Y-6891856D01*
X3647856Y-6891856D01*
X3647856Y-7272856D02*
X3647856Y-7202144D01*
X3577144Y-7202144D01*
X3577144Y-7272856D01*
X3647856Y-7272856D01*
X3647856Y-7526856D02*
X3647856Y-7456144D01*
X3577144Y-7456144D01*
X3577144Y-7526856D01*
X3647856Y-7526856D01*
X3647856Y-7780856D02*
X3647856Y-7710144D01*
X3577144Y-7710144D01*
X3577144Y-7780856D01*
X3647856Y-7780856D01*
X3647856Y-8161856D02*
X3647856Y-8091144D01*
X3577144Y-8091144D01*
X3577144Y-8161856D01*
X3647856Y-8161856D01*
X3647856Y-8415856D02*
X3647856Y-8345144D01*
X3577144Y-8345144D01*
X3577144Y-8415856D01*
X3647856Y-8415856D01*
X3647856Y-8669856D02*
X3647856Y-8599144D01*
X3577144Y-8599144D01*
X3577144Y-8669856D01*
X3647856Y-8669856D01*
X3845356Y-11668556D02*
X3845356Y-11597844D01*
X3774644Y-11597844D01*
X3774644Y-11668556D01*
X3845356Y-11668556D01*
X4099356Y-11668556D02*
X4099356Y-11597844D01*
X4028644Y-11597844D01*
X4028644Y-11668556D01*
X4099356Y-11668556D01*
X4353356Y-11668556D02*
X4353356Y-11597844D01*
X4282644Y-11597844D01*
X4282644Y-11668556D01*
X4353356Y-11668556D01*
X4607356Y-11668556D02*
X4607356Y-11597844D01*
X4536644Y-11597844D01*
X4536644Y-11668556D01*
X4607356Y-11668556D01*
X4986856Y-11662856D02*
X4986856Y-11592144D01*
X4916144Y-11592144D01*
X4916144Y-11662856D01*
X4986856Y-11662856D01*
X5240856Y-11662856D02*
X5240856Y-11592144D01*
X5170144Y-11592144D01*
X5170144Y-11662856D01*
X5240856Y-11662856D01*
X5494856Y-11662856D02*
X5494856Y-11592144D01*
X5424144Y-11592144D01*
X5424144Y-11662856D01*
X5494856Y-11662856D01*
X5521756Y-3642156D02*
X5521756Y-3571444D01*
X5451044Y-3571444D01*
X5451044Y-3642156D01*
X5521756Y-3642156D01*
X5543076Y-7167676D02*
X5543076Y-7096964D01*
X5472364Y-7096964D01*
X5472364Y-7167676D01*
X5543076Y-7167676D01*
X5775756Y-3642156D02*
X5775756Y-3571444D01*
X5705044Y-3571444D01*
X5705044Y-3642156D01*
X5775756Y-3642156D01*
X5875856Y-11662856D02*
X5875856Y-11592144D01*
X5805144Y-11592144D01*
X5805144Y-11662856D01*
X5875856Y-11662856D01*
X6029756Y-3642156D02*
X6029756Y-3571444D01*
X5959044Y-3571444D01*
X5959044Y-3642156D01*
X6029756Y-3642156D01*
X6129856Y-11662856D02*
X6129856Y-11592144D01*
X6059144Y-11592144D01*
X6059144Y-11662856D01*
X6129856Y-11662856D01*
X6303076Y-7167676D02*
X6303076Y-7096964D01*
X6232364Y-7096964D01*
X6232364Y-7167676D01*
X6303076Y-7167676D01*
X6383856Y-11662856D02*
X6383856Y-11592144D01*
X6313144Y-11592144D01*
X6313144Y-11662856D01*
X6383856Y-11662856D01*
X6764856Y-11662856D02*
X6764856Y-11592144D01*
X6694144Y-11592144D01*
X6694144Y-11662856D01*
X6764856Y-11662856D01*
X7018856Y-11662856D02*
X7018856Y-11592144D01*
X6948144Y-11592144D01*
X6948144Y-11662856D01*
X7018856Y-11662856D01*
X7272856Y-11662856D02*
X7272856Y-11592144D01*
X7202144Y-11592144D01*
X7202144Y-11662856D01*
X7272856Y-11662856D01*
X7526856Y-11662856D02*
X7526856Y-11592144D01*
X7456144Y-11592144D01*
X7456144Y-11662856D01*
X7526856Y-11662856D01*
X7780856Y-11662856D02*
X7780856Y-11592144D01*
X7710144Y-11592144D01*
X7710144Y-11662856D01*
X7780856Y-11662856D01*
X8034856Y-11662856D02*
X8034856Y-11592144D01*
X7964144Y-11592144D01*
X7964144Y-11662856D01*
X8034856Y-11662856D01*
X8288856Y-11662856D02*
X8288856Y-11592144D01*
X8218144Y-11592144D01*
X8218144Y-11662856D01*
X8288856Y-11662856D01*
X8542856Y-11662856D02*
X8542856Y-11592144D01*
X8472144Y-11592144D01*
X8472144Y-11662856D01*
X8542856Y-11662856D01*
X8923856Y-11662856D02*
X8923856Y-11592144D01*
X8853144Y-11592144D01*
X8853144Y-11662856D01*
X8923856Y-11662856D01*
X9177856Y-11662856D02*
X9177856Y-11592144D01*
X9107144Y-11592144D01*
X9107144Y-11662856D01*
X9177856Y-11662856D01*
X9431856Y-11662856D02*
X9431856Y-11592144D01*
X9361144Y-11592144D01*
X9361144Y-11662856D01*
X9431856Y-11662856D01*
X10373156Y-12024156D02*
X10373156Y-11953444D01*
X10302444Y-11953444D01*
X10302444Y-12024156D01*
X10373156Y-12024156D01*
X10373156Y-12278156D02*
X10373156Y-12207444D01*
X10302444Y-12207444D01*
X10302444Y-12278156D01*
X10373156Y-12278156D01*
X10373156Y-12532156D02*
X10373156Y-12461444D01*
X10302444Y-12461444D01*
X10302444Y-12532156D01*
X10373156Y-12532156D01*
X10779556Y-12024156D02*
X10779556Y-11953444D01*
X10708844Y-11953444D01*
X10708844Y-12024156D01*
X10779556Y-12024156D01*
X10779556Y-12278156D02*
X10779556Y-12207444D01*
X10708844Y-12207444D01*
X10708844Y-12278156D01*
X10779556Y-12278156D01*
X10779556Y-12532156D02*
X10779556Y-12461444D01*
X10708844Y-12461444D01*
X10708844Y-12532156D01*
X10779556Y-12532156D01*
X11185956Y-12024156D02*
X11185956Y-11953444D01*
X11115244Y-11953444D01*
X11115244Y-12024156D01*
X11185956Y-12024156D01*
X11185956Y-12278156D02*
X11185956Y-12207444D01*
X11115244Y-12207444D01*
X11115244Y-12278156D01*
X11185956Y-12278156D01*
X11185956Y-12532156D02*
X11185956Y-12461444D01*
X11115244Y-12461444D01*
X11115244Y-12532156D01*
X11185956Y-12532156D01*
X11592356Y-12024156D02*
X11592356Y-11953444D01*
X11521644Y-11953444D01*
X11521644Y-12024156D01*
X11592356Y-12024156D01*
X11592356Y-12278156D02*
X11592356Y-12207444D01*
X11521644Y-12207444D01*
X11521644Y-12278156D01*
X11592356Y-12278156D01*
X11592356Y-12532156D02*
X11592356Y-12461444D01*
X11521644Y-12461444D01*
X11521644Y-12532156D01*
X11592356Y-12532156D01*
X11662856Y-5497856D02*
X11662856Y-5427144D01*
X11592144Y-5427144D01*
X11592144Y-5497856D01*
X11662856Y-5497856D01*
X11662856Y-5751856D02*
X11662856Y-5681144D01*
X11592144Y-5681144D01*
X11592144Y-5751856D01*
X11662856Y-5751856D01*
X11662856Y-6005856D02*
X11662856Y-5935144D01*
X11592144Y-5935144D01*
X11592144Y-6005856D01*
X11662856Y-6005856D01*
X11662856Y-6386856D02*
X11662856Y-6316144D01*
X11592144Y-6316144D01*
X11592144Y-6386856D01*
X11662856Y-6386856D01*
X11662856Y-6640856D02*
X11662856Y-6570144D01*
X11592144Y-6570144D01*
X11592144Y-6640856D01*
X11662856Y-6640856D01*
X11662856Y-6894856D02*
X11662856Y-6824144D01*
X11592144Y-6824144D01*
X11592144Y-6894856D01*
X11662856Y-6894856D01*
X11662856Y-7275856D02*
X11662856Y-7205144D01*
X11592144Y-7205144D01*
X11592144Y-7275856D01*
X11662856Y-7275856D01*
X11662856Y-7529856D02*
X11662856Y-7459144D01*
X11592144Y-7459144D01*
X11592144Y-7529856D01*
X11662856Y-7529856D01*
X11662856Y-7783856D02*
X11662856Y-7713144D01*
X11592144Y-7713144D01*
X11592144Y-7783856D01*
X11662856Y-7783856D01*
X11662856Y-8164856D02*
X11662856Y-8094144D01*
X11592144Y-8094144D01*
X11592144Y-8164856D01*
X11662856Y-8164856D01*
X11662856Y-8418856D02*
X11662856Y-8348144D01*
X11592144Y-8348144D01*
X11592144Y-8418856D01*
X11662856Y-8418856D01*
X11662856Y-8672856D02*
X11662856Y-8602144D01*
X11592144Y-8602144D01*
X11592144Y-8672856D01*
X11662856Y-8672856D01*
X11998756Y-12024156D02*
X11998756Y-11953444D01*
X11928044Y-11953444D01*
X11928044Y-12024156D01*
X11998756Y-12024156D01*
X11998756Y-12278156D02*
X11998756Y-12207444D01*
X11928044Y-12207444D01*
X11928044Y-12278156D01*
X11998756Y-12278156D01*
X11998756Y-12532156D02*
X11998756Y-12461444D01*
X11928044Y-12461444D01*
X11928044Y-12532156D01*
X11998756Y-12532156D01*
X12405156Y-12024156D02*
X12405156Y-11953444D01*
X12334444Y-11953444D01*
X12334444Y-12024156D01*
X12405156Y-12024156D01*
X12405156Y-12278156D02*
X12405156Y-12207444D01*
X12334444Y-12207444D01*
X12334444Y-12278156D01*
X12405156Y-12278156D01*
X12405156Y-12532156D02*
X12405156Y-12461444D01*
X12334444Y-12461444D01*
X12334444Y-12532156D01*
X12405156Y-12532156D01*
D13*
X4501000Y-3411400D02*
X4556000Y-3356400D01*
X4501000Y-3301400D01*
X4446000Y-3356400D01*
X4501000Y-3411400D01*
X4501000Y-3861400D02*
X4556000Y-3806400D01*
X4501000Y-3751400D01*
X4446000Y-3806400D01*
X4501000Y-3861400D01*
X4501000Y-4173400D02*
X4556000Y-4118400D01*
X4501000Y-4063400D01*
X4446000Y-4118400D01*
X4501000Y-4173400D01*
X4501000Y-4623400D02*
X4556000Y-4568400D01*
X4501000Y-4513400D01*
X4446000Y-4568400D01*
X4501000Y-4623400D01*
X5151000Y-3411400D02*
X5206000Y-3356400D01*
X5151000Y-3301400D01*
X5096000Y-3356400D01*
X5151000Y-3411400D01*
X5151000Y-3861400D02*
X5206000Y-3806400D01*
X5151000Y-3751400D01*
X5096000Y-3806400D01*
X5151000Y-3861400D01*
X5151000Y-4173400D02*
X5206000Y-4118400D01*
X5151000Y-4063400D01*
X5096000Y-4118400D01*
X5151000Y-4173400D01*
X5151000Y-4623400D02*
X5206000Y-4568400D01*
X5151000Y-4513400D01*
X5096000Y-4568400D01*
X5151000Y-4623400D01*
X8774550Y-2830800D02*
X8829550Y-2775800D01*
X8774550Y-2720800D01*
X8719550Y-2775800D01*
X8774550Y-2830800D01*
X8774550Y-3280800D02*
X8829550Y-3225800D01*
X8774550Y-3170800D01*
X8719550Y-3225800D01*
X8774550Y-3280800D01*
X9424550Y-2830800D02*
X9479550Y-2775800D01*
X9424550Y-2720800D01*
X9369550Y-2775800D01*
X9424550Y-2830800D01*
X9424550Y-3280800D02*
X9479550Y-3225800D01*
X9424550Y-3170800D01*
X9369550Y-3225800D01*
X9424550Y-3280800D01*
D10*
X12066200Y-4547800D02*
X12216200Y-4697800D01*
X12216200Y-4547800D02*
X12066200Y-4697800D01*
X12216200Y-4622800D02*
G75*
G03*
X12216200Y-4622800I-75000J0D01*
G01*
D14*
X11802200Y-4283800D02*
X11972200Y-4453800D01*
X11972200Y-4283800D02*
X11802200Y-4453800D01*
X11887200Y-4283800D02*
X11887200Y-4453800D01*
X11802200Y-4368800D02*
X11972200Y-4368800D01*
X11802200Y-4791800D02*
X11972200Y-4961800D01*
X11972200Y-4791800D02*
X11802200Y-4961800D01*
X11887200Y-4791800D02*
X11887200Y-4961800D01*
X11802200Y-4876800D02*
X11972200Y-4876800D01*
X12310200Y-4283800D02*
X12480200Y-4453800D01*
X12480200Y-4283800D02*
X12310200Y-4453800D01*
X12395200Y-4283800D02*
X12395200Y-4453800D01*
X12310200Y-4368800D02*
X12480200Y-4368800D01*
X12310200Y-4791800D02*
X12480200Y-4961800D01*
X12480200Y-4791800D02*
X12310200Y-4961800D01*
X12395200Y-4791800D02*
X12395200Y-4961800D01*
X12310200Y-4876800D02*
X12480200Y-4876800D01*
D15*
X6635920Y-2831000D02*
X6815920Y-3011000D01*
X6815920Y-2831000D02*
X6635920Y-3011000D01*
X6789560Y-2984640D02*
X6789560Y-2857360D01*
X6662280Y-2857360D01*
X6662280Y-2984640D01*
X6789560Y-2984640D01*
X7135920Y-2831000D02*
X7315920Y-3011000D01*
X7315920Y-2831000D02*
X7135920Y-3011000D01*
X7289560Y-2984640D02*
X7289560Y-2857360D01*
X7162280Y-2857360D01*
X7162280Y-2984640D01*
X7289560Y-2984640D01*
D11*
X2793277Y-13018984D02*
X2793277Y-12818984D01*
X2793277Y-12818984D02*
X2840896Y-12818984D01*
X2840896Y-12818984D02*
X2869467Y-12828508D01*
X2869467Y-12828508D02*
X2888515Y-12847555D01*
X2888515Y-12847555D02*
X2898039Y-12866603D01*
X2898039Y-12866603D02*
X2907562Y-12904698D01*
X2907562Y-12904698D02*
X2907562Y-12933269D01*
X2907562Y-12933269D02*
X2898039Y-12971365D01*
X2898039Y-12971365D02*
X2888515Y-12990412D01*
X2888515Y-12990412D02*
X2869467Y-13009460D01*
X2869467Y-13009460D02*
X2840896Y-13018984D01*
X2840896Y-13018984D02*
X2793277Y-13018984D01*
X2993277Y-13018984D02*
X2993277Y-12885650D01*
X2993277Y-12923746D02*
X3002801Y-12904698D01*
X3002801Y-12904698D02*
X3012324Y-12895174D01*
X3012324Y-12895174D02*
X3031372Y-12885650D01*
X3031372Y-12885650D02*
X3050420Y-12885650D01*
X3117086Y-13018984D02*
X3117086Y-12885650D01*
X3117086Y-12818984D02*
X3107562Y-12828508D01*
X3107562Y-12828508D02*
X3117086Y-12838031D01*
X3117086Y-12838031D02*
X3126610Y-12828508D01*
X3126610Y-12828508D02*
X3117086Y-12818984D01*
X3117086Y-12818984D02*
X3117086Y-12838031D01*
X3240896Y-13018984D02*
X3221848Y-13009460D01*
X3221848Y-13009460D02*
X3212324Y-12990412D01*
X3212324Y-12990412D02*
X3212324Y-12818984D01*
X3345658Y-13018984D02*
X3326610Y-13009460D01*
X3326610Y-13009460D02*
X3317086Y-12990412D01*
X3317086Y-12990412D02*
X3317086Y-12818984D01*
X3574229Y-13018984D02*
X3574229Y-12818984D01*
X3574229Y-12818984D02*
X3640896Y-12961841D01*
X3640896Y-12961841D02*
X3707562Y-12818984D01*
X3707562Y-12818984D02*
X3707562Y-13018984D01*
X3888515Y-13018984D02*
X3888515Y-12914222D01*
X3888515Y-12914222D02*
X3878991Y-12895174D01*
X3878991Y-12895174D02*
X3859943Y-12885650D01*
X3859943Y-12885650D02*
X3821848Y-12885650D01*
X3821848Y-12885650D02*
X3802801Y-12895174D01*
X3888515Y-13009460D02*
X3869467Y-13018984D01*
X3869467Y-13018984D02*
X3821848Y-13018984D01*
X3821848Y-13018984D02*
X3802801Y-13009460D01*
X3802801Y-13009460D02*
X3793277Y-12990412D01*
X3793277Y-12990412D02*
X3793277Y-12971365D01*
X3793277Y-12971365D02*
X3802801Y-12952317D01*
X3802801Y-12952317D02*
X3821848Y-12942793D01*
X3821848Y-12942793D02*
X3869467Y-12942793D01*
X3869467Y-12942793D02*
X3888515Y-12933269D01*
X3983753Y-12885650D02*
X3983753Y-13085650D01*
X3983753Y-12895174D02*
X4002801Y-12885650D01*
X4002801Y-12885650D02*
X4040896Y-12885650D01*
X4040896Y-12885650D02*
X4059943Y-12895174D01*
X4059943Y-12895174D02*
X4069467Y-12904698D01*
X4069467Y-12904698D02*
X4078991Y-12923746D01*
X4078991Y-12923746D02*
X4078991Y-12980888D01*
X4078991Y-12980888D02*
X4069467Y-12999936D01*
X4069467Y-12999936D02*
X4059943Y-13009460D01*
X4059943Y-13009460D02*
X4040896Y-13018984D01*
X4040896Y-13018984D02*
X4002801Y-13018984D01*
X4002801Y-13018984D02*
X3983753Y-13009460D01*
X4164705Y-12999936D02*
X4174229Y-13009460D01*
X4174229Y-13009460D02*
X4164705Y-13018984D01*
X4164705Y-13018984D02*
X4155182Y-13009460D01*
X4155182Y-13009460D02*
X4164705Y-12999936D01*
X4164705Y-12999936D02*
X4164705Y-13018984D01*
X4164705Y-12895174D02*
X4174229Y-12904698D01*
X4174229Y-12904698D02*
X4164705Y-12914222D01*
X4164705Y-12914222D02*
X4155182Y-12904698D01*
X4155182Y-12904698D02*
X4164705Y-12895174D01*
X4164705Y-12895174D02*
X4164705Y-12914222D01*
D12*
X2492500Y-13327500D02*
X2532500Y-13367500D01*
X2532500Y-13327500D02*
X2492500Y-13367500D01*
D11*
X2831372Y-13238984D02*
X2850420Y-13238984D01*
X2850420Y-13238984D02*
X2869467Y-13248508D01*
X2869467Y-13248508D02*
X2878991Y-13258031D01*
X2878991Y-13258031D02*
X2888515Y-13277079D01*
X2888515Y-13277079D02*
X2898039Y-13315174D01*
X2898039Y-13315174D02*
X2898039Y-13362793D01*
X2898039Y-13362793D02*
X2888515Y-13400888D01*
X2888515Y-13400888D02*
X2878991Y-13419936D01*
X2878991Y-13419936D02*
X2869467Y-13429460D01*
X2869467Y-13429460D02*
X2850420Y-13438984D01*
X2850420Y-13438984D02*
X2831372Y-13438984D01*
X2831372Y-13438984D02*
X2812324Y-13429460D01*
X2812324Y-13429460D02*
X2802801Y-13419936D01*
X2802801Y-13419936D02*
X2793277Y-13400888D01*
X2793277Y-13400888D02*
X2783753Y-13362793D01*
X2783753Y-13362793D02*
X2783753Y-13315174D01*
X2783753Y-13315174D02*
X2793277Y-13277079D01*
X2793277Y-13277079D02*
X2802801Y-13258031D01*
X2802801Y-13258031D02*
X2812324Y-13248508D01*
X2812324Y-13248508D02*
X2831372Y-13238984D01*
X2983753Y-13419936D02*
X2993277Y-13429460D01*
X2993277Y-13429460D02*
X2983753Y-13438984D01*
X2983753Y-13438984D02*
X2974229Y-13429460D01*
X2974229Y-13429460D02*
X2983753Y-13419936D01*
X2983753Y-13419936D02*
X2983753Y-13438984D01*
X3164705Y-13305650D02*
X3164705Y-13438984D01*
X3117086Y-13229460D02*
X3069467Y-13372317D01*
X3069467Y-13372317D02*
X3193277Y-13372317D01*
X3307562Y-13238984D02*
X3326610Y-13238984D01*
X3326610Y-13238984D02*
X3345658Y-13248508D01*
X3345658Y-13248508D02*
X3355182Y-13258031D01*
X3355182Y-13258031D02*
X3364705Y-13277079D01*
X3364705Y-13277079D02*
X3374229Y-13315174D01*
X3374229Y-13315174D02*
X3374229Y-13362793D01*
X3374229Y-13362793D02*
X3364705Y-13400888D01*
X3364705Y-13400888D02*
X3355182Y-13419936D01*
X3355182Y-13419936D02*
X3345658Y-13429460D01*
X3345658Y-13429460D02*
X3326610Y-13438984D01*
X3326610Y-13438984D02*
X3307562Y-13438984D01*
X3307562Y-13438984D02*
X3288515Y-13429460D01*
X3288515Y-13429460D02*
X3278991Y-13419936D01*
X3278991Y-13419936D02*
X3269467Y-13400888D01*
X3269467Y-13400888D02*
X3259943Y-13362793D01*
X3259943Y-13362793D02*
X3259943Y-13315174D01*
X3259943Y-13315174D02*
X3269467Y-13277079D01*
X3269467Y-13277079D02*
X3278991Y-13258031D01*
X3278991Y-13258031D02*
X3288515Y-13248508D01*
X3288515Y-13248508D02*
X3307562Y-13238984D01*
X3498039Y-13238984D02*
X3517086Y-13238984D01*
X3517086Y-13238984D02*
X3536134Y-13248508D01*
X3536134Y-13248508D02*
X3545658Y-13258031D01*
X3545658Y-13258031D02*
X3555182Y-13277079D01*
X3555182Y-13277079D02*
X3564705Y-13315174D01*
X3564705Y-13315174D02*
X3564705Y-13362793D01*
X3564705Y-13362793D02*
X3555182Y-13400888D01*
X3555182Y-13400888D02*
X3545658Y-13419936D01*
X3545658Y-13419936D02*
X3536134Y-13429460D01*
X3536134Y-13429460D02*
X3517086Y-13438984D01*
X3517086Y-13438984D02*
X3498039Y-13438984D01*
X3498039Y-13438984D02*
X3478991Y-13429460D01*
X3478991Y-13429460D02*
X3469467Y-13419936D01*
X3469467Y-13419936D02*
X3459943Y-13400888D01*
X3459943Y-13400888D02*
X3450420Y-13362793D01*
X3450420Y-13362793D02*
X3450420Y-13315174D01*
X3450420Y-13315174D02*
X3459943Y-13277079D01*
X3459943Y-13277079D02*
X3469467Y-13258031D01*
X3469467Y-13258031D02*
X3478991Y-13248508D01*
X3478991Y-13248508D02*
X3498039Y-13238984D01*
X3650420Y-13438984D02*
X3650420Y-13305650D01*
X3650420Y-13324698D02*
X3659943Y-13315174D01*
X3659943Y-13315174D02*
X3678991Y-13305650D01*
X3678991Y-13305650D02*
X3707563Y-13305650D01*
X3707563Y-13305650D02*
X3726610Y-13315174D01*
X3726610Y-13315174D02*
X3736134Y-13334222D01*
X3736134Y-13334222D02*
X3736134Y-13438984D01*
X3736134Y-13334222D02*
X3745658Y-13315174D01*
X3745658Y-13315174D02*
X3764705Y-13305650D01*
X3764705Y-13305650D02*
X3793277Y-13305650D01*
X3793277Y-13305650D02*
X3812324Y-13315174D01*
X3812324Y-13315174D02*
X3821848Y-13334222D01*
X3821848Y-13334222D02*
X3821848Y-13438984D01*
X3917086Y-13438984D02*
X3917086Y-13305650D01*
X3917086Y-13324698D02*
X3926610Y-13315174D01*
X3926610Y-13315174D02*
X3945658Y-13305650D01*
X3945658Y-13305650D02*
X3974229Y-13305650D01*
X3974229Y-13305650D02*
X3993277Y-13315174D01*
X3993277Y-13315174D02*
X4002801Y-13334222D01*
X4002801Y-13334222D02*
X4002801Y-13438984D01*
X4002801Y-13334222D02*
X4012324Y-13315174D01*
X4012324Y-13315174D02*
X4031372Y-13305650D01*
X4031372Y-13305650D02*
X4059943Y-13305650D01*
X4059943Y-13305650D02*
X4078991Y-13315174D01*
X4078991Y-13315174D02*
X4088515Y-13334222D01*
X4088515Y-13334222D02*
X4088515Y-13438984D01*
X4478991Y-13229460D02*
X4307563Y-13486603D01*
X4736134Y-13238984D02*
X4755182Y-13238984D01*
X4755182Y-13238984D02*
X4774229Y-13248508D01*
X4774229Y-13248508D02*
X4783753Y-13258031D01*
X4783753Y-13258031D02*
X4793277Y-13277079D01*
X4793277Y-13277079D02*
X4802801Y-13315174D01*
X4802801Y-13315174D02*
X4802801Y-13362793D01*
X4802801Y-13362793D02*
X4793277Y-13400888D01*
X4793277Y-13400888D02*
X4783753Y-13419936D01*
X4783753Y-13419936D02*
X4774229Y-13429460D01*
X4774229Y-13429460D02*
X4755182Y-13438984D01*
X4755182Y-13438984D02*
X4736134Y-13438984D01*
X4736134Y-13438984D02*
X4717087Y-13429460D01*
X4717087Y-13429460D02*
X4707563Y-13419936D01*
X4707563Y-13419936D02*
X4698039Y-13400888D01*
X4698039Y-13400888D02*
X4688515Y-13362793D01*
X4688515Y-13362793D02*
X4688515Y-13315174D01*
X4688515Y-13315174D02*
X4698039Y-13277079D01*
X4698039Y-13277079D02*
X4707563Y-13258031D01*
X4707563Y-13258031D02*
X4717087Y-13248508D01*
X4717087Y-13248508D02*
X4736134Y-13238984D01*
X4888515Y-13419936D02*
X4898039Y-13429460D01*
X4898039Y-13429460D02*
X4888515Y-13438984D01*
X4888515Y-13438984D02*
X4878991Y-13429460D01*
X4878991Y-13429460D02*
X4888515Y-13419936D01*
X4888515Y-13419936D02*
X4888515Y-13438984D01*
X5021848Y-13238984D02*
X5040896Y-13238984D01*
X5040896Y-13238984D02*
X5059944Y-13248508D01*
X5059944Y-13248508D02*
X5069468Y-13258031D01*
X5069468Y-13258031D02*
X5078991Y-13277079D01*
X5078991Y-13277079D02*
X5088515Y-13315174D01*
X5088515Y-13315174D02*
X5088515Y-13362793D01*
X5088515Y-13362793D02*
X5078991Y-13400888D01*
X5078991Y-13400888D02*
X5069468Y-13419936D01*
X5069468Y-13419936D02*
X5059944Y-13429460D01*
X5059944Y-13429460D02*
X5040896Y-13438984D01*
X5040896Y-13438984D02*
X5021848Y-13438984D01*
X5021848Y-13438984D02*
X5002801Y-13429460D01*
X5002801Y-13429460D02*
X4993277Y-13419936D01*
X4993277Y-13419936D02*
X4983753Y-13400888D01*
X4983753Y-13400888D02*
X4974229Y-13362793D01*
X4974229Y-13362793D02*
X4974229Y-13315174D01*
X4974229Y-13315174D02*
X4983753Y-13277079D01*
X4983753Y-13277079D02*
X4993277Y-13258031D01*
X4993277Y-13258031D02*
X5002801Y-13248508D01*
X5002801Y-13248508D02*
X5021848Y-13238984D01*
X5278991Y-13438984D02*
X5164706Y-13438984D01*
X5221848Y-13438984D02*
X5221848Y-13238984D01*
X5221848Y-13238984D02*
X5202801Y-13267555D01*
X5202801Y-13267555D02*
X5183753Y-13286603D01*
X5183753Y-13286603D02*
X5164706Y-13296127D01*
X5459944Y-13238984D02*
X5364706Y-13238984D01*
X5364706Y-13238984D02*
X5355182Y-13334222D01*
X5355182Y-13334222D02*
X5364706Y-13324698D01*
X5364706Y-13324698D02*
X5383753Y-13315174D01*
X5383753Y-13315174D02*
X5431372Y-13315174D01*
X5431372Y-13315174D02*
X5450420Y-13324698D01*
X5450420Y-13324698D02*
X5459944Y-13334222D01*
X5459944Y-13334222D02*
X5469468Y-13353269D01*
X5469468Y-13353269D02*
X5469468Y-13400888D01*
X5469468Y-13400888D02*
X5459944Y-13419936D01*
X5459944Y-13419936D02*
X5450420Y-13429460D01*
X5450420Y-13429460D02*
X5431372Y-13438984D01*
X5431372Y-13438984D02*
X5383753Y-13438984D01*
X5383753Y-13438984D02*
X5364706Y-13429460D01*
X5364706Y-13429460D02*
X5355182Y-13419936D01*
X5536134Y-13238984D02*
X5669467Y-13238984D01*
X5669467Y-13238984D02*
X5583753Y-13438984D01*
X5736134Y-13238984D02*
X5736134Y-13277079D01*
X5812325Y-13238984D02*
X5812325Y-13277079D01*
X6107563Y-13515174D02*
X6098039Y-13505650D01*
X6098039Y-13505650D02*
X6078991Y-13477079D01*
X6078991Y-13477079D02*
X6069468Y-13458031D01*
X6069468Y-13458031D02*
X6059944Y-13429460D01*
X6059944Y-13429460D02*
X6050420Y-13381841D01*
X6050420Y-13381841D02*
X6050420Y-13343746D01*
X6050420Y-13343746D02*
X6059944Y-13296127D01*
X6059944Y-13296127D02*
X6069468Y-13267555D01*
X6069468Y-13267555D02*
X6078991Y-13248508D01*
X6078991Y-13248508D02*
X6098039Y-13219936D01*
X6098039Y-13219936D02*
X6107563Y-13210412D01*
X6278991Y-13238984D02*
X6183753Y-13238984D01*
X6183753Y-13238984D02*
X6174229Y-13334222D01*
X6174229Y-13334222D02*
X6183753Y-13324698D01*
X6183753Y-13324698D02*
X6202801Y-13315174D01*
X6202801Y-13315174D02*
X6250420Y-13315174D01*
X6250420Y-13315174D02*
X6269468Y-13324698D01*
X6269468Y-13324698D02*
X6278991Y-13334222D01*
X6278991Y-13334222D02*
X6288515Y-13353269D01*
X6288515Y-13353269D02*
X6288515Y-13400888D01*
X6288515Y-13400888D02*
X6278991Y-13419936D01*
X6278991Y-13419936D02*
X6269468Y-13429460D01*
X6269468Y-13429460D02*
X6250420Y-13438984D01*
X6250420Y-13438984D02*
X6202801Y-13438984D01*
X6202801Y-13438984D02*
X6183753Y-13429460D01*
X6183753Y-13429460D02*
X6174229Y-13419936D01*
X6459944Y-13238984D02*
X6421848Y-13238984D01*
X6421848Y-13238984D02*
X6402801Y-13248508D01*
X6402801Y-13248508D02*
X6393277Y-13258031D01*
X6393277Y-13258031D02*
X6374229Y-13286603D01*
X6374229Y-13286603D02*
X6364706Y-13324698D01*
X6364706Y-13324698D02*
X6364706Y-13400888D01*
X6364706Y-13400888D02*
X6374229Y-13419936D01*
X6374229Y-13419936D02*
X6383753Y-13429460D01*
X6383753Y-13429460D02*
X6402801Y-13438984D01*
X6402801Y-13438984D02*
X6440896Y-13438984D01*
X6440896Y-13438984D02*
X6459944Y-13429460D01*
X6459944Y-13429460D02*
X6469468Y-13419936D01*
X6469468Y-13419936D02*
X6478991Y-13400888D01*
X6478991Y-13400888D02*
X6478991Y-13353269D01*
X6478991Y-13353269D02*
X6469468Y-13334222D01*
X6469468Y-13334222D02*
X6459944Y-13324698D01*
X6459944Y-13324698D02*
X6440896Y-13315174D01*
X6440896Y-13315174D02*
X6402801Y-13315174D01*
X6402801Y-13315174D02*
X6383753Y-13324698D01*
X6383753Y-13324698D02*
X6374229Y-13334222D01*
X6374229Y-13334222D02*
X6364706Y-13353269D01*
X6602801Y-13238984D02*
X6621849Y-13238984D01*
X6621849Y-13238984D02*
X6640896Y-13248508D01*
X6640896Y-13248508D02*
X6650420Y-13258031D01*
X6650420Y-13258031D02*
X6659944Y-13277079D01*
X6659944Y-13277079D02*
X6669468Y-13315174D01*
X6669468Y-13315174D02*
X6669468Y-13362793D01*
X6669468Y-13362793D02*
X6659944Y-13400888D01*
X6659944Y-13400888D02*
X6650420Y-13419936D01*
X6650420Y-13419936D02*
X6640896Y-13429460D01*
X6640896Y-13429460D02*
X6621849Y-13438984D01*
X6621849Y-13438984D02*
X6602801Y-13438984D01*
X6602801Y-13438984D02*
X6583753Y-13429460D01*
X6583753Y-13429460D02*
X6574229Y-13419936D01*
X6574229Y-13419936D02*
X6564706Y-13400888D01*
X6564706Y-13400888D02*
X6555182Y-13362793D01*
X6555182Y-13362793D02*
X6555182Y-13315174D01*
X6555182Y-13315174D02*
X6564706Y-13277079D01*
X6564706Y-13277079D02*
X6574229Y-13258031D01*
X6574229Y-13258031D02*
X6583753Y-13248508D01*
X6583753Y-13248508D02*
X6602801Y-13238984D01*
X6907563Y-13438984D02*
X6907563Y-13238984D01*
X6993277Y-13438984D02*
X6993277Y-13334222D01*
X6993277Y-13334222D02*
X6983753Y-13315174D01*
X6983753Y-13315174D02*
X6964706Y-13305650D01*
X6964706Y-13305650D02*
X6936134Y-13305650D01*
X6936134Y-13305650D02*
X6917087Y-13315174D01*
X6917087Y-13315174D02*
X6907563Y-13324698D01*
X7117087Y-13438984D02*
X7098039Y-13429460D01*
X7098039Y-13429460D02*
X7088515Y-13419936D01*
X7088515Y-13419936D02*
X7078991Y-13400888D01*
X7078991Y-13400888D02*
X7078991Y-13343746D01*
X7078991Y-13343746D02*
X7088515Y-13324698D01*
X7088515Y-13324698D02*
X7098039Y-13315174D01*
X7098039Y-13315174D02*
X7117087Y-13305650D01*
X7117087Y-13305650D02*
X7145658Y-13305650D01*
X7145658Y-13305650D02*
X7164706Y-13315174D01*
X7164706Y-13315174D02*
X7174230Y-13324698D01*
X7174230Y-13324698D02*
X7183753Y-13343746D01*
X7183753Y-13343746D02*
X7183753Y-13400888D01*
X7183753Y-13400888D02*
X7174230Y-13419936D01*
X7174230Y-13419936D02*
X7164706Y-13429460D01*
X7164706Y-13429460D02*
X7145658Y-13438984D01*
X7145658Y-13438984D02*
X7117087Y-13438984D01*
X7298039Y-13438984D02*
X7278991Y-13429460D01*
X7278991Y-13429460D02*
X7269468Y-13410412D01*
X7269468Y-13410412D02*
X7269468Y-13238984D01*
X7450420Y-13429460D02*
X7431372Y-13438984D01*
X7431372Y-13438984D02*
X7393277Y-13438984D01*
X7393277Y-13438984D02*
X7374230Y-13429460D01*
X7374230Y-13429460D02*
X7364706Y-13410412D01*
X7364706Y-13410412D02*
X7364706Y-13334222D01*
X7364706Y-13334222D02*
X7374230Y-13315174D01*
X7374230Y-13315174D02*
X7393277Y-13305650D01*
X7393277Y-13305650D02*
X7431372Y-13305650D01*
X7431372Y-13305650D02*
X7450420Y-13315174D01*
X7450420Y-13315174D02*
X7459944Y-13334222D01*
X7459944Y-13334222D02*
X7459944Y-13353269D01*
X7459944Y-13353269D02*
X7364706Y-13372317D01*
X7536134Y-13429460D02*
X7555182Y-13438984D01*
X7555182Y-13438984D02*
X7593277Y-13438984D01*
X7593277Y-13438984D02*
X7612325Y-13429460D01*
X7612325Y-13429460D02*
X7621849Y-13410412D01*
X7621849Y-13410412D02*
X7621849Y-13400888D01*
X7621849Y-13400888D02*
X7612325Y-13381841D01*
X7612325Y-13381841D02*
X7593277Y-13372317D01*
X7593277Y-13372317D02*
X7564706Y-13372317D01*
X7564706Y-13372317D02*
X7545658Y-13362793D01*
X7545658Y-13362793D02*
X7536134Y-13343746D01*
X7536134Y-13343746D02*
X7536134Y-13334222D01*
X7536134Y-13334222D02*
X7545658Y-13315174D01*
X7545658Y-13315174D02*
X7564706Y-13305650D01*
X7564706Y-13305650D02*
X7593277Y-13305650D01*
X7593277Y-13305650D02*
X7612325Y-13315174D01*
X7688515Y-13515174D02*
X7698039Y-13505650D01*
X7698039Y-13505650D02*
X7717087Y-13477079D01*
X7717087Y-13477079D02*
X7726611Y-13458031D01*
X7726611Y-13458031D02*
X7736134Y-13429460D01*
X7736134Y-13429460D02*
X7745658Y-13381841D01*
X7745658Y-13381841D02*
X7745658Y-13343746D01*
X7745658Y-13343746D02*
X7736134Y-13296127D01*
X7736134Y-13296127D02*
X7726611Y-13267555D01*
X7726611Y-13267555D02*
X7717087Y-13248508D01*
X7717087Y-13248508D02*
X7698039Y-13219936D01*
X7698039Y-13219936D02*
X7688515Y-13210412D01*
D12*
X2532500Y-13611500D02*
G75*
G03*
X2532500Y-13611500I-34000J0D01*
G01*
D11*
X2831372Y-13502984D02*
X2850420Y-13502984D01*
X2850420Y-13502984D02*
X2869467Y-13512508D01*
X2869467Y-13512508D02*
X2878991Y-13522031D01*
X2878991Y-13522031D02*
X2888515Y-13541079D01*
X2888515Y-13541079D02*
X2898039Y-13579174D01*
X2898039Y-13579174D02*
X2898039Y-13626793D01*
X2898039Y-13626793D02*
X2888515Y-13664888D01*
X2888515Y-13664888D02*
X2878991Y-13683936D01*
X2878991Y-13683936D02*
X2869467Y-13693460D01*
X2869467Y-13693460D02*
X2850420Y-13702984D01*
X2850420Y-13702984D02*
X2831372Y-13702984D01*
X2831372Y-13702984D02*
X2812324Y-13693460D01*
X2812324Y-13693460D02*
X2802801Y-13683936D01*
X2802801Y-13683936D02*
X2793277Y-13664888D01*
X2793277Y-13664888D02*
X2783753Y-13626793D01*
X2783753Y-13626793D02*
X2783753Y-13579174D01*
X2783753Y-13579174D02*
X2793277Y-13541079D01*
X2793277Y-13541079D02*
X2802801Y-13522031D01*
X2802801Y-13522031D02*
X2812324Y-13512508D01*
X2812324Y-13512508D02*
X2831372Y-13502984D01*
X2983753Y-13683936D02*
X2993277Y-13693460D01*
X2993277Y-13693460D02*
X2983753Y-13702984D01*
X2983753Y-13702984D02*
X2974229Y-13693460D01*
X2974229Y-13693460D02*
X2983753Y-13683936D01*
X2983753Y-13683936D02*
X2983753Y-13702984D01*
X3164705Y-13502984D02*
X3126610Y-13502984D01*
X3126610Y-13502984D02*
X3107562Y-13512508D01*
X3107562Y-13512508D02*
X3098039Y-13522031D01*
X3098039Y-13522031D02*
X3078991Y-13550603D01*
X3078991Y-13550603D02*
X3069467Y-13588698D01*
X3069467Y-13588698D02*
X3069467Y-13664888D01*
X3069467Y-13664888D02*
X3078991Y-13683936D01*
X3078991Y-13683936D02*
X3088515Y-13693460D01*
X3088515Y-13693460D02*
X3107562Y-13702984D01*
X3107562Y-13702984D02*
X3145658Y-13702984D01*
X3145658Y-13702984D02*
X3164705Y-13693460D01*
X3164705Y-13693460D02*
X3174229Y-13683936D01*
X3174229Y-13683936D02*
X3183753Y-13664888D01*
X3183753Y-13664888D02*
X3183753Y-13617269D01*
X3183753Y-13617269D02*
X3174229Y-13598222D01*
X3174229Y-13598222D02*
X3164705Y-13588698D01*
X3164705Y-13588698D02*
X3145658Y-13579174D01*
X3145658Y-13579174D02*
X3107562Y-13579174D01*
X3107562Y-13579174D02*
X3088515Y-13588698D01*
X3088515Y-13588698D02*
X3078991Y-13598222D01*
X3078991Y-13598222D02*
X3069467Y-13617269D01*
X3298039Y-13588698D02*
X3278991Y-13579174D01*
X3278991Y-13579174D02*
X3269467Y-13569650D01*
X3269467Y-13569650D02*
X3259943Y-13550603D01*
X3259943Y-13550603D02*
X3259943Y-13541079D01*
X3259943Y-13541079D02*
X3269467Y-13522031D01*
X3269467Y-13522031D02*
X3278991Y-13512508D01*
X3278991Y-13512508D02*
X3298039Y-13502984D01*
X3298039Y-13502984D02*
X3336134Y-13502984D01*
X3336134Y-13502984D02*
X3355182Y-13512508D01*
X3355182Y-13512508D02*
X3364705Y-13522031D01*
X3364705Y-13522031D02*
X3374229Y-13541079D01*
X3374229Y-13541079D02*
X3374229Y-13550603D01*
X3374229Y-13550603D02*
X3364705Y-13569650D01*
X3364705Y-13569650D02*
X3355182Y-13579174D01*
X3355182Y-13579174D02*
X3336134Y-13588698D01*
X3336134Y-13588698D02*
X3298039Y-13588698D01*
X3298039Y-13588698D02*
X3278991Y-13598222D01*
X3278991Y-13598222D02*
X3269467Y-13607746D01*
X3269467Y-13607746D02*
X3259943Y-13626793D01*
X3259943Y-13626793D02*
X3259943Y-13664888D01*
X3259943Y-13664888D02*
X3269467Y-13683936D01*
X3269467Y-13683936D02*
X3278991Y-13693460D01*
X3278991Y-13693460D02*
X3298039Y-13702984D01*
X3298039Y-13702984D02*
X3336134Y-13702984D01*
X3336134Y-13702984D02*
X3355182Y-13693460D01*
X3355182Y-13693460D02*
X3364705Y-13683936D01*
X3364705Y-13683936D02*
X3374229Y-13664888D01*
X3374229Y-13664888D02*
X3374229Y-13626793D01*
X3374229Y-13626793D02*
X3364705Y-13607746D01*
X3364705Y-13607746D02*
X3355182Y-13598222D01*
X3355182Y-13598222D02*
X3336134Y-13588698D01*
X3498039Y-13502984D02*
X3517086Y-13502984D01*
X3517086Y-13502984D02*
X3536134Y-13512508D01*
X3536134Y-13512508D02*
X3545658Y-13522031D01*
X3545658Y-13522031D02*
X3555182Y-13541079D01*
X3555182Y-13541079D02*
X3564705Y-13579174D01*
X3564705Y-13579174D02*
X3564705Y-13626793D01*
X3564705Y-13626793D02*
X3555182Y-13664888D01*
X3555182Y-13664888D02*
X3545658Y-13683936D01*
X3545658Y-13683936D02*
X3536134Y-13693460D01*
X3536134Y-13693460D02*
X3517086Y-13702984D01*
X3517086Y-13702984D02*
X3498039Y-13702984D01*
X3498039Y-13702984D02*
X3478991Y-13693460D01*
X3478991Y-13693460D02*
X3469467Y-13683936D01*
X3469467Y-13683936D02*
X3459943Y-13664888D01*
X3459943Y-13664888D02*
X3450420Y-13626793D01*
X3450420Y-13626793D02*
X3450420Y-13579174D01*
X3450420Y-13579174D02*
X3459943Y-13541079D01*
X3459943Y-13541079D02*
X3469467Y-13522031D01*
X3469467Y-13522031D02*
X3478991Y-13512508D01*
X3478991Y-13512508D02*
X3498039Y-13502984D01*
X3650420Y-13702984D02*
X3650420Y-13569650D01*
X3650420Y-13588698D02*
X3659943Y-13579174D01*
X3659943Y-13579174D02*
X3678991Y-13569650D01*
X3678991Y-13569650D02*
X3707563Y-13569650D01*
X3707563Y-13569650D02*
X3726610Y-13579174D01*
X3726610Y-13579174D02*
X3736134Y-13598222D01*
X3736134Y-13598222D02*
X3736134Y-13702984D01*
X3736134Y-13598222D02*
X3745658Y-13579174D01*
X3745658Y-13579174D02*
X3764705Y-13569650D01*
X3764705Y-13569650D02*
X3793277Y-13569650D01*
X3793277Y-13569650D02*
X3812324Y-13579174D01*
X3812324Y-13579174D02*
X3821848Y-13598222D01*
X3821848Y-13598222D02*
X3821848Y-13702984D01*
X3917086Y-13702984D02*
X3917086Y-13569650D01*
X3917086Y-13588698D02*
X3926610Y-13579174D01*
X3926610Y-13579174D02*
X3945658Y-13569650D01*
X3945658Y-13569650D02*
X3974229Y-13569650D01*
X3974229Y-13569650D02*
X3993277Y-13579174D01*
X3993277Y-13579174D02*
X4002801Y-13598222D01*
X4002801Y-13598222D02*
X4002801Y-13702984D01*
X4002801Y-13598222D02*
X4012324Y-13579174D01*
X4012324Y-13579174D02*
X4031372Y-13569650D01*
X4031372Y-13569650D02*
X4059943Y-13569650D01*
X4059943Y-13569650D02*
X4078991Y-13579174D01*
X4078991Y-13579174D02*
X4088515Y-13598222D01*
X4088515Y-13598222D02*
X4088515Y-13702984D01*
X4478991Y-13493460D02*
X4307563Y-13750603D01*
X4736134Y-13502984D02*
X4755182Y-13502984D01*
X4755182Y-13502984D02*
X4774229Y-13512508D01*
X4774229Y-13512508D02*
X4783753Y-13522031D01*
X4783753Y-13522031D02*
X4793277Y-13541079D01*
X4793277Y-13541079D02*
X4802801Y-13579174D01*
X4802801Y-13579174D02*
X4802801Y-13626793D01*
X4802801Y-13626793D02*
X4793277Y-13664888D01*
X4793277Y-13664888D02*
X4783753Y-13683936D01*
X4783753Y-13683936D02*
X4774229Y-13693460D01*
X4774229Y-13693460D02*
X4755182Y-13702984D01*
X4755182Y-13702984D02*
X4736134Y-13702984D01*
X4736134Y-13702984D02*
X4717087Y-13693460D01*
X4717087Y-13693460D02*
X4707563Y-13683936D01*
X4707563Y-13683936D02*
X4698039Y-13664888D01*
X4698039Y-13664888D02*
X4688515Y-13626793D01*
X4688515Y-13626793D02*
X4688515Y-13579174D01*
X4688515Y-13579174D02*
X4698039Y-13541079D01*
X4698039Y-13541079D02*
X4707563Y-13522031D01*
X4707563Y-13522031D02*
X4717087Y-13512508D01*
X4717087Y-13512508D02*
X4736134Y-13502984D01*
X4888515Y-13683936D02*
X4898039Y-13693460D01*
X4898039Y-13693460D02*
X4888515Y-13702984D01*
X4888515Y-13702984D02*
X4878991Y-13693460D01*
X4878991Y-13693460D02*
X4888515Y-13683936D01*
X4888515Y-13683936D02*
X4888515Y-13702984D01*
X5021848Y-13502984D02*
X5040896Y-13502984D01*
X5040896Y-13502984D02*
X5059944Y-13512508D01*
X5059944Y-13512508D02*
X5069468Y-13522031D01*
X5069468Y-13522031D02*
X5078991Y-13541079D01*
X5078991Y-13541079D02*
X5088515Y-13579174D01*
X5088515Y-13579174D02*
X5088515Y-13626793D01*
X5088515Y-13626793D02*
X5078991Y-13664888D01*
X5078991Y-13664888D02*
X5069468Y-13683936D01*
X5069468Y-13683936D02*
X5059944Y-13693460D01*
X5059944Y-13693460D02*
X5040896Y-13702984D01*
X5040896Y-13702984D02*
X5021848Y-13702984D01*
X5021848Y-13702984D02*
X5002801Y-13693460D01*
X5002801Y-13693460D02*
X4993277Y-13683936D01*
X4993277Y-13683936D02*
X4983753Y-13664888D01*
X4983753Y-13664888D02*
X4974229Y-13626793D01*
X4974229Y-13626793D02*
X4974229Y-13579174D01*
X4974229Y-13579174D02*
X4983753Y-13541079D01*
X4983753Y-13541079D02*
X4993277Y-13522031D01*
X4993277Y-13522031D02*
X5002801Y-13512508D01*
X5002801Y-13512508D02*
X5021848Y-13502984D01*
X5164706Y-13522031D02*
X5174229Y-13512508D01*
X5174229Y-13512508D02*
X5193277Y-13502984D01*
X5193277Y-13502984D02*
X5240896Y-13502984D01*
X5240896Y-13502984D02*
X5259944Y-13512508D01*
X5259944Y-13512508D02*
X5269468Y-13522031D01*
X5269468Y-13522031D02*
X5278991Y-13541079D01*
X5278991Y-13541079D02*
X5278991Y-13560127D01*
X5278991Y-13560127D02*
X5269468Y-13588698D01*
X5269468Y-13588698D02*
X5155182Y-13702984D01*
X5155182Y-13702984D02*
X5278991Y-13702984D01*
X5450420Y-13502984D02*
X5412325Y-13502984D01*
X5412325Y-13502984D02*
X5393277Y-13512508D01*
X5393277Y-13512508D02*
X5383753Y-13522031D01*
X5383753Y-13522031D02*
X5364706Y-13550603D01*
X5364706Y-13550603D02*
X5355182Y-13588698D01*
X5355182Y-13588698D02*
X5355182Y-13664888D01*
X5355182Y-13664888D02*
X5364706Y-13683936D01*
X5364706Y-13683936D02*
X5374229Y-13693460D01*
X5374229Y-13693460D02*
X5393277Y-13702984D01*
X5393277Y-13702984D02*
X5431372Y-13702984D01*
X5431372Y-13702984D02*
X5450420Y-13693460D01*
X5450420Y-13693460D02*
X5459944Y-13683936D01*
X5459944Y-13683936D02*
X5469468Y-13664888D01*
X5469468Y-13664888D02*
X5469468Y-13617269D01*
X5469468Y-13617269D02*
X5459944Y-13598222D01*
X5459944Y-13598222D02*
X5450420Y-13588698D01*
X5450420Y-13588698D02*
X5431372Y-13579174D01*
X5431372Y-13579174D02*
X5393277Y-13579174D01*
X5393277Y-13579174D02*
X5374229Y-13588698D01*
X5374229Y-13588698D02*
X5364706Y-13598222D01*
X5364706Y-13598222D02*
X5355182Y-13617269D01*
X5583753Y-13588698D02*
X5564706Y-13579174D01*
X5564706Y-13579174D02*
X5555182Y-13569650D01*
X5555182Y-13569650D02*
X5545658Y-13550603D01*
X5545658Y-13550603D02*
X5545658Y-13541079D01*
X5545658Y-13541079D02*
X5555182Y-13522031D01*
X5555182Y-13522031D02*
X5564706Y-13512508D01*
X5564706Y-13512508D02*
X5583753Y-13502984D01*
X5583753Y-13502984D02*
X5621848Y-13502984D01*
X5621848Y-13502984D02*
X5640896Y-13512508D01*
X5640896Y-13512508D02*
X5650420Y-13522031D01*
X5650420Y-13522031D02*
X5659944Y-13541079D01*
X5659944Y-13541079D02*
X5659944Y-13550603D01*
X5659944Y-13550603D02*
X5650420Y-13569650D01*
X5650420Y-13569650D02*
X5640896Y-13579174D01*
X5640896Y-13579174D02*
X5621848Y-13588698D01*
X5621848Y-13588698D02*
X5583753Y-13588698D01*
X5583753Y-13588698D02*
X5564706Y-13598222D01*
X5564706Y-13598222D02*
X5555182Y-13607746D01*
X5555182Y-13607746D02*
X5545658Y-13626793D01*
X5545658Y-13626793D02*
X5545658Y-13664888D01*
X5545658Y-13664888D02*
X5555182Y-13683936D01*
X5555182Y-13683936D02*
X5564706Y-13693460D01*
X5564706Y-13693460D02*
X5583753Y-13702984D01*
X5583753Y-13702984D02*
X5621848Y-13702984D01*
X5621848Y-13702984D02*
X5640896Y-13693460D01*
X5640896Y-13693460D02*
X5650420Y-13683936D01*
X5650420Y-13683936D02*
X5659944Y-13664888D01*
X5659944Y-13664888D02*
X5659944Y-13626793D01*
X5659944Y-13626793D02*
X5650420Y-13607746D01*
X5650420Y-13607746D02*
X5640896Y-13598222D01*
X5640896Y-13598222D02*
X5621848Y-13588698D01*
X5736134Y-13502984D02*
X5736134Y-13541079D01*
X5812325Y-13502984D02*
X5812325Y-13541079D01*
X6107563Y-13779174D02*
X6098039Y-13769650D01*
X6098039Y-13769650D02*
X6078991Y-13741079D01*
X6078991Y-13741079D02*
X6069468Y-13722031D01*
X6069468Y-13722031D02*
X6059944Y-13693460D01*
X6059944Y-13693460D02*
X6050420Y-13645841D01*
X6050420Y-13645841D02*
X6050420Y-13607746D01*
X6050420Y-13607746D02*
X6059944Y-13560127D01*
X6059944Y-13560127D02*
X6069468Y-13531555D01*
X6069468Y-13531555D02*
X6078991Y-13512508D01*
X6078991Y-13512508D02*
X6098039Y-13483936D01*
X6098039Y-13483936D02*
X6107563Y-13474412D01*
X6174229Y-13522031D02*
X6183753Y-13512508D01*
X6183753Y-13512508D02*
X6202801Y-13502984D01*
X6202801Y-13502984D02*
X6250420Y-13502984D01*
X6250420Y-13502984D02*
X6269468Y-13512508D01*
X6269468Y-13512508D02*
X6278991Y-13522031D01*
X6278991Y-13522031D02*
X6288515Y-13541079D01*
X6288515Y-13541079D02*
X6288515Y-13560127D01*
X6288515Y-13560127D02*
X6278991Y-13588698D01*
X6278991Y-13588698D02*
X6164706Y-13702984D01*
X6164706Y-13702984D02*
X6288515Y-13702984D01*
X6526610Y-13702984D02*
X6526610Y-13502984D01*
X6612325Y-13702984D02*
X6612325Y-13598222D01*
X6612325Y-13598222D02*
X6602801Y-13579174D01*
X6602801Y-13579174D02*
X6583753Y-13569650D01*
X6583753Y-13569650D02*
X6555182Y-13569650D01*
X6555182Y-13569650D02*
X6536134Y-13579174D01*
X6536134Y-13579174D02*
X6526610Y-13588698D01*
X6736134Y-13702984D02*
X6717087Y-13693460D01*
X6717087Y-13693460D02*
X6707563Y-13683936D01*
X6707563Y-13683936D02*
X6698039Y-13664888D01*
X6698039Y-13664888D02*
X6698039Y-13607746D01*
X6698039Y-13607746D02*
X6707563Y-13588698D01*
X6707563Y-13588698D02*
X6717087Y-13579174D01*
X6717087Y-13579174D02*
X6736134Y-13569650D01*
X6736134Y-13569650D02*
X6764706Y-13569650D01*
X6764706Y-13569650D02*
X6783753Y-13579174D01*
X6783753Y-13579174D02*
X6793277Y-13588698D01*
X6793277Y-13588698D02*
X6802801Y-13607746D01*
X6802801Y-13607746D02*
X6802801Y-13664888D01*
X6802801Y-13664888D02*
X6793277Y-13683936D01*
X6793277Y-13683936D02*
X6783753Y-13693460D01*
X6783753Y-13693460D02*
X6764706Y-13702984D01*
X6764706Y-13702984D02*
X6736134Y-13702984D01*
X6917087Y-13702984D02*
X6898039Y-13693460D01*
X6898039Y-13693460D02*
X6888515Y-13674412D01*
X6888515Y-13674412D02*
X6888515Y-13502984D01*
X7069468Y-13693460D02*
X7050420Y-13702984D01*
X7050420Y-13702984D02*
X7012325Y-13702984D01*
X7012325Y-13702984D02*
X6993277Y-13693460D01*
X6993277Y-13693460D02*
X6983753Y-13674412D01*
X6983753Y-13674412D02*
X6983753Y-13598222D01*
X6983753Y-13598222D02*
X6993277Y-13579174D01*
X6993277Y-13579174D02*
X7012325Y-13569650D01*
X7012325Y-13569650D02*
X7050420Y-13569650D01*
X7050420Y-13569650D02*
X7069468Y-13579174D01*
X7069468Y-13579174D02*
X7078991Y-13598222D01*
X7078991Y-13598222D02*
X7078991Y-13617269D01*
X7078991Y-13617269D02*
X6983753Y-13636317D01*
X7155182Y-13693460D02*
X7174230Y-13702984D01*
X7174230Y-13702984D02*
X7212325Y-13702984D01*
X7212325Y-13702984D02*
X7231372Y-13693460D01*
X7231372Y-13693460D02*
X7240896Y-13674412D01*
X7240896Y-13674412D02*
X7240896Y-13664888D01*
X7240896Y-13664888D02*
X7231372Y-13645841D01*
X7231372Y-13645841D02*
X7212325Y-13636317D01*
X7212325Y-13636317D02*
X7183753Y-13636317D01*
X7183753Y-13636317D02*
X7164706Y-13626793D01*
X7164706Y-13626793D02*
X7155182Y-13607746D01*
X7155182Y-13607746D02*
X7155182Y-13598222D01*
X7155182Y-13598222D02*
X7164706Y-13579174D01*
X7164706Y-13579174D02*
X7183753Y-13569650D01*
X7183753Y-13569650D02*
X7212325Y-13569650D01*
X7212325Y-13569650D02*
X7231372Y-13579174D01*
X7307563Y-13779174D02*
X7317087Y-13769650D01*
X7317087Y-13769650D02*
X7336134Y-13741079D01*
X7336134Y-13741079D02*
X7345658Y-13722031D01*
X7345658Y-13722031D02*
X7355182Y-13693460D01*
X7355182Y-13693460D02*
X7364706Y-13645841D01*
X7364706Y-13645841D02*
X7364706Y-13607746D01*
X7364706Y-13607746D02*
X7355182Y-13560127D01*
X7355182Y-13560127D02*
X7345658Y-13531555D01*
X7345658Y-13531555D02*
X7336134Y-13512508D01*
X7336134Y-13512508D02*
X7317087Y-13483936D01*
X7317087Y-13483936D02*
X7307563Y-13474412D01*
D12*
X2492500Y-13835500D02*
X2492500Y-13915500D01*
X2452500Y-13875500D02*
X2532500Y-13875500D01*
D11*
X2831372Y-13766984D02*
X2850420Y-13766984D01*
X2850420Y-13766984D02*
X2869467Y-13776508D01*
X2869467Y-13776508D02*
X2878991Y-13786031D01*
X2878991Y-13786031D02*
X2888515Y-13805079D01*
X2888515Y-13805079D02*
X2898039Y-13843174D01*
X2898039Y-13843174D02*
X2898039Y-13890793D01*
X2898039Y-13890793D02*
X2888515Y-13928888D01*
X2888515Y-13928888D02*
X2878991Y-13947936D01*
X2878991Y-13947936D02*
X2869467Y-13957460D01*
X2869467Y-13957460D02*
X2850420Y-13966984D01*
X2850420Y-13966984D02*
X2831372Y-13966984D01*
X2831372Y-13966984D02*
X2812324Y-13957460D01*
X2812324Y-13957460D02*
X2802801Y-13947936D01*
X2802801Y-13947936D02*
X2793277Y-13928888D01*
X2793277Y-13928888D02*
X2783753Y-13890793D01*
X2783753Y-13890793D02*
X2783753Y-13843174D01*
X2783753Y-13843174D02*
X2793277Y-13805079D01*
X2793277Y-13805079D02*
X2802801Y-13786031D01*
X2802801Y-13786031D02*
X2812324Y-13776508D01*
X2812324Y-13776508D02*
X2831372Y-13766984D01*
X2983753Y-13947936D02*
X2993277Y-13957460D01*
X2993277Y-13957460D02*
X2983753Y-13966984D01*
X2983753Y-13966984D02*
X2974229Y-13957460D01*
X2974229Y-13957460D02*
X2983753Y-13947936D01*
X2983753Y-13947936D02*
X2983753Y-13966984D01*
X3107562Y-13852698D02*
X3088515Y-13843174D01*
X3088515Y-13843174D02*
X3078991Y-13833650D01*
X3078991Y-13833650D02*
X3069467Y-13814603D01*
X3069467Y-13814603D02*
X3069467Y-13805079D01*
X3069467Y-13805079D02*
X3078991Y-13786031D01*
X3078991Y-13786031D02*
X3088515Y-13776508D01*
X3088515Y-13776508D02*
X3107562Y-13766984D01*
X3107562Y-13766984D02*
X3145658Y-13766984D01*
X3145658Y-13766984D02*
X3164705Y-13776508D01*
X3164705Y-13776508D02*
X3174229Y-13786031D01*
X3174229Y-13786031D02*
X3183753Y-13805079D01*
X3183753Y-13805079D02*
X3183753Y-13814603D01*
X3183753Y-13814603D02*
X3174229Y-13833650D01*
X3174229Y-13833650D02*
X3164705Y-13843174D01*
X3164705Y-13843174D02*
X3145658Y-13852698D01*
X3145658Y-13852698D02*
X3107562Y-13852698D01*
X3107562Y-13852698D02*
X3088515Y-13862222D01*
X3088515Y-13862222D02*
X3078991Y-13871746D01*
X3078991Y-13871746D02*
X3069467Y-13890793D01*
X3069467Y-13890793D02*
X3069467Y-13928888D01*
X3069467Y-13928888D02*
X3078991Y-13947936D01*
X3078991Y-13947936D02*
X3088515Y-13957460D01*
X3088515Y-13957460D02*
X3107562Y-13966984D01*
X3107562Y-13966984D02*
X3145658Y-13966984D01*
X3145658Y-13966984D02*
X3164705Y-13957460D01*
X3164705Y-13957460D02*
X3174229Y-13947936D01*
X3174229Y-13947936D02*
X3183753Y-13928888D01*
X3183753Y-13928888D02*
X3183753Y-13890793D01*
X3183753Y-13890793D02*
X3174229Y-13871746D01*
X3174229Y-13871746D02*
X3164705Y-13862222D01*
X3164705Y-13862222D02*
X3145658Y-13852698D01*
X3307562Y-13766984D02*
X3326610Y-13766984D01*
X3326610Y-13766984D02*
X3345658Y-13776508D01*
X3345658Y-13776508D02*
X3355182Y-13786031D01*
X3355182Y-13786031D02*
X3364705Y-13805079D01*
X3364705Y-13805079D02*
X3374229Y-13843174D01*
X3374229Y-13843174D02*
X3374229Y-13890793D01*
X3374229Y-13890793D02*
X3364705Y-13928888D01*
X3364705Y-13928888D02*
X3355182Y-13947936D01*
X3355182Y-13947936D02*
X3345658Y-13957460D01*
X3345658Y-13957460D02*
X3326610Y-13966984D01*
X3326610Y-13966984D02*
X3307562Y-13966984D01*
X3307562Y-13966984D02*
X3288515Y-13957460D01*
X3288515Y-13957460D02*
X3278991Y-13947936D01*
X3278991Y-13947936D02*
X3269467Y-13928888D01*
X3269467Y-13928888D02*
X3259943Y-13890793D01*
X3259943Y-13890793D02*
X3259943Y-13843174D01*
X3259943Y-13843174D02*
X3269467Y-13805079D01*
X3269467Y-13805079D02*
X3278991Y-13786031D01*
X3278991Y-13786031D02*
X3288515Y-13776508D01*
X3288515Y-13776508D02*
X3307562Y-13766984D01*
X3498039Y-13766984D02*
X3517086Y-13766984D01*
X3517086Y-13766984D02*
X3536134Y-13776508D01*
X3536134Y-13776508D02*
X3545658Y-13786031D01*
X3545658Y-13786031D02*
X3555182Y-13805079D01*
X3555182Y-13805079D02*
X3564705Y-13843174D01*
X3564705Y-13843174D02*
X3564705Y-13890793D01*
X3564705Y-13890793D02*
X3555182Y-13928888D01*
X3555182Y-13928888D02*
X3545658Y-13947936D01*
X3545658Y-13947936D02*
X3536134Y-13957460D01*
X3536134Y-13957460D02*
X3517086Y-13966984D01*
X3517086Y-13966984D02*
X3498039Y-13966984D01*
X3498039Y-13966984D02*
X3478991Y-13957460D01*
X3478991Y-13957460D02*
X3469467Y-13947936D01*
X3469467Y-13947936D02*
X3459943Y-13928888D01*
X3459943Y-13928888D02*
X3450420Y-13890793D01*
X3450420Y-13890793D02*
X3450420Y-13843174D01*
X3450420Y-13843174D02*
X3459943Y-13805079D01*
X3459943Y-13805079D02*
X3469467Y-13786031D01*
X3469467Y-13786031D02*
X3478991Y-13776508D01*
X3478991Y-13776508D02*
X3498039Y-13766984D01*
X3650420Y-13966984D02*
X3650420Y-13833650D01*
X3650420Y-13852698D02*
X3659943Y-13843174D01*
X3659943Y-13843174D02*
X3678991Y-13833650D01*
X3678991Y-13833650D02*
X3707563Y-13833650D01*
X3707563Y-13833650D02*
X3726610Y-13843174D01*
X3726610Y-13843174D02*
X3736134Y-13862222D01*
X3736134Y-13862222D02*
X3736134Y-13966984D01*
X3736134Y-13862222D02*
X3745658Y-13843174D01*
X3745658Y-13843174D02*
X3764705Y-13833650D01*
X3764705Y-13833650D02*
X3793277Y-13833650D01*
X3793277Y-13833650D02*
X3812324Y-13843174D01*
X3812324Y-13843174D02*
X3821848Y-13862222D01*
X3821848Y-13862222D02*
X3821848Y-13966984D01*
X3917086Y-13966984D02*
X3917086Y-13833650D01*
X3917086Y-13852698D02*
X3926610Y-13843174D01*
X3926610Y-13843174D02*
X3945658Y-13833650D01*
X3945658Y-13833650D02*
X3974229Y-13833650D01*
X3974229Y-13833650D02*
X3993277Y-13843174D01*
X3993277Y-13843174D02*
X4002801Y-13862222D01*
X4002801Y-13862222D02*
X4002801Y-13966984D01*
X4002801Y-13862222D02*
X4012324Y-13843174D01*
X4012324Y-13843174D02*
X4031372Y-13833650D01*
X4031372Y-13833650D02*
X4059943Y-13833650D01*
X4059943Y-13833650D02*
X4078991Y-13843174D01*
X4078991Y-13843174D02*
X4088515Y-13862222D01*
X4088515Y-13862222D02*
X4088515Y-13966984D01*
X4478991Y-13757460D02*
X4307563Y-14014603D01*
X4736134Y-13766984D02*
X4755182Y-13766984D01*
X4755182Y-13766984D02*
X4774229Y-13776508D01*
X4774229Y-13776508D02*
X4783753Y-13786031D01*
X4783753Y-13786031D02*
X4793277Y-13805079D01*
X4793277Y-13805079D02*
X4802801Y-13843174D01*
X4802801Y-13843174D02*
X4802801Y-13890793D01*
X4802801Y-13890793D02*
X4793277Y-13928888D01*
X4793277Y-13928888D02*
X4783753Y-13947936D01*
X4783753Y-13947936D02*
X4774229Y-13957460D01*
X4774229Y-13957460D02*
X4755182Y-13966984D01*
X4755182Y-13966984D02*
X4736134Y-13966984D01*
X4736134Y-13966984D02*
X4717087Y-13957460D01*
X4717087Y-13957460D02*
X4707563Y-13947936D01*
X4707563Y-13947936D02*
X4698039Y-13928888D01*
X4698039Y-13928888D02*
X4688515Y-13890793D01*
X4688515Y-13890793D02*
X4688515Y-13843174D01*
X4688515Y-13843174D02*
X4698039Y-13805079D01*
X4698039Y-13805079D02*
X4707563Y-13786031D01*
X4707563Y-13786031D02*
X4717087Y-13776508D01*
X4717087Y-13776508D02*
X4736134Y-13766984D01*
X4888515Y-13947936D02*
X4898039Y-13957460D01*
X4898039Y-13957460D02*
X4888515Y-13966984D01*
X4888515Y-13966984D02*
X4878991Y-13957460D01*
X4878991Y-13957460D02*
X4888515Y-13947936D01*
X4888515Y-13947936D02*
X4888515Y-13966984D01*
X5021848Y-13766984D02*
X5040896Y-13766984D01*
X5040896Y-13766984D02*
X5059944Y-13776508D01*
X5059944Y-13776508D02*
X5069468Y-13786031D01*
X5069468Y-13786031D02*
X5078991Y-13805079D01*
X5078991Y-13805079D02*
X5088515Y-13843174D01*
X5088515Y-13843174D02*
X5088515Y-13890793D01*
X5088515Y-13890793D02*
X5078991Y-13928888D01*
X5078991Y-13928888D02*
X5069468Y-13947936D01*
X5069468Y-13947936D02*
X5059944Y-13957460D01*
X5059944Y-13957460D02*
X5040896Y-13966984D01*
X5040896Y-13966984D02*
X5021848Y-13966984D01*
X5021848Y-13966984D02*
X5002801Y-13957460D01*
X5002801Y-13957460D02*
X4993277Y-13947936D01*
X4993277Y-13947936D02*
X4983753Y-13928888D01*
X4983753Y-13928888D02*
X4974229Y-13890793D01*
X4974229Y-13890793D02*
X4974229Y-13843174D01*
X4974229Y-13843174D02*
X4983753Y-13805079D01*
X4983753Y-13805079D02*
X4993277Y-13786031D01*
X4993277Y-13786031D02*
X5002801Y-13776508D01*
X5002801Y-13776508D02*
X5021848Y-13766984D01*
X5155182Y-13766984D02*
X5278991Y-13766984D01*
X5278991Y-13766984D02*
X5212325Y-13843174D01*
X5212325Y-13843174D02*
X5240896Y-13843174D01*
X5240896Y-13843174D02*
X5259944Y-13852698D01*
X5259944Y-13852698D02*
X5269468Y-13862222D01*
X5269468Y-13862222D02*
X5278991Y-13881269D01*
X5278991Y-13881269D02*
X5278991Y-13928888D01*
X5278991Y-13928888D02*
X5269468Y-13947936D01*
X5269468Y-13947936D02*
X5259944Y-13957460D01*
X5259944Y-13957460D02*
X5240896Y-13966984D01*
X5240896Y-13966984D02*
X5183753Y-13966984D01*
X5183753Y-13966984D02*
X5164706Y-13957460D01*
X5164706Y-13957460D02*
X5155182Y-13947936D01*
X5469468Y-13966984D02*
X5355182Y-13966984D01*
X5412325Y-13966984D02*
X5412325Y-13766984D01*
X5412325Y-13766984D02*
X5393277Y-13795555D01*
X5393277Y-13795555D02*
X5374229Y-13814603D01*
X5374229Y-13814603D02*
X5355182Y-13824127D01*
X5650420Y-13766984D02*
X5555182Y-13766984D01*
X5555182Y-13766984D02*
X5545658Y-13862222D01*
X5545658Y-13862222D02*
X5555182Y-13852698D01*
X5555182Y-13852698D02*
X5574229Y-13843174D01*
X5574229Y-13843174D02*
X5621848Y-13843174D01*
X5621848Y-13843174D02*
X5640896Y-13852698D01*
X5640896Y-13852698D02*
X5650420Y-13862222D01*
X5650420Y-13862222D02*
X5659944Y-13881269D01*
X5659944Y-13881269D02*
X5659944Y-13928888D01*
X5659944Y-13928888D02*
X5650420Y-13947936D01*
X5650420Y-13947936D02*
X5640896Y-13957460D01*
X5640896Y-13957460D02*
X5621848Y-13966984D01*
X5621848Y-13966984D02*
X5574229Y-13966984D01*
X5574229Y-13966984D02*
X5555182Y-13957460D01*
X5555182Y-13957460D02*
X5545658Y-13947936D01*
X5736134Y-13766984D02*
X5736134Y-13805079D01*
X5812325Y-13766984D02*
X5812325Y-13805079D01*
X6107563Y-14043174D02*
X6098039Y-14033650D01*
X6098039Y-14033650D02*
X6078991Y-14005079D01*
X6078991Y-14005079D02*
X6069468Y-13986031D01*
X6069468Y-13986031D02*
X6059944Y-13957460D01*
X6059944Y-13957460D02*
X6050420Y-13909841D01*
X6050420Y-13909841D02*
X6050420Y-13871746D01*
X6050420Y-13871746D02*
X6059944Y-13824127D01*
X6059944Y-13824127D02*
X6069468Y-13795555D01*
X6069468Y-13795555D02*
X6078991Y-13776508D01*
X6078991Y-13776508D02*
X6098039Y-13747936D01*
X6098039Y-13747936D02*
X6107563Y-13738412D01*
X6269468Y-13833650D02*
X6269468Y-13966984D01*
X6221848Y-13757460D02*
X6174229Y-13900317D01*
X6174229Y-13900317D02*
X6298039Y-13900317D01*
X6526610Y-13966984D02*
X6526610Y-13766984D01*
X6612325Y-13966984D02*
X6612325Y-13862222D01*
X6612325Y-13862222D02*
X6602801Y-13843174D01*
X6602801Y-13843174D02*
X6583753Y-13833650D01*
X6583753Y-13833650D02*
X6555182Y-13833650D01*
X6555182Y-13833650D02*
X6536134Y-13843174D01*
X6536134Y-13843174D02*
X6526610Y-13852698D01*
X6736134Y-13966984D02*
X6717087Y-13957460D01*
X6717087Y-13957460D02*
X6707563Y-13947936D01*
X6707563Y-13947936D02*
X6698039Y-13928888D01*
X6698039Y-13928888D02*
X6698039Y-13871746D01*
X6698039Y-13871746D02*
X6707563Y-13852698D01*
X6707563Y-13852698D02*
X6717087Y-13843174D01*
X6717087Y-13843174D02*
X6736134Y-13833650D01*
X6736134Y-13833650D02*
X6764706Y-13833650D01*
X6764706Y-13833650D02*
X6783753Y-13843174D01*
X6783753Y-13843174D02*
X6793277Y-13852698D01*
X6793277Y-13852698D02*
X6802801Y-13871746D01*
X6802801Y-13871746D02*
X6802801Y-13928888D01*
X6802801Y-13928888D02*
X6793277Y-13947936D01*
X6793277Y-13947936D02*
X6783753Y-13957460D01*
X6783753Y-13957460D02*
X6764706Y-13966984D01*
X6764706Y-13966984D02*
X6736134Y-13966984D01*
X6917087Y-13966984D02*
X6898039Y-13957460D01*
X6898039Y-13957460D02*
X6888515Y-13938412D01*
X6888515Y-13938412D02*
X6888515Y-13766984D01*
X7069468Y-13957460D02*
X7050420Y-13966984D01*
X7050420Y-13966984D02*
X7012325Y-13966984D01*
X7012325Y-13966984D02*
X6993277Y-13957460D01*
X6993277Y-13957460D02*
X6983753Y-13938412D01*
X6983753Y-13938412D02*
X6983753Y-13862222D01*
X6983753Y-13862222D02*
X6993277Y-13843174D01*
X6993277Y-13843174D02*
X7012325Y-13833650D01*
X7012325Y-13833650D02*
X7050420Y-13833650D01*
X7050420Y-13833650D02*
X7069468Y-13843174D01*
X7069468Y-13843174D02*
X7078991Y-13862222D01*
X7078991Y-13862222D02*
X7078991Y-13881269D01*
X7078991Y-13881269D02*
X6983753Y-13900317D01*
X7155182Y-13957460D02*
X7174230Y-13966984D01*
X7174230Y-13966984D02*
X7212325Y-13966984D01*
X7212325Y-13966984D02*
X7231372Y-13957460D01*
X7231372Y-13957460D02*
X7240896Y-13938412D01*
X7240896Y-13938412D02*
X7240896Y-13928888D01*
X7240896Y-13928888D02*
X7231372Y-13909841D01*
X7231372Y-13909841D02*
X7212325Y-13900317D01*
X7212325Y-13900317D02*
X7183753Y-13900317D01*
X7183753Y-13900317D02*
X7164706Y-13890793D01*
X7164706Y-13890793D02*
X7155182Y-13871746D01*
X7155182Y-13871746D02*
X7155182Y-13862222D01*
X7155182Y-13862222D02*
X7164706Y-13843174D01*
X7164706Y-13843174D02*
X7183753Y-13833650D01*
X7183753Y-13833650D02*
X7212325Y-13833650D01*
X7212325Y-13833650D02*
X7231372Y-13843174D01*
X7307563Y-14043174D02*
X7317087Y-14033650D01*
X7317087Y-14033650D02*
X7336134Y-14005079D01*
X7336134Y-14005079D02*
X7345658Y-13986031D01*
X7345658Y-13986031D02*
X7355182Y-13957460D01*
X7355182Y-13957460D02*
X7364706Y-13909841D01*
X7364706Y-13909841D02*
X7364706Y-13871746D01*
X7364706Y-13871746D02*
X7355182Y-13824127D01*
X7355182Y-13824127D02*
X7345658Y-13795555D01*
X7345658Y-13795555D02*
X7336134Y-13776508D01*
X7336134Y-13776508D02*
X7317087Y-13747936D01*
X7317087Y-13747936D02*
X7307563Y-13738412D01*
D12*
X2517856Y-14174856D02*
X2517856Y-14104144D01*
X2447144Y-14104144D01*
X2447144Y-14174856D01*
X2517856Y-14174856D01*
D11*
X2898039Y-14230984D02*
X2783753Y-14230984D01*
X2840896Y-14230984D02*
X2840896Y-14030984D01*
X2840896Y-14030984D02*
X2821848Y-14059555D01*
X2821848Y-14059555D02*
X2802801Y-14078603D01*
X2802801Y-14078603D02*
X2783753Y-14088127D01*
X2983753Y-14211936D02*
X2993277Y-14221460D01*
X2993277Y-14221460D02*
X2983753Y-14230984D01*
X2983753Y-14230984D02*
X2974229Y-14221460D01*
X2974229Y-14221460D02*
X2983753Y-14211936D01*
X2983753Y-14211936D02*
X2983753Y-14230984D01*
X3117086Y-14030984D02*
X3136134Y-14030984D01*
X3136134Y-14030984D02*
X3155182Y-14040508D01*
X3155182Y-14040508D02*
X3164705Y-14050031D01*
X3164705Y-14050031D02*
X3174229Y-14069079D01*
X3174229Y-14069079D02*
X3183753Y-14107174D01*
X3183753Y-14107174D02*
X3183753Y-14154793D01*
X3183753Y-14154793D02*
X3174229Y-14192888D01*
X3174229Y-14192888D02*
X3164705Y-14211936D01*
X3164705Y-14211936D02*
X3155182Y-14221460D01*
X3155182Y-14221460D02*
X3136134Y-14230984D01*
X3136134Y-14230984D02*
X3117086Y-14230984D01*
X3117086Y-14230984D02*
X3098039Y-14221460D01*
X3098039Y-14221460D02*
X3088515Y-14211936D01*
X3088515Y-14211936D02*
X3078991Y-14192888D01*
X3078991Y-14192888D02*
X3069467Y-14154793D01*
X3069467Y-14154793D02*
X3069467Y-14107174D01*
X3069467Y-14107174D02*
X3078991Y-14069079D01*
X3078991Y-14069079D02*
X3088515Y-14050031D01*
X3088515Y-14050031D02*
X3098039Y-14040508D01*
X3098039Y-14040508D02*
X3117086Y-14030984D01*
X3307562Y-14030984D02*
X3326610Y-14030984D01*
X3326610Y-14030984D02*
X3345658Y-14040508D01*
X3345658Y-14040508D02*
X3355182Y-14050031D01*
X3355182Y-14050031D02*
X3364705Y-14069079D01*
X3364705Y-14069079D02*
X3374229Y-14107174D01*
X3374229Y-14107174D02*
X3374229Y-14154793D01*
X3374229Y-14154793D02*
X3364705Y-14192888D01*
X3364705Y-14192888D02*
X3355182Y-14211936D01*
X3355182Y-14211936D02*
X3345658Y-14221460D01*
X3345658Y-14221460D02*
X3326610Y-14230984D01*
X3326610Y-14230984D02*
X3307562Y-14230984D01*
X3307562Y-14230984D02*
X3288515Y-14221460D01*
X3288515Y-14221460D02*
X3278991Y-14211936D01*
X3278991Y-14211936D02*
X3269467Y-14192888D01*
X3269467Y-14192888D02*
X3259943Y-14154793D01*
X3259943Y-14154793D02*
X3259943Y-14107174D01*
X3259943Y-14107174D02*
X3269467Y-14069079D01*
X3269467Y-14069079D02*
X3278991Y-14050031D01*
X3278991Y-14050031D02*
X3288515Y-14040508D01*
X3288515Y-14040508D02*
X3307562Y-14030984D01*
X3498039Y-14030984D02*
X3517086Y-14030984D01*
X3517086Y-14030984D02*
X3536134Y-14040508D01*
X3536134Y-14040508D02*
X3545658Y-14050031D01*
X3545658Y-14050031D02*
X3555182Y-14069079D01*
X3555182Y-14069079D02*
X3564705Y-14107174D01*
X3564705Y-14107174D02*
X3564705Y-14154793D01*
X3564705Y-14154793D02*
X3555182Y-14192888D01*
X3555182Y-14192888D02*
X3545658Y-14211936D01*
X3545658Y-14211936D02*
X3536134Y-14221460D01*
X3536134Y-14221460D02*
X3517086Y-14230984D01*
X3517086Y-14230984D02*
X3498039Y-14230984D01*
X3498039Y-14230984D02*
X3478991Y-14221460D01*
X3478991Y-14221460D02*
X3469467Y-14211936D01*
X3469467Y-14211936D02*
X3459943Y-14192888D01*
X3459943Y-14192888D02*
X3450420Y-14154793D01*
X3450420Y-14154793D02*
X3450420Y-14107174D01*
X3450420Y-14107174D02*
X3459943Y-14069079D01*
X3459943Y-14069079D02*
X3469467Y-14050031D01*
X3469467Y-14050031D02*
X3478991Y-14040508D01*
X3478991Y-14040508D02*
X3498039Y-14030984D01*
X3650420Y-14230984D02*
X3650420Y-14097650D01*
X3650420Y-14116698D02*
X3659943Y-14107174D01*
X3659943Y-14107174D02*
X3678991Y-14097650D01*
X3678991Y-14097650D02*
X3707563Y-14097650D01*
X3707563Y-14097650D02*
X3726610Y-14107174D01*
X3726610Y-14107174D02*
X3736134Y-14126222D01*
X3736134Y-14126222D02*
X3736134Y-14230984D01*
X3736134Y-14126222D02*
X3745658Y-14107174D01*
X3745658Y-14107174D02*
X3764705Y-14097650D01*
X3764705Y-14097650D02*
X3793277Y-14097650D01*
X3793277Y-14097650D02*
X3812324Y-14107174D01*
X3812324Y-14107174D02*
X3821848Y-14126222D01*
X3821848Y-14126222D02*
X3821848Y-14230984D01*
X3917086Y-14230984D02*
X3917086Y-14097650D01*
X3917086Y-14116698D02*
X3926610Y-14107174D01*
X3926610Y-14107174D02*
X3945658Y-14097650D01*
X3945658Y-14097650D02*
X3974229Y-14097650D01*
X3974229Y-14097650D02*
X3993277Y-14107174D01*
X3993277Y-14107174D02*
X4002801Y-14126222D01*
X4002801Y-14126222D02*
X4002801Y-14230984D01*
X4002801Y-14126222D02*
X4012324Y-14107174D01*
X4012324Y-14107174D02*
X4031372Y-14097650D01*
X4031372Y-14097650D02*
X4059943Y-14097650D01*
X4059943Y-14097650D02*
X4078991Y-14107174D01*
X4078991Y-14107174D02*
X4088515Y-14126222D01*
X4088515Y-14126222D02*
X4088515Y-14230984D01*
X4478991Y-14021460D02*
X4307563Y-14278603D01*
X4736134Y-14030984D02*
X4755182Y-14030984D01*
X4755182Y-14030984D02*
X4774229Y-14040508D01*
X4774229Y-14040508D02*
X4783753Y-14050031D01*
X4783753Y-14050031D02*
X4793277Y-14069079D01*
X4793277Y-14069079D02*
X4802801Y-14107174D01*
X4802801Y-14107174D02*
X4802801Y-14154793D01*
X4802801Y-14154793D02*
X4793277Y-14192888D01*
X4793277Y-14192888D02*
X4783753Y-14211936D01*
X4783753Y-14211936D02*
X4774229Y-14221460D01*
X4774229Y-14221460D02*
X4755182Y-14230984D01*
X4755182Y-14230984D02*
X4736134Y-14230984D01*
X4736134Y-14230984D02*
X4717087Y-14221460D01*
X4717087Y-14221460D02*
X4707563Y-14211936D01*
X4707563Y-14211936D02*
X4698039Y-14192888D01*
X4698039Y-14192888D02*
X4688515Y-14154793D01*
X4688515Y-14154793D02*
X4688515Y-14107174D01*
X4688515Y-14107174D02*
X4698039Y-14069079D01*
X4698039Y-14069079D02*
X4707563Y-14050031D01*
X4707563Y-14050031D02*
X4717087Y-14040508D01*
X4717087Y-14040508D02*
X4736134Y-14030984D01*
X4888515Y-14211936D02*
X4898039Y-14221460D01*
X4898039Y-14221460D02*
X4888515Y-14230984D01*
X4888515Y-14230984D02*
X4878991Y-14221460D01*
X4878991Y-14221460D02*
X4888515Y-14211936D01*
X4888515Y-14211936D02*
X4888515Y-14230984D01*
X5021848Y-14030984D02*
X5040896Y-14030984D01*
X5040896Y-14030984D02*
X5059944Y-14040508D01*
X5059944Y-14040508D02*
X5069468Y-14050031D01*
X5069468Y-14050031D02*
X5078991Y-14069079D01*
X5078991Y-14069079D02*
X5088515Y-14107174D01*
X5088515Y-14107174D02*
X5088515Y-14154793D01*
X5088515Y-14154793D02*
X5078991Y-14192888D01*
X5078991Y-14192888D02*
X5069468Y-14211936D01*
X5069468Y-14211936D02*
X5059944Y-14221460D01*
X5059944Y-14221460D02*
X5040896Y-14230984D01*
X5040896Y-14230984D02*
X5021848Y-14230984D01*
X5021848Y-14230984D02*
X5002801Y-14221460D01*
X5002801Y-14221460D02*
X4993277Y-14211936D01*
X4993277Y-14211936D02*
X4983753Y-14192888D01*
X4983753Y-14192888D02*
X4974229Y-14154793D01*
X4974229Y-14154793D02*
X4974229Y-14107174D01*
X4974229Y-14107174D02*
X4983753Y-14069079D01*
X4983753Y-14069079D02*
X4993277Y-14050031D01*
X4993277Y-14050031D02*
X5002801Y-14040508D01*
X5002801Y-14040508D02*
X5021848Y-14030984D01*
X5155182Y-14030984D02*
X5278991Y-14030984D01*
X5278991Y-14030984D02*
X5212325Y-14107174D01*
X5212325Y-14107174D02*
X5240896Y-14107174D01*
X5240896Y-14107174D02*
X5259944Y-14116698D01*
X5259944Y-14116698D02*
X5269468Y-14126222D01*
X5269468Y-14126222D02*
X5278991Y-14145269D01*
X5278991Y-14145269D02*
X5278991Y-14192888D01*
X5278991Y-14192888D02*
X5269468Y-14211936D01*
X5269468Y-14211936D02*
X5259944Y-14221460D01*
X5259944Y-14221460D02*
X5240896Y-14230984D01*
X5240896Y-14230984D02*
X5183753Y-14230984D01*
X5183753Y-14230984D02*
X5164706Y-14221460D01*
X5164706Y-14221460D02*
X5155182Y-14211936D01*
X5374229Y-14230984D02*
X5412325Y-14230984D01*
X5412325Y-14230984D02*
X5431372Y-14221460D01*
X5431372Y-14221460D02*
X5440896Y-14211936D01*
X5440896Y-14211936D02*
X5459944Y-14183365D01*
X5459944Y-14183365D02*
X5469468Y-14145269D01*
X5469468Y-14145269D02*
X5469468Y-14069079D01*
X5469468Y-14069079D02*
X5459944Y-14050031D01*
X5459944Y-14050031D02*
X5450420Y-14040508D01*
X5450420Y-14040508D02*
X5431372Y-14030984D01*
X5431372Y-14030984D02*
X5393277Y-14030984D01*
X5393277Y-14030984D02*
X5374229Y-14040508D01*
X5374229Y-14040508D02*
X5364706Y-14050031D01*
X5364706Y-14050031D02*
X5355182Y-14069079D01*
X5355182Y-14069079D02*
X5355182Y-14116698D01*
X5355182Y-14116698D02*
X5364706Y-14135746D01*
X5364706Y-14135746D02*
X5374229Y-14145269D01*
X5374229Y-14145269D02*
X5393277Y-14154793D01*
X5393277Y-14154793D02*
X5431372Y-14154793D01*
X5431372Y-14154793D02*
X5450420Y-14145269D01*
X5450420Y-14145269D02*
X5459944Y-14135746D01*
X5459944Y-14135746D02*
X5469468Y-14116698D01*
X5640896Y-14097650D02*
X5640896Y-14230984D01*
X5593277Y-14021460D02*
X5545658Y-14164317D01*
X5545658Y-14164317D02*
X5669467Y-14164317D01*
X5736134Y-14030984D02*
X5736134Y-14069079D01*
X5812325Y-14030984D02*
X5812325Y-14069079D01*
X6107563Y-14307174D02*
X6098039Y-14297650D01*
X6098039Y-14297650D02*
X6078991Y-14269079D01*
X6078991Y-14269079D02*
X6069468Y-14250031D01*
X6069468Y-14250031D02*
X6059944Y-14221460D01*
X6059944Y-14221460D02*
X6050420Y-14173841D01*
X6050420Y-14173841D02*
X6050420Y-14135746D01*
X6050420Y-14135746D02*
X6059944Y-14088127D01*
X6059944Y-14088127D02*
X6069468Y-14059555D01*
X6069468Y-14059555D02*
X6078991Y-14040508D01*
X6078991Y-14040508D02*
X6098039Y-14011936D01*
X6098039Y-14011936D02*
X6107563Y-14002412D01*
X6164706Y-14030984D02*
X6298039Y-14030984D01*
X6298039Y-14030984D02*
X6212325Y-14230984D01*
X6412325Y-14030984D02*
X6431372Y-14030984D01*
X6431372Y-14030984D02*
X6450420Y-14040508D01*
X6450420Y-14040508D02*
X6459944Y-14050031D01*
X6459944Y-14050031D02*
X6469468Y-14069079D01*
X6469468Y-14069079D02*
X6478991Y-14107174D01*
X6478991Y-14107174D02*
X6478991Y-14154793D01*
X6478991Y-14154793D02*
X6469468Y-14192888D01*
X6469468Y-14192888D02*
X6459944Y-14211936D01*
X6459944Y-14211936D02*
X6450420Y-14221460D01*
X6450420Y-14221460D02*
X6431372Y-14230984D01*
X6431372Y-14230984D02*
X6412325Y-14230984D01*
X6412325Y-14230984D02*
X6393277Y-14221460D01*
X6393277Y-14221460D02*
X6383753Y-14211936D01*
X6383753Y-14211936D02*
X6374229Y-14192888D01*
X6374229Y-14192888D02*
X6364706Y-14154793D01*
X6364706Y-14154793D02*
X6364706Y-14107174D01*
X6364706Y-14107174D02*
X6374229Y-14069079D01*
X6374229Y-14069079D02*
X6383753Y-14050031D01*
X6383753Y-14050031D02*
X6393277Y-14040508D01*
X6393277Y-14040508D02*
X6412325Y-14030984D01*
X6717087Y-14230984D02*
X6717087Y-14030984D01*
X6802801Y-14230984D02*
X6802801Y-14126222D01*
X6802801Y-14126222D02*
X6793277Y-14107174D01*
X6793277Y-14107174D02*
X6774230Y-14097650D01*
X6774230Y-14097650D02*
X6745658Y-14097650D01*
X6745658Y-14097650D02*
X6726610Y-14107174D01*
X6726610Y-14107174D02*
X6717087Y-14116698D01*
X6926610Y-14230984D02*
X6907563Y-14221460D01*
X6907563Y-14221460D02*
X6898039Y-14211936D01*
X6898039Y-14211936D02*
X6888515Y-14192888D01*
X6888515Y-14192888D02*
X6888515Y-14135746D01*
X6888515Y-14135746D02*
X6898039Y-14116698D01*
X6898039Y-14116698D02*
X6907563Y-14107174D01*
X6907563Y-14107174D02*
X6926610Y-14097650D01*
X6926610Y-14097650D02*
X6955182Y-14097650D01*
X6955182Y-14097650D02*
X6974230Y-14107174D01*
X6974230Y-14107174D02*
X6983753Y-14116698D01*
X6983753Y-14116698D02*
X6993277Y-14135746D01*
X6993277Y-14135746D02*
X6993277Y-14192888D01*
X6993277Y-14192888D02*
X6983753Y-14211936D01*
X6983753Y-14211936D02*
X6974230Y-14221460D01*
X6974230Y-14221460D02*
X6955182Y-14230984D01*
X6955182Y-14230984D02*
X6926610Y-14230984D01*
X7107563Y-14230984D02*
X7088515Y-14221460D01*
X7088515Y-14221460D02*
X7078991Y-14202412D01*
X7078991Y-14202412D02*
X7078991Y-14030984D01*
X7259944Y-14221460D02*
X7240896Y-14230984D01*
X7240896Y-14230984D02*
X7202801Y-14230984D01*
X7202801Y-14230984D02*
X7183753Y-14221460D01*
X7183753Y-14221460D02*
X7174230Y-14202412D01*
X7174230Y-14202412D02*
X7174230Y-14126222D01*
X7174230Y-14126222D02*
X7183753Y-14107174D01*
X7183753Y-14107174D02*
X7202801Y-14097650D01*
X7202801Y-14097650D02*
X7240896Y-14097650D01*
X7240896Y-14097650D02*
X7259944Y-14107174D01*
X7259944Y-14107174D02*
X7269468Y-14126222D01*
X7269468Y-14126222D02*
X7269468Y-14145269D01*
X7269468Y-14145269D02*
X7174230Y-14164317D01*
X7345658Y-14221460D02*
X7364706Y-14230984D01*
X7364706Y-14230984D02*
X7402801Y-14230984D01*
X7402801Y-14230984D02*
X7421849Y-14221460D01*
X7421849Y-14221460D02*
X7431372Y-14202412D01*
X7431372Y-14202412D02*
X7431372Y-14192888D01*
X7431372Y-14192888D02*
X7421849Y-14173841D01*
X7421849Y-14173841D02*
X7402801Y-14164317D01*
X7402801Y-14164317D02*
X7374230Y-14164317D01*
X7374230Y-14164317D02*
X7355182Y-14154793D01*
X7355182Y-14154793D02*
X7345658Y-14135746D01*
X7345658Y-14135746D02*
X7345658Y-14126222D01*
X7345658Y-14126222D02*
X7355182Y-14107174D01*
X7355182Y-14107174D02*
X7374230Y-14097650D01*
X7374230Y-14097650D02*
X7402801Y-14097650D01*
X7402801Y-14097650D02*
X7421849Y-14107174D01*
X7498039Y-14307174D02*
X7507563Y-14297650D01*
X7507563Y-14297650D02*
X7526611Y-14269079D01*
X7526611Y-14269079D02*
X7536134Y-14250031D01*
X7536134Y-14250031D02*
X7545658Y-14221460D01*
X7545658Y-14221460D02*
X7555182Y-14173841D01*
X7555182Y-14173841D02*
X7555182Y-14135746D01*
X7555182Y-14135746D02*
X7545658Y-14088127D01*
X7545658Y-14088127D02*
X7536134Y-14059555D01*
X7536134Y-14059555D02*
X7526611Y-14040508D01*
X7526611Y-14040508D02*
X7507563Y-14011936D01*
X7507563Y-14011936D02*
X7498039Y-14002412D01*
D13*
X2477500Y-14458500D02*
X2532500Y-14403500D01*
X2477500Y-14348500D01*
X2422500Y-14403500D01*
X2477500Y-14458500D01*
D11*
X2898039Y-14494984D02*
X2783753Y-14494984D01*
X2840896Y-14494984D02*
X2840896Y-14294984D01*
X2840896Y-14294984D02*
X2821848Y-14323555D01*
X2821848Y-14323555D02*
X2802801Y-14342603D01*
X2802801Y-14342603D02*
X2783753Y-14352127D01*
X2983753Y-14475936D02*
X2993277Y-14485460D01*
X2993277Y-14485460D02*
X2983753Y-14494984D01*
X2983753Y-14494984D02*
X2974229Y-14485460D01*
X2974229Y-14485460D02*
X2983753Y-14475936D01*
X2983753Y-14475936D02*
X2983753Y-14494984D01*
X3183753Y-14494984D02*
X3069467Y-14494984D01*
X3126610Y-14494984D02*
X3126610Y-14294984D01*
X3126610Y-14294984D02*
X3107562Y-14323555D01*
X3107562Y-14323555D02*
X3088515Y-14342603D01*
X3088515Y-14342603D02*
X3069467Y-14352127D01*
X3307562Y-14294984D02*
X3326610Y-14294984D01*
X3326610Y-14294984D02*
X3345658Y-14304508D01*
X3345658Y-14304508D02*
X3355182Y-14314031D01*
X3355182Y-14314031D02*
X3364705Y-14333079D01*
X3364705Y-14333079D02*
X3374229Y-14371174D01*
X3374229Y-14371174D02*
X3374229Y-14418793D01*
X3374229Y-14418793D02*
X3364705Y-14456888D01*
X3364705Y-14456888D02*
X3355182Y-14475936D01*
X3355182Y-14475936D02*
X3345658Y-14485460D01*
X3345658Y-14485460D02*
X3326610Y-14494984D01*
X3326610Y-14494984D02*
X3307562Y-14494984D01*
X3307562Y-14494984D02*
X3288515Y-14485460D01*
X3288515Y-14485460D02*
X3278991Y-14475936D01*
X3278991Y-14475936D02*
X3269467Y-14456888D01*
X3269467Y-14456888D02*
X3259943Y-14418793D01*
X3259943Y-14418793D02*
X3259943Y-14371174D01*
X3259943Y-14371174D02*
X3269467Y-14333079D01*
X3269467Y-14333079D02*
X3278991Y-14314031D01*
X3278991Y-14314031D02*
X3288515Y-14304508D01*
X3288515Y-14304508D02*
X3307562Y-14294984D01*
X3498039Y-14294984D02*
X3517086Y-14294984D01*
X3517086Y-14294984D02*
X3536134Y-14304508D01*
X3536134Y-14304508D02*
X3545658Y-14314031D01*
X3545658Y-14314031D02*
X3555182Y-14333079D01*
X3555182Y-14333079D02*
X3564705Y-14371174D01*
X3564705Y-14371174D02*
X3564705Y-14418793D01*
X3564705Y-14418793D02*
X3555182Y-14456888D01*
X3555182Y-14456888D02*
X3545658Y-14475936D01*
X3545658Y-14475936D02*
X3536134Y-14485460D01*
X3536134Y-14485460D02*
X3517086Y-14494984D01*
X3517086Y-14494984D02*
X3498039Y-14494984D01*
X3498039Y-14494984D02*
X3478991Y-14485460D01*
X3478991Y-14485460D02*
X3469467Y-14475936D01*
X3469467Y-14475936D02*
X3459943Y-14456888D01*
X3459943Y-14456888D02*
X3450420Y-14418793D01*
X3450420Y-14418793D02*
X3450420Y-14371174D01*
X3450420Y-14371174D02*
X3459943Y-14333079D01*
X3459943Y-14333079D02*
X3469467Y-14314031D01*
X3469467Y-14314031D02*
X3478991Y-14304508D01*
X3478991Y-14304508D02*
X3498039Y-14294984D01*
X3650420Y-14494984D02*
X3650420Y-14361650D01*
X3650420Y-14380698D02*
X3659943Y-14371174D01*
X3659943Y-14371174D02*
X3678991Y-14361650D01*
X3678991Y-14361650D02*
X3707563Y-14361650D01*
X3707563Y-14361650D02*
X3726610Y-14371174D01*
X3726610Y-14371174D02*
X3736134Y-14390222D01*
X3736134Y-14390222D02*
X3736134Y-14494984D01*
X3736134Y-14390222D02*
X3745658Y-14371174D01*
X3745658Y-14371174D02*
X3764705Y-14361650D01*
X3764705Y-14361650D02*
X3793277Y-14361650D01*
X3793277Y-14361650D02*
X3812324Y-14371174D01*
X3812324Y-14371174D02*
X3821848Y-14390222D01*
X3821848Y-14390222D02*
X3821848Y-14494984D01*
X3917086Y-14494984D02*
X3917086Y-14361650D01*
X3917086Y-14380698D02*
X3926610Y-14371174D01*
X3926610Y-14371174D02*
X3945658Y-14361650D01*
X3945658Y-14361650D02*
X3974229Y-14361650D01*
X3974229Y-14361650D02*
X3993277Y-14371174D01*
X3993277Y-14371174D02*
X4002801Y-14390222D01*
X4002801Y-14390222D02*
X4002801Y-14494984D01*
X4002801Y-14390222D02*
X4012324Y-14371174D01*
X4012324Y-14371174D02*
X4031372Y-14361650D01*
X4031372Y-14361650D02*
X4059943Y-14361650D01*
X4059943Y-14361650D02*
X4078991Y-14371174D01*
X4078991Y-14371174D02*
X4088515Y-14390222D01*
X4088515Y-14390222D02*
X4088515Y-14494984D01*
X4478991Y-14285460D02*
X4307563Y-14542603D01*
X4736134Y-14294984D02*
X4755182Y-14294984D01*
X4755182Y-14294984D02*
X4774229Y-14304508D01*
X4774229Y-14304508D02*
X4783753Y-14314031D01*
X4783753Y-14314031D02*
X4793277Y-14333079D01*
X4793277Y-14333079D02*
X4802801Y-14371174D01*
X4802801Y-14371174D02*
X4802801Y-14418793D01*
X4802801Y-14418793D02*
X4793277Y-14456888D01*
X4793277Y-14456888D02*
X4783753Y-14475936D01*
X4783753Y-14475936D02*
X4774229Y-14485460D01*
X4774229Y-14485460D02*
X4755182Y-14494984D01*
X4755182Y-14494984D02*
X4736134Y-14494984D01*
X4736134Y-14494984D02*
X4717087Y-14485460D01*
X4717087Y-14485460D02*
X4707563Y-14475936D01*
X4707563Y-14475936D02*
X4698039Y-14456888D01*
X4698039Y-14456888D02*
X4688515Y-14418793D01*
X4688515Y-14418793D02*
X4688515Y-14371174D01*
X4688515Y-14371174D02*
X4698039Y-14333079D01*
X4698039Y-14333079D02*
X4707563Y-14314031D01*
X4707563Y-14314031D02*
X4717087Y-14304508D01*
X4717087Y-14304508D02*
X4736134Y-14294984D01*
X4888515Y-14475936D02*
X4898039Y-14485460D01*
X4898039Y-14485460D02*
X4888515Y-14494984D01*
X4888515Y-14494984D02*
X4878991Y-14485460D01*
X4878991Y-14485460D02*
X4888515Y-14475936D01*
X4888515Y-14475936D02*
X4888515Y-14494984D01*
X5021848Y-14294984D02*
X5040896Y-14294984D01*
X5040896Y-14294984D02*
X5059944Y-14304508D01*
X5059944Y-14304508D02*
X5069468Y-14314031D01*
X5069468Y-14314031D02*
X5078991Y-14333079D01*
X5078991Y-14333079D02*
X5088515Y-14371174D01*
X5088515Y-14371174D02*
X5088515Y-14418793D01*
X5088515Y-14418793D02*
X5078991Y-14456888D01*
X5078991Y-14456888D02*
X5069468Y-14475936D01*
X5069468Y-14475936D02*
X5059944Y-14485460D01*
X5059944Y-14485460D02*
X5040896Y-14494984D01*
X5040896Y-14494984D02*
X5021848Y-14494984D01*
X5021848Y-14494984D02*
X5002801Y-14485460D01*
X5002801Y-14485460D02*
X4993277Y-14475936D01*
X4993277Y-14475936D02*
X4983753Y-14456888D01*
X4983753Y-14456888D02*
X4974229Y-14418793D01*
X4974229Y-14418793D02*
X4974229Y-14371174D01*
X4974229Y-14371174D02*
X4983753Y-14333079D01*
X4983753Y-14333079D02*
X4993277Y-14314031D01*
X4993277Y-14314031D02*
X5002801Y-14304508D01*
X5002801Y-14304508D02*
X5021848Y-14294984D01*
X5259944Y-14361650D02*
X5259944Y-14494984D01*
X5212325Y-14285460D02*
X5164706Y-14428317D01*
X5164706Y-14428317D02*
X5288515Y-14428317D01*
X5345658Y-14294984D02*
X5469468Y-14294984D01*
X5469468Y-14294984D02*
X5402801Y-14371174D01*
X5402801Y-14371174D02*
X5431372Y-14371174D01*
X5431372Y-14371174D02*
X5450420Y-14380698D01*
X5450420Y-14380698D02*
X5459944Y-14390222D01*
X5459944Y-14390222D02*
X5469468Y-14409269D01*
X5469468Y-14409269D02*
X5469468Y-14456888D01*
X5469468Y-14456888D02*
X5459944Y-14475936D01*
X5459944Y-14475936D02*
X5450420Y-14485460D01*
X5450420Y-14485460D02*
X5431372Y-14494984D01*
X5431372Y-14494984D02*
X5374229Y-14494984D01*
X5374229Y-14494984D02*
X5355182Y-14485460D01*
X5355182Y-14485460D02*
X5345658Y-14475936D01*
X5536134Y-14294984D02*
X5659944Y-14294984D01*
X5659944Y-14294984D02*
X5593277Y-14371174D01*
X5593277Y-14371174D02*
X5621848Y-14371174D01*
X5621848Y-14371174D02*
X5640896Y-14380698D01*
X5640896Y-14380698D02*
X5650420Y-14390222D01*
X5650420Y-14390222D02*
X5659944Y-14409269D01*
X5659944Y-14409269D02*
X5659944Y-14456888D01*
X5659944Y-14456888D02*
X5650420Y-14475936D01*
X5650420Y-14475936D02*
X5640896Y-14485460D01*
X5640896Y-14485460D02*
X5621848Y-14494984D01*
X5621848Y-14494984D02*
X5564706Y-14494984D01*
X5564706Y-14494984D02*
X5545658Y-14485460D01*
X5545658Y-14485460D02*
X5536134Y-14475936D01*
X5736134Y-14294984D02*
X5736134Y-14333079D01*
X5812325Y-14294984D02*
X5812325Y-14333079D01*
X6107563Y-14571174D02*
X6098039Y-14561650D01*
X6098039Y-14561650D02*
X6078991Y-14533079D01*
X6078991Y-14533079D02*
X6069468Y-14514031D01*
X6069468Y-14514031D02*
X6059944Y-14485460D01*
X6059944Y-14485460D02*
X6050420Y-14437841D01*
X6050420Y-14437841D02*
X6050420Y-14399746D01*
X6050420Y-14399746D02*
X6059944Y-14352127D01*
X6059944Y-14352127D02*
X6069468Y-14323555D01*
X6069468Y-14323555D02*
X6078991Y-14304508D01*
X6078991Y-14304508D02*
X6098039Y-14275936D01*
X6098039Y-14275936D02*
X6107563Y-14266412D01*
X6288515Y-14494984D02*
X6174229Y-14494984D01*
X6231372Y-14494984D02*
X6231372Y-14294984D01*
X6231372Y-14294984D02*
X6212325Y-14323555D01*
X6212325Y-14323555D02*
X6193277Y-14342603D01*
X6193277Y-14342603D02*
X6174229Y-14352127D01*
X6364706Y-14314031D02*
X6374229Y-14304508D01*
X6374229Y-14304508D02*
X6393277Y-14294984D01*
X6393277Y-14294984D02*
X6440896Y-14294984D01*
X6440896Y-14294984D02*
X6459944Y-14304508D01*
X6459944Y-14304508D02*
X6469468Y-14314031D01*
X6469468Y-14314031D02*
X6478991Y-14333079D01*
X6478991Y-14333079D02*
X6478991Y-14352127D01*
X6478991Y-14352127D02*
X6469468Y-14380698D01*
X6469468Y-14380698D02*
X6355182Y-14494984D01*
X6355182Y-14494984D02*
X6478991Y-14494984D01*
X6717087Y-14494984D02*
X6717087Y-14294984D01*
X6802801Y-14494984D02*
X6802801Y-14390222D01*
X6802801Y-14390222D02*
X6793277Y-14371174D01*
X6793277Y-14371174D02*
X6774230Y-14361650D01*
X6774230Y-14361650D02*
X6745658Y-14361650D01*
X6745658Y-14361650D02*
X6726610Y-14371174D01*
X6726610Y-14371174D02*
X6717087Y-14380698D01*
X6926610Y-14494984D02*
X6907563Y-14485460D01*
X6907563Y-14485460D02*
X6898039Y-14475936D01*
X6898039Y-14475936D02*
X6888515Y-14456888D01*
X6888515Y-14456888D02*
X6888515Y-14399746D01*
X6888515Y-14399746D02*
X6898039Y-14380698D01*
X6898039Y-14380698D02*
X6907563Y-14371174D01*
X6907563Y-14371174D02*
X6926610Y-14361650D01*
X6926610Y-14361650D02*
X6955182Y-14361650D01*
X6955182Y-14361650D02*
X6974230Y-14371174D01*
X6974230Y-14371174D02*
X6983753Y-14380698D01*
X6983753Y-14380698D02*
X6993277Y-14399746D01*
X6993277Y-14399746D02*
X6993277Y-14456888D01*
X6993277Y-14456888D02*
X6983753Y-14475936D01*
X6983753Y-14475936D02*
X6974230Y-14485460D01*
X6974230Y-14485460D02*
X6955182Y-14494984D01*
X6955182Y-14494984D02*
X6926610Y-14494984D01*
X7107563Y-14494984D02*
X7088515Y-14485460D01*
X7088515Y-14485460D02*
X7078991Y-14466412D01*
X7078991Y-14466412D02*
X7078991Y-14294984D01*
X7259944Y-14485460D02*
X7240896Y-14494984D01*
X7240896Y-14494984D02*
X7202801Y-14494984D01*
X7202801Y-14494984D02*
X7183753Y-14485460D01*
X7183753Y-14485460D02*
X7174230Y-14466412D01*
X7174230Y-14466412D02*
X7174230Y-14390222D01*
X7174230Y-14390222D02*
X7183753Y-14371174D01*
X7183753Y-14371174D02*
X7202801Y-14361650D01*
X7202801Y-14361650D02*
X7240896Y-14361650D01*
X7240896Y-14361650D02*
X7259944Y-14371174D01*
X7259944Y-14371174D02*
X7269468Y-14390222D01*
X7269468Y-14390222D02*
X7269468Y-14409269D01*
X7269468Y-14409269D02*
X7174230Y-14428317D01*
X7345658Y-14485460D02*
X7364706Y-14494984D01*
X7364706Y-14494984D02*
X7402801Y-14494984D01*
X7402801Y-14494984D02*
X7421849Y-14485460D01*
X7421849Y-14485460D02*
X7431372Y-14466412D01*
X7431372Y-14466412D02*
X7431372Y-14456888D01*
X7431372Y-14456888D02*
X7421849Y-14437841D01*
X7421849Y-14437841D02*
X7402801Y-14428317D01*
X7402801Y-14428317D02*
X7374230Y-14428317D01*
X7374230Y-14428317D02*
X7355182Y-14418793D01*
X7355182Y-14418793D02*
X7345658Y-14399746D01*
X7345658Y-14399746D02*
X7345658Y-14390222D01*
X7345658Y-14390222D02*
X7355182Y-14371174D01*
X7355182Y-14371174D02*
X7374230Y-14361650D01*
X7374230Y-14361650D02*
X7402801Y-14361650D01*
X7402801Y-14361650D02*
X7421849Y-14371174D01*
X7498039Y-14571174D02*
X7507563Y-14561650D01*
X7507563Y-14561650D02*
X7526611Y-14533079D01*
X7526611Y-14533079D02*
X7536134Y-14514031D01*
X7536134Y-14514031D02*
X7545658Y-14485460D01*
X7545658Y-14485460D02*
X7555182Y-14437841D01*
X7555182Y-14437841D02*
X7555182Y-14399746D01*
X7555182Y-14399746D02*
X7545658Y-14352127D01*
X7545658Y-14352127D02*
X7536134Y-14323555D01*
X7536134Y-14323555D02*
X7526611Y-14304508D01*
X7526611Y-14304508D02*
X7507563Y-14275936D01*
X7507563Y-14275936D02*
X7498039Y-14266412D01*
D10*
X2382500Y-14592500D02*
X2532500Y-14742500D01*
X2532500Y-14592500D02*
X2382500Y-14742500D01*
X2532500Y-14667500D02*
G75*
G03*
X2532500Y-14667500I-75000J0D01*
G01*
D11*
X2898039Y-14758984D02*
X2783753Y-14758984D01*
X2840896Y-14758984D02*
X2840896Y-14558984D01*
X2840896Y-14558984D02*
X2821848Y-14587555D01*
X2821848Y-14587555D02*
X2802801Y-14606603D01*
X2802801Y-14606603D02*
X2783753Y-14616127D01*
X2983753Y-14739936D02*
X2993277Y-14749460D01*
X2993277Y-14749460D02*
X2983753Y-14758984D01*
X2983753Y-14758984D02*
X2974229Y-14749460D01*
X2974229Y-14749460D02*
X2983753Y-14739936D01*
X2983753Y-14739936D02*
X2983753Y-14758984D01*
X3174229Y-14558984D02*
X3078991Y-14558984D01*
X3078991Y-14558984D02*
X3069467Y-14654222D01*
X3069467Y-14654222D02*
X3078991Y-14644698D01*
X3078991Y-14644698D02*
X3098039Y-14635174D01*
X3098039Y-14635174D02*
X3145658Y-14635174D01*
X3145658Y-14635174D02*
X3164705Y-14644698D01*
X3164705Y-14644698D02*
X3174229Y-14654222D01*
X3174229Y-14654222D02*
X3183753Y-14673269D01*
X3183753Y-14673269D02*
X3183753Y-14720888D01*
X3183753Y-14720888D02*
X3174229Y-14739936D01*
X3174229Y-14739936D02*
X3164705Y-14749460D01*
X3164705Y-14749460D02*
X3145658Y-14758984D01*
X3145658Y-14758984D02*
X3098039Y-14758984D01*
X3098039Y-14758984D02*
X3078991Y-14749460D01*
X3078991Y-14749460D02*
X3069467Y-14739936D01*
X3307562Y-14558984D02*
X3326610Y-14558984D01*
X3326610Y-14558984D02*
X3345658Y-14568508D01*
X3345658Y-14568508D02*
X3355182Y-14578031D01*
X3355182Y-14578031D02*
X3364705Y-14597079D01*
X3364705Y-14597079D02*
X3374229Y-14635174D01*
X3374229Y-14635174D02*
X3374229Y-14682793D01*
X3374229Y-14682793D02*
X3364705Y-14720888D01*
X3364705Y-14720888D02*
X3355182Y-14739936D01*
X3355182Y-14739936D02*
X3345658Y-14749460D01*
X3345658Y-14749460D02*
X3326610Y-14758984D01*
X3326610Y-14758984D02*
X3307562Y-14758984D01*
X3307562Y-14758984D02*
X3288515Y-14749460D01*
X3288515Y-14749460D02*
X3278991Y-14739936D01*
X3278991Y-14739936D02*
X3269467Y-14720888D01*
X3269467Y-14720888D02*
X3259943Y-14682793D01*
X3259943Y-14682793D02*
X3259943Y-14635174D01*
X3259943Y-14635174D02*
X3269467Y-14597079D01*
X3269467Y-14597079D02*
X3278991Y-14578031D01*
X3278991Y-14578031D02*
X3288515Y-14568508D01*
X3288515Y-14568508D02*
X3307562Y-14558984D01*
X3498039Y-14558984D02*
X3517086Y-14558984D01*
X3517086Y-14558984D02*
X3536134Y-14568508D01*
X3536134Y-14568508D02*
X3545658Y-14578031D01*
X3545658Y-14578031D02*
X3555182Y-14597079D01*
X3555182Y-14597079D02*
X3564705Y-14635174D01*
X3564705Y-14635174D02*
X3564705Y-14682793D01*
X3564705Y-14682793D02*
X3555182Y-14720888D01*
X3555182Y-14720888D02*
X3545658Y-14739936D01*
X3545658Y-14739936D02*
X3536134Y-14749460D01*
X3536134Y-14749460D02*
X3517086Y-14758984D01*
X3517086Y-14758984D02*
X3498039Y-14758984D01*
X3498039Y-14758984D02*
X3478991Y-14749460D01*
X3478991Y-14749460D02*
X3469467Y-14739936D01*
X3469467Y-14739936D02*
X3459943Y-14720888D01*
X3459943Y-14720888D02*
X3450420Y-14682793D01*
X3450420Y-14682793D02*
X3450420Y-14635174D01*
X3450420Y-14635174D02*
X3459943Y-14597079D01*
X3459943Y-14597079D02*
X3469467Y-14578031D01*
X3469467Y-14578031D02*
X3478991Y-14568508D01*
X3478991Y-14568508D02*
X3498039Y-14558984D01*
X3650420Y-14758984D02*
X3650420Y-14625650D01*
X3650420Y-14644698D02*
X3659943Y-14635174D01*
X3659943Y-14635174D02*
X3678991Y-14625650D01*
X3678991Y-14625650D02*
X3707563Y-14625650D01*
X3707563Y-14625650D02*
X3726610Y-14635174D01*
X3726610Y-14635174D02*
X3736134Y-14654222D01*
X3736134Y-14654222D02*
X3736134Y-14758984D01*
X3736134Y-14654222D02*
X3745658Y-14635174D01*
X3745658Y-14635174D02*
X3764705Y-14625650D01*
X3764705Y-14625650D02*
X3793277Y-14625650D01*
X3793277Y-14625650D02*
X3812324Y-14635174D01*
X3812324Y-14635174D02*
X3821848Y-14654222D01*
X3821848Y-14654222D02*
X3821848Y-14758984D01*
X3917086Y-14758984D02*
X3917086Y-14625650D01*
X3917086Y-14644698D02*
X3926610Y-14635174D01*
X3926610Y-14635174D02*
X3945658Y-14625650D01*
X3945658Y-14625650D02*
X3974229Y-14625650D01*
X3974229Y-14625650D02*
X3993277Y-14635174D01*
X3993277Y-14635174D02*
X4002801Y-14654222D01*
X4002801Y-14654222D02*
X4002801Y-14758984D01*
X4002801Y-14654222D02*
X4012324Y-14635174D01*
X4012324Y-14635174D02*
X4031372Y-14625650D01*
X4031372Y-14625650D02*
X4059943Y-14625650D01*
X4059943Y-14625650D02*
X4078991Y-14635174D01*
X4078991Y-14635174D02*
X4088515Y-14654222D01*
X4088515Y-14654222D02*
X4088515Y-14758984D01*
X4478991Y-14549460D02*
X4307563Y-14806603D01*
X4736134Y-14558984D02*
X4755182Y-14558984D01*
X4755182Y-14558984D02*
X4774229Y-14568508D01*
X4774229Y-14568508D02*
X4783753Y-14578031D01*
X4783753Y-14578031D02*
X4793277Y-14597079D01*
X4793277Y-14597079D02*
X4802801Y-14635174D01*
X4802801Y-14635174D02*
X4802801Y-14682793D01*
X4802801Y-14682793D02*
X4793277Y-14720888D01*
X4793277Y-14720888D02*
X4783753Y-14739936D01*
X4783753Y-14739936D02*
X4774229Y-14749460D01*
X4774229Y-14749460D02*
X4755182Y-14758984D01*
X4755182Y-14758984D02*
X4736134Y-14758984D01*
X4736134Y-14758984D02*
X4717087Y-14749460D01*
X4717087Y-14749460D02*
X4707563Y-14739936D01*
X4707563Y-14739936D02*
X4698039Y-14720888D01*
X4698039Y-14720888D02*
X4688515Y-14682793D01*
X4688515Y-14682793D02*
X4688515Y-14635174D01*
X4688515Y-14635174D02*
X4698039Y-14597079D01*
X4698039Y-14597079D02*
X4707563Y-14578031D01*
X4707563Y-14578031D02*
X4717087Y-14568508D01*
X4717087Y-14568508D02*
X4736134Y-14558984D01*
X4888515Y-14739936D02*
X4898039Y-14749460D01*
X4898039Y-14749460D02*
X4888515Y-14758984D01*
X4888515Y-14758984D02*
X4878991Y-14749460D01*
X4878991Y-14749460D02*
X4888515Y-14739936D01*
X4888515Y-14739936D02*
X4888515Y-14758984D01*
X5021848Y-14558984D02*
X5040896Y-14558984D01*
X5040896Y-14558984D02*
X5059944Y-14568508D01*
X5059944Y-14568508D02*
X5069468Y-14578031D01*
X5069468Y-14578031D02*
X5078991Y-14597079D01*
X5078991Y-14597079D02*
X5088515Y-14635174D01*
X5088515Y-14635174D02*
X5088515Y-14682793D01*
X5088515Y-14682793D02*
X5078991Y-14720888D01*
X5078991Y-14720888D02*
X5069468Y-14739936D01*
X5069468Y-14739936D02*
X5059944Y-14749460D01*
X5059944Y-14749460D02*
X5040896Y-14758984D01*
X5040896Y-14758984D02*
X5021848Y-14758984D01*
X5021848Y-14758984D02*
X5002801Y-14749460D01*
X5002801Y-14749460D02*
X4993277Y-14739936D01*
X4993277Y-14739936D02*
X4983753Y-14720888D01*
X4983753Y-14720888D02*
X4974229Y-14682793D01*
X4974229Y-14682793D02*
X4974229Y-14635174D01*
X4974229Y-14635174D02*
X4983753Y-14597079D01*
X4983753Y-14597079D02*
X4993277Y-14578031D01*
X4993277Y-14578031D02*
X5002801Y-14568508D01*
X5002801Y-14568508D02*
X5021848Y-14558984D01*
X5269468Y-14558984D02*
X5174229Y-14558984D01*
X5174229Y-14558984D02*
X5164706Y-14654222D01*
X5164706Y-14654222D02*
X5174229Y-14644698D01*
X5174229Y-14644698D02*
X5193277Y-14635174D01*
X5193277Y-14635174D02*
X5240896Y-14635174D01*
X5240896Y-14635174D02*
X5259944Y-14644698D01*
X5259944Y-14644698D02*
X5269468Y-14654222D01*
X5269468Y-14654222D02*
X5278991Y-14673269D01*
X5278991Y-14673269D02*
X5278991Y-14720888D01*
X5278991Y-14720888D02*
X5269468Y-14739936D01*
X5269468Y-14739936D02*
X5259944Y-14749460D01*
X5259944Y-14749460D02*
X5240896Y-14758984D01*
X5240896Y-14758984D02*
X5193277Y-14758984D01*
X5193277Y-14758984D02*
X5174229Y-14749460D01*
X5174229Y-14749460D02*
X5164706Y-14739936D01*
X5374229Y-14758984D02*
X5412325Y-14758984D01*
X5412325Y-14758984D02*
X5431372Y-14749460D01*
X5431372Y-14749460D02*
X5440896Y-14739936D01*
X5440896Y-14739936D02*
X5459944Y-14711365D01*
X5459944Y-14711365D02*
X5469468Y-14673269D01*
X5469468Y-14673269D02*
X5469468Y-14597079D01*
X5469468Y-14597079D02*
X5459944Y-14578031D01*
X5459944Y-14578031D02*
X5450420Y-14568508D01*
X5450420Y-14568508D02*
X5431372Y-14558984D01*
X5431372Y-14558984D02*
X5393277Y-14558984D01*
X5393277Y-14558984D02*
X5374229Y-14568508D01*
X5374229Y-14568508D02*
X5364706Y-14578031D01*
X5364706Y-14578031D02*
X5355182Y-14597079D01*
X5355182Y-14597079D02*
X5355182Y-14644698D01*
X5355182Y-14644698D02*
X5364706Y-14663746D01*
X5364706Y-14663746D02*
X5374229Y-14673269D01*
X5374229Y-14673269D02*
X5393277Y-14682793D01*
X5393277Y-14682793D02*
X5431372Y-14682793D01*
X5431372Y-14682793D02*
X5450420Y-14673269D01*
X5450420Y-14673269D02*
X5459944Y-14663746D01*
X5459944Y-14663746D02*
X5469468Y-14644698D01*
X5659944Y-14758984D02*
X5545658Y-14758984D01*
X5602801Y-14758984D02*
X5602801Y-14558984D01*
X5602801Y-14558984D02*
X5583753Y-14587555D01*
X5583753Y-14587555D02*
X5564706Y-14606603D01*
X5564706Y-14606603D02*
X5545658Y-14616127D01*
X5736134Y-14558984D02*
X5736134Y-14597079D01*
X5812325Y-14558984D02*
X5812325Y-14597079D01*
X6107563Y-14835174D02*
X6098039Y-14825650D01*
X6098039Y-14825650D02*
X6078991Y-14797079D01*
X6078991Y-14797079D02*
X6069468Y-14778031D01*
X6069468Y-14778031D02*
X6059944Y-14749460D01*
X6059944Y-14749460D02*
X6050420Y-14701841D01*
X6050420Y-14701841D02*
X6050420Y-14663746D01*
X6050420Y-14663746D02*
X6059944Y-14616127D01*
X6059944Y-14616127D02*
X6069468Y-14587555D01*
X6069468Y-14587555D02*
X6078991Y-14568508D01*
X6078991Y-14568508D02*
X6098039Y-14539936D01*
X6098039Y-14539936D02*
X6107563Y-14530412D01*
X6288515Y-14758984D02*
X6174229Y-14758984D01*
X6231372Y-14758984D02*
X6231372Y-14558984D01*
X6231372Y-14558984D02*
X6212325Y-14587555D01*
X6212325Y-14587555D02*
X6193277Y-14606603D01*
X6193277Y-14606603D02*
X6174229Y-14616127D01*
X6526610Y-14758984D02*
X6526610Y-14558984D01*
X6612325Y-14758984D02*
X6612325Y-14654222D01*
X6612325Y-14654222D02*
X6602801Y-14635174D01*
X6602801Y-14635174D02*
X6583753Y-14625650D01*
X6583753Y-14625650D02*
X6555182Y-14625650D01*
X6555182Y-14625650D02*
X6536134Y-14635174D01*
X6536134Y-14635174D02*
X6526610Y-14644698D01*
X6736134Y-14758984D02*
X6717087Y-14749460D01*
X6717087Y-14749460D02*
X6707563Y-14739936D01*
X6707563Y-14739936D02*
X6698039Y-14720888D01*
X6698039Y-14720888D02*
X6698039Y-14663746D01*
X6698039Y-14663746D02*
X6707563Y-14644698D01*
X6707563Y-14644698D02*
X6717087Y-14635174D01*
X6717087Y-14635174D02*
X6736134Y-14625650D01*
X6736134Y-14625650D02*
X6764706Y-14625650D01*
X6764706Y-14625650D02*
X6783753Y-14635174D01*
X6783753Y-14635174D02*
X6793277Y-14644698D01*
X6793277Y-14644698D02*
X6802801Y-14663746D01*
X6802801Y-14663746D02*
X6802801Y-14720888D01*
X6802801Y-14720888D02*
X6793277Y-14739936D01*
X6793277Y-14739936D02*
X6783753Y-14749460D01*
X6783753Y-14749460D02*
X6764706Y-14758984D01*
X6764706Y-14758984D02*
X6736134Y-14758984D01*
X6917087Y-14758984D02*
X6898039Y-14749460D01*
X6898039Y-14749460D02*
X6888515Y-14730412D01*
X6888515Y-14730412D02*
X6888515Y-14558984D01*
X7069468Y-14749460D02*
X7050420Y-14758984D01*
X7050420Y-14758984D02*
X7012325Y-14758984D01*
X7012325Y-14758984D02*
X6993277Y-14749460D01*
X6993277Y-14749460D02*
X6983753Y-14730412D01*
X6983753Y-14730412D02*
X6983753Y-14654222D01*
X6983753Y-14654222D02*
X6993277Y-14635174D01*
X6993277Y-14635174D02*
X7012325Y-14625650D01*
X7012325Y-14625650D02*
X7050420Y-14625650D01*
X7050420Y-14625650D02*
X7069468Y-14635174D01*
X7069468Y-14635174D02*
X7078991Y-14654222D01*
X7078991Y-14654222D02*
X7078991Y-14673269D01*
X7078991Y-14673269D02*
X6983753Y-14692317D01*
X7145658Y-14835174D02*
X7155182Y-14825650D01*
X7155182Y-14825650D02*
X7174230Y-14797079D01*
X7174230Y-14797079D02*
X7183753Y-14778031D01*
X7183753Y-14778031D02*
X7193277Y-14749460D01*
X7193277Y-14749460D02*
X7202801Y-14701841D01*
X7202801Y-14701841D02*
X7202801Y-14663746D01*
X7202801Y-14663746D02*
X7193277Y-14616127D01*
X7193277Y-14616127D02*
X7183753Y-14587555D01*
X7183753Y-14587555D02*
X7174230Y-14568508D01*
X7174230Y-14568508D02*
X7155182Y-14539936D01*
X7155182Y-14539936D02*
X7145658Y-14530412D01*
D14*
X2362500Y-14852500D02*
X2532500Y-15022500D01*
X2532500Y-14852500D02*
X2362500Y-15022500D01*
X2447500Y-14852500D02*
X2447500Y-15022500D01*
X2362500Y-14937500D02*
X2532500Y-14937500D01*
D11*
X2898039Y-15028984D02*
X2783753Y-15028984D01*
X2840896Y-15028984D02*
X2840896Y-14828984D01*
X2840896Y-14828984D02*
X2821848Y-14857555D01*
X2821848Y-14857555D02*
X2802801Y-14876603D01*
X2802801Y-14876603D02*
X2783753Y-14886127D01*
X2983753Y-15009936D02*
X2993277Y-15019460D01*
X2993277Y-15019460D02*
X2983753Y-15028984D01*
X2983753Y-15028984D02*
X2974229Y-15019460D01*
X2974229Y-15019460D02*
X2983753Y-15009936D01*
X2983753Y-15009936D02*
X2983753Y-15028984D01*
X3059943Y-14828984D02*
X3193277Y-14828984D01*
X3193277Y-14828984D02*
X3107562Y-15028984D01*
X3307562Y-14828984D02*
X3326610Y-14828984D01*
X3326610Y-14828984D02*
X3345658Y-14838508D01*
X3345658Y-14838508D02*
X3355182Y-14848031D01*
X3355182Y-14848031D02*
X3364705Y-14867079D01*
X3364705Y-14867079D02*
X3374229Y-14905174D01*
X3374229Y-14905174D02*
X3374229Y-14952793D01*
X3374229Y-14952793D02*
X3364705Y-14990888D01*
X3364705Y-14990888D02*
X3355182Y-15009936D01*
X3355182Y-15009936D02*
X3345658Y-15019460D01*
X3345658Y-15019460D02*
X3326610Y-15028984D01*
X3326610Y-15028984D02*
X3307562Y-15028984D01*
X3307562Y-15028984D02*
X3288515Y-15019460D01*
X3288515Y-15019460D02*
X3278991Y-15009936D01*
X3278991Y-15009936D02*
X3269467Y-14990888D01*
X3269467Y-14990888D02*
X3259943Y-14952793D01*
X3259943Y-14952793D02*
X3259943Y-14905174D01*
X3259943Y-14905174D02*
X3269467Y-14867079D01*
X3269467Y-14867079D02*
X3278991Y-14848031D01*
X3278991Y-14848031D02*
X3288515Y-14838508D01*
X3288515Y-14838508D02*
X3307562Y-14828984D01*
X3498039Y-14828984D02*
X3517086Y-14828984D01*
X3517086Y-14828984D02*
X3536134Y-14838508D01*
X3536134Y-14838508D02*
X3545658Y-14848031D01*
X3545658Y-14848031D02*
X3555182Y-14867079D01*
X3555182Y-14867079D02*
X3564705Y-14905174D01*
X3564705Y-14905174D02*
X3564705Y-14952793D01*
X3564705Y-14952793D02*
X3555182Y-14990888D01*
X3555182Y-14990888D02*
X3545658Y-15009936D01*
X3545658Y-15009936D02*
X3536134Y-15019460D01*
X3536134Y-15019460D02*
X3517086Y-15028984D01*
X3517086Y-15028984D02*
X3498039Y-15028984D01*
X3498039Y-15028984D02*
X3478991Y-15019460D01*
X3478991Y-15019460D02*
X3469467Y-15009936D01*
X3469467Y-15009936D02*
X3459943Y-14990888D01*
X3459943Y-14990888D02*
X3450420Y-14952793D01*
X3450420Y-14952793D02*
X3450420Y-14905174D01*
X3450420Y-14905174D02*
X3459943Y-14867079D01*
X3459943Y-14867079D02*
X3469467Y-14848031D01*
X3469467Y-14848031D02*
X3478991Y-14838508D01*
X3478991Y-14838508D02*
X3498039Y-14828984D01*
X3650420Y-15028984D02*
X3650420Y-14895650D01*
X3650420Y-14914698D02*
X3659943Y-14905174D01*
X3659943Y-14905174D02*
X3678991Y-14895650D01*
X3678991Y-14895650D02*
X3707563Y-14895650D01*
X3707563Y-14895650D02*
X3726610Y-14905174D01*
X3726610Y-14905174D02*
X3736134Y-14924222D01*
X3736134Y-14924222D02*
X3736134Y-15028984D01*
X3736134Y-14924222D02*
X3745658Y-14905174D01*
X3745658Y-14905174D02*
X3764705Y-14895650D01*
X3764705Y-14895650D02*
X3793277Y-14895650D01*
X3793277Y-14895650D02*
X3812324Y-14905174D01*
X3812324Y-14905174D02*
X3821848Y-14924222D01*
X3821848Y-14924222D02*
X3821848Y-15028984D01*
X3917086Y-15028984D02*
X3917086Y-14895650D01*
X3917086Y-14914698D02*
X3926610Y-14905174D01*
X3926610Y-14905174D02*
X3945658Y-14895650D01*
X3945658Y-14895650D02*
X3974229Y-14895650D01*
X3974229Y-14895650D02*
X3993277Y-14905174D01*
X3993277Y-14905174D02*
X4002801Y-14924222D01*
X4002801Y-14924222D02*
X4002801Y-15028984D01*
X4002801Y-14924222D02*
X4012324Y-14905174D01*
X4012324Y-14905174D02*
X4031372Y-14895650D01*
X4031372Y-14895650D02*
X4059943Y-14895650D01*
X4059943Y-14895650D02*
X4078991Y-14905174D01*
X4078991Y-14905174D02*
X4088515Y-14924222D01*
X4088515Y-14924222D02*
X4088515Y-15028984D01*
X4478991Y-14819460D02*
X4307563Y-15076603D01*
X4736134Y-14828984D02*
X4755182Y-14828984D01*
X4755182Y-14828984D02*
X4774229Y-14838508D01*
X4774229Y-14838508D02*
X4783753Y-14848031D01*
X4783753Y-14848031D02*
X4793277Y-14867079D01*
X4793277Y-14867079D02*
X4802801Y-14905174D01*
X4802801Y-14905174D02*
X4802801Y-14952793D01*
X4802801Y-14952793D02*
X4793277Y-14990888D01*
X4793277Y-14990888D02*
X4783753Y-15009936D01*
X4783753Y-15009936D02*
X4774229Y-15019460D01*
X4774229Y-15019460D02*
X4755182Y-15028984D01*
X4755182Y-15028984D02*
X4736134Y-15028984D01*
X4736134Y-15028984D02*
X4717087Y-15019460D01*
X4717087Y-15019460D02*
X4707563Y-15009936D01*
X4707563Y-15009936D02*
X4698039Y-14990888D01*
X4698039Y-14990888D02*
X4688515Y-14952793D01*
X4688515Y-14952793D02*
X4688515Y-14905174D01*
X4688515Y-14905174D02*
X4698039Y-14867079D01*
X4698039Y-14867079D02*
X4707563Y-14848031D01*
X4707563Y-14848031D02*
X4717087Y-14838508D01*
X4717087Y-14838508D02*
X4736134Y-14828984D01*
X4888515Y-15009936D02*
X4898039Y-15019460D01*
X4898039Y-15019460D02*
X4888515Y-15028984D01*
X4888515Y-15028984D02*
X4878991Y-15019460D01*
X4878991Y-15019460D02*
X4888515Y-15009936D01*
X4888515Y-15009936D02*
X4888515Y-15028984D01*
X5021848Y-14828984D02*
X5040896Y-14828984D01*
X5040896Y-14828984D02*
X5059944Y-14838508D01*
X5059944Y-14838508D02*
X5069468Y-14848031D01*
X5069468Y-14848031D02*
X5078991Y-14867079D01*
X5078991Y-14867079D02*
X5088515Y-14905174D01*
X5088515Y-14905174D02*
X5088515Y-14952793D01*
X5088515Y-14952793D02*
X5078991Y-14990888D01*
X5078991Y-14990888D02*
X5069468Y-15009936D01*
X5069468Y-15009936D02*
X5059944Y-15019460D01*
X5059944Y-15019460D02*
X5040896Y-15028984D01*
X5040896Y-15028984D02*
X5021848Y-15028984D01*
X5021848Y-15028984D02*
X5002801Y-15019460D01*
X5002801Y-15019460D02*
X4993277Y-15009936D01*
X4993277Y-15009936D02*
X4983753Y-14990888D01*
X4983753Y-14990888D02*
X4974229Y-14952793D01*
X4974229Y-14952793D02*
X4974229Y-14905174D01*
X4974229Y-14905174D02*
X4983753Y-14867079D01*
X4983753Y-14867079D02*
X4993277Y-14848031D01*
X4993277Y-14848031D02*
X5002801Y-14838508D01*
X5002801Y-14838508D02*
X5021848Y-14828984D01*
X5259944Y-14828984D02*
X5221848Y-14828984D01*
X5221848Y-14828984D02*
X5202801Y-14838508D01*
X5202801Y-14838508D02*
X5193277Y-14848031D01*
X5193277Y-14848031D02*
X5174229Y-14876603D01*
X5174229Y-14876603D02*
X5164706Y-14914698D01*
X5164706Y-14914698D02*
X5164706Y-14990888D01*
X5164706Y-14990888D02*
X5174229Y-15009936D01*
X5174229Y-15009936D02*
X5183753Y-15019460D01*
X5183753Y-15019460D02*
X5202801Y-15028984D01*
X5202801Y-15028984D02*
X5240896Y-15028984D01*
X5240896Y-15028984D02*
X5259944Y-15019460D01*
X5259944Y-15019460D02*
X5269468Y-15009936D01*
X5269468Y-15009936D02*
X5278991Y-14990888D01*
X5278991Y-14990888D02*
X5278991Y-14943269D01*
X5278991Y-14943269D02*
X5269468Y-14924222D01*
X5269468Y-14924222D02*
X5259944Y-14914698D01*
X5259944Y-14914698D02*
X5240896Y-14905174D01*
X5240896Y-14905174D02*
X5202801Y-14905174D01*
X5202801Y-14905174D02*
X5183753Y-14914698D01*
X5183753Y-14914698D02*
X5174229Y-14924222D01*
X5174229Y-14924222D02*
X5164706Y-14943269D01*
X5450420Y-14828984D02*
X5412325Y-14828984D01*
X5412325Y-14828984D02*
X5393277Y-14838508D01*
X5393277Y-14838508D02*
X5383753Y-14848031D01*
X5383753Y-14848031D02*
X5364706Y-14876603D01*
X5364706Y-14876603D02*
X5355182Y-14914698D01*
X5355182Y-14914698D02*
X5355182Y-14990888D01*
X5355182Y-14990888D02*
X5364706Y-15009936D01*
X5364706Y-15009936D02*
X5374229Y-15019460D01*
X5374229Y-15019460D02*
X5393277Y-15028984D01*
X5393277Y-15028984D02*
X5431372Y-15028984D01*
X5431372Y-15028984D02*
X5450420Y-15019460D01*
X5450420Y-15019460D02*
X5459944Y-15009936D01*
X5459944Y-15009936D02*
X5469468Y-14990888D01*
X5469468Y-14990888D02*
X5469468Y-14943269D01*
X5469468Y-14943269D02*
X5459944Y-14924222D01*
X5459944Y-14924222D02*
X5450420Y-14914698D01*
X5450420Y-14914698D02*
X5431372Y-14905174D01*
X5431372Y-14905174D02*
X5393277Y-14905174D01*
X5393277Y-14905174D02*
X5374229Y-14914698D01*
X5374229Y-14914698D02*
X5364706Y-14924222D01*
X5364706Y-14924222D02*
X5355182Y-14943269D01*
X5564706Y-15028984D02*
X5602801Y-15028984D01*
X5602801Y-15028984D02*
X5621848Y-15019460D01*
X5621848Y-15019460D02*
X5631372Y-15009936D01*
X5631372Y-15009936D02*
X5650420Y-14981365D01*
X5650420Y-14981365D02*
X5659944Y-14943269D01*
X5659944Y-14943269D02*
X5659944Y-14867079D01*
X5659944Y-14867079D02*
X5650420Y-14848031D01*
X5650420Y-14848031D02*
X5640896Y-14838508D01*
X5640896Y-14838508D02*
X5621848Y-14828984D01*
X5621848Y-14828984D02*
X5583753Y-14828984D01*
X5583753Y-14828984D02*
X5564706Y-14838508D01*
X5564706Y-14838508D02*
X5555182Y-14848031D01*
X5555182Y-14848031D02*
X5545658Y-14867079D01*
X5545658Y-14867079D02*
X5545658Y-14914698D01*
X5545658Y-14914698D02*
X5555182Y-14933746D01*
X5555182Y-14933746D02*
X5564706Y-14943269D01*
X5564706Y-14943269D02*
X5583753Y-14952793D01*
X5583753Y-14952793D02*
X5621848Y-14952793D01*
X5621848Y-14952793D02*
X5640896Y-14943269D01*
X5640896Y-14943269D02*
X5650420Y-14933746D01*
X5650420Y-14933746D02*
X5659944Y-14914698D01*
X5736134Y-14828984D02*
X5736134Y-14867079D01*
X5812325Y-14828984D02*
X5812325Y-14867079D01*
X6107563Y-15105174D02*
X6098039Y-15095650D01*
X6098039Y-15095650D02*
X6078991Y-15067079D01*
X6078991Y-15067079D02*
X6069468Y-15048031D01*
X6069468Y-15048031D02*
X6059944Y-15019460D01*
X6059944Y-15019460D02*
X6050420Y-14971841D01*
X6050420Y-14971841D02*
X6050420Y-14933746D01*
X6050420Y-14933746D02*
X6059944Y-14886127D01*
X6059944Y-14886127D02*
X6069468Y-14857555D01*
X6069468Y-14857555D02*
X6078991Y-14838508D01*
X6078991Y-14838508D02*
X6098039Y-14809936D01*
X6098039Y-14809936D02*
X6107563Y-14800412D01*
X6269468Y-14895650D02*
X6269468Y-15028984D01*
X6221848Y-14819460D02*
X6174229Y-14962317D01*
X6174229Y-14962317D02*
X6298039Y-14962317D01*
X6526610Y-15028984D02*
X6526610Y-14828984D01*
X6612325Y-15028984D02*
X6612325Y-14924222D01*
X6612325Y-14924222D02*
X6602801Y-14905174D01*
X6602801Y-14905174D02*
X6583753Y-14895650D01*
X6583753Y-14895650D02*
X6555182Y-14895650D01*
X6555182Y-14895650D02*
X6536134Y-14905174D01*
X6536134Y-14905174D02*
X6526610Y-14914698D01*
X6736134Y-15028984D02*
X6717087Y-15019460D01*
X6717087Y-15019460D02*
X6707563Y-15009936D01*
X6707563Y-15009936D02*
X6698039Y-14990888D01*
X6698039Y-14990888D02*
X6698039Y-14933746D01*
X6698039Y-14933746D02*
X6707563Y-14914698D01*
X6707563Y-14914698D02*
X6717087Y-14905174D01*
X6717087Y-14905174D02*
X6736134Y-14895650D01*
X6736134Y-14895650D02*
X6764706Y-14895650D01*
X6764706Y-14895650D02*
X6783753Y-14905174D01*
X6783753Y-14905174D02*
X6793277Y-14914698D01*
X6793277Y-14914698D02*
X6802801Y-14933746D01*
X6802801Y-14933746D02*
X6802801Y-14990888D01*
X6802801Y-14990888D02*
X6793277Y-15009936D01*
X6793277Y-15009936D02*
X6783753Y-15019460D01*
X6783753Y-15019460D02*
X6764706Y-15028984D01*
X6764706Y-15028984D02*
X6736134Y-15028984D01*
X6917087Y-15028984D02*
X6898039Y-15019460D01*
X6898039Y-15019460D02*
X6888515Y-15000412D01*
X6888515Y-15000412D02*
X6888515Y-14828984D01*
X7069468Y-15019460D02*
X7050420Y-15028984D01*
X7050420Y-15028984D02*
X7012325Y-15028984D01*
X7012325Y-15028984D02*
X6993277Y-15019460D01*
X6993277Y-15019460D02*
X6983753Y-15000412D01*
X6983753Y-15000412D02*
X6983753Y-14924222D01*
X6983753Y-14924222D02*
X6993277Y-14905174D01*
X6993277Y-14905174D02*
X7012325Y-14895650D01*
X7012325Y-14895650D02*
X7050420Y-14895650D01*
X7050420Y-14895650D02*
X7069468Y-14905174D01*
X7069468Y-14905174D02*
X7078991Y-14924222D01*
X7078991Y-14924222D02*
X7078991Y-14943269D01*
X7078991Y-14943269D02*
X6983753Y-14962317D01*
X7155182Y-15019460D02*
X7174230Y-15028984D01*
X7174230Y-15028984D02*
X7212325Y-15028984D01*
X7212325Y-15028984D02*
X7231372Y-15019460D01*
X7231372Y-15019460D02*
X7240896Y-15000412D01*
X7240896Y-15000412D02*
X7240896Y-14990888D01*
X7240896Y-14990888D02*
X7231372Y-14971841D01*
X7231372Y-14971841D02*
X7212325Y-14962317D01*
X7212325Y-14962317D02*
X7183753Y-14962317D01*
X7183753Y-14962317D02*
X7164706Y-14952793D01*
X7164706Y-14952793D02*
X7155182Y-14933746D01*
X7155182Y-14933746D02*
X7155182Y-14924222D01*
X7155182Y-14924222D02*
X7164706Y-14905174D01*
X7164706Y-14905174D02*
X7183753Y-14895650D01*
X7183753Y-14895650D02*
X7212325Y-14895650D01*
X7212325Y-14895650D02*
X7231372Y-14905174D01*
X7307563Y-15105174D02*
X7317087Y-15095650D01*
X7317087Y-15095650D02*
X7336134Y-15067079D01*
X7336134Y-15067079D02*
X7345658Y-15048031D01*
X7345658Y-15048031D02*
X7355182Y-15019460D01*
X7355182Y-15019460D02*
X7364706Y-14971841D01*
X7364706Y-14971841D02*
X7364706Y-14933746D01*
X7364706Y-14933746D02*
X7355182Y-14886127D01*
X7355182Y-14886127D02*
X7345658Y-14857555D01*
X7345658Y-14857555D02*
X7336134Y-14838508D01*
X7336134Y-14838508D02*
X7317087Y-14809936D01*
X7317087Y-14809936D02*
X7307563Y-14800412D01*
D15*
X2352500Y-15137500D02*
X2532500Y-15317500D01*
X2532500Y-15137500D02*
X2352500Y-15317500D01*
X2506140Y-15291140D02*
X2506140Y-15163860D01*
X2378860Y-15163860D01*
X2378860Y-15291140D01*
X2506140Y-15291140D01*
D11*
X2898039Y-15318984D02*
X2783753Y-15318984D01*
X2840896Y-15318984D02*
X2840896Y-15118984D01*
X2840896Y-15118984D02*
X2821848Y-15147555D01*
X2821848Y-15147555D02*
X2802801Y-15166603D01*
X2802801Y-15166603D02*
X2783753Y-15176127D01*
X2983753Y-15299936D02*
X2993277Y-15309460D01*
X2993277Y-15309460D02*
X2983753Y-15318984D01*
X2983753Y-15318984D02*
X2974229Y-15309460D01*
X2974229Y-15309460D02*
X2983753Y-15299936D01*
X2983753Y-15299936D02*
X2983753Y-15318984D01*
X3107562Y-15204698D02*
X3088515Y-15195174D01*
X3088515Y-15195174D02*
X3078991Y-15185650D01*
X3078991Y-15185650D02*
X3069467Y-15166603D01*
X3069467Y-15166603D02*
X3069467Y-15157079D01*
X3069467Y-15157079D02*
X3078991Y-15138031D01*
X3078991Y-15138031D02*
X3088515Y-15128508D01*
X3088515Y-15128508D02*
X3107562Y-15118984D01*
X3107562Y-15118984D02*
X3145658Y-15118984D01*
X3145658Y-15118984D02*
X3164705Y-15128508D01*
X3164705Y-15128508D02*
X3174229Y-15138031D01*
X3174229Y-15138031D02*
X3183753Y-15157079D01*
X3183753Y-15157079D02*
X3183753Y-15166603D01*
X3183753Y-15166603D02*
X3174229Y-15185650D01*
X3174229Y-15185650D02*
X3164705Y-15195174D01*
X3164705Y-15195174D02*
X3145658Y-15204698D01*
X3145658Y-15204698D02*
X3107562Y-15204698D01*
X3107562Y-15204698D02*
X3088515Y-15214222D01*
X3088515Y-15214222D02*
X3078991Y-15223746D01*
X3078991Y-15223746D02*
X3069467Y-15242793D01*
X3069467Y-15242793D02*
X3069467Y-15280888D01*
X3069467Y-15280888D02*
X3078991Y-15299936D01*
X3078991Y-15299936D02*
X3088515Y-15309460D01*
X3088515Y-15309460D02*
X3107562Y-15318984D01*
X3107562Y-15318984D02*
X3145658Y-15318984D01*
X3145658Y-15318984D02*
X3164705Y-15309460D01*
X3164705Y-15309460D02*
X3174229Y-15299936D01*
X3174229Y-15299936D02*
X3183753Y-15280888D01*
X3183753Y-15280888D02*
X3183753Y-15242793D01*
X3183753Y-15242793D02*
X3174229Y-15223746D01*
X3174229Y-15223746D02*
X3164705Y-15214222D01*
X3164705Y-15214222D02*
X3145658Y-15204698D01*
X3307562Y-15118984D02*
X3326610Y-15118984D01*
X3326610Y-15118984D02*
X3345658Y-15128508D01*
X3345658Y-15128508D02*
X3355182Y-15138031D01*
X3355182Y-15138031D02*
X3364705Y-15157079D01*
X3364705Y-15157079D02*
X3374229Y-15195174D01*
X3374229Y-15195174D02*
X3374229Y-15242793D01*
X3374229Y-15242793D02*
X3364705Y-15280888D01*
X3364705Y-15280888D02*
X3355182Y-15299936D01*
X3355182Y-15299936D02*
X3345658Y-15309460D01*
X3345658Y-15309460D02*
X3326610Y-15318984D01*
X3326610Y-15318984D02*
X3307562Y-15318984D01*
X3307562Y-15318984D02*
X3288515Y-15309460D01*
X3288515Y-15309460D02*
X3278991Y-15299936D01*
X3278991Y-15299936D02*
X3269467Y-15280888D01*
X3269467Y-15280888D02*
X3259943Y-15242793D01*
X3259943Y-15242793D02*
X3259943Y-15195174D01*
X3259943Y-15195174D02*
X3269467Y-15157079D01*
X3269467Y-15157079D02*
X3278991Y-15138031D01*
X3278991Y-15138031D02*
X3288515Y-15128508D01*
X3288515Y-15128508D02*
X3307562Y-15118984D01*
X3498039Y-15118984D02*
X3517086Y-15118984D01*
X3517086Y-15118984D02*
X3536134Y-15128508D01*
X3536134Y-15128508D02*
X3545658Y-15138031D01*
X3545658Y-15138031D02*
X3555182Y-15157079D01*
X3555182Y-15157079D02*
X3564705Y-15195174D01*
X3564705Y-15195174D02*
X3564705Y-15242793D01*
X3564705Y-15242793D02*
X3555182Y-15280888D01*
X3555182Y-15280888D02*
X3545658Y-15299936D01*
X3545658Y-15299936D02*
X3536134Y-15309460D01*
X3536134Y-15309460D02*
X3517086Y-15318984D01*
X3517086Y-15318984D02*
X3498039Y-15318984D01*
X3498039Y-15318984D02*
X3478991Y-15309460D01*
X3478991Y-15309460D02*
X3469467Y-15299936D01*
X3469467Y-15299936D02*
X3459943Y-15280888D01*
X3459943Y-15280888D02*
X3450420Y-15242793D01*
X3450420Y-15242793D02*
X3450420Y-15195174D01*
X3450420Y-15195174D02*
X3459943Y-15157079D01*
X3459943Y-15157079D02*
X3469467Y-15138031D01*
X3469467Y-15138031D02*
X3478991Y-15128508D01*
X3478991Y-15128508D02*
X3498039Y-15118984D01*
X3650420Y-15318984D02*
X3650420Y-15185650D01*
X3650420Y-15204698D02*
X3659943Y-15195174D01*
X3659943Y-15195174D02*
X3678991Y-15185650D01*
X3678991Y-15185650D02*
X3707563Y-15185650D01*
X3707563Y-15185650D02*
X3726610Y-15195174D01*
X3726610Y-15195174D02*
X3736134Y-15214222D01*
X3736134Y-15214222D02*
X3736134Y-15318984D01*
X3736134Y-15214222D02*
X3745658Y-15195174D01*
X3745658Y-15195174D02*
X3764705Y-15185650D01*
X3764705Y-15185650D02*
X3793277Y-15185650D01*
X3793277Y-15185650D02*
X3812324Y-15195174D01*
X3812324Y-15195174D02*
X3821848Y-15214222D01*
X3821848Y-15214222D02*
X3821848Y-15318984D01*
X3917086Y-15318984D02*
X3917086Y-15185650D01*
X3917086Y-15204698D02*
X3926610Y-15195174D01*
X3926610Y-15195174D02*
X3945658Y-15185650D01*
X3945658Y-15185650D02*
X3974229Y-15185650D01*
X3974229Y-15185650D02*
X3993277Y-15195174D01*
X3993277Y-15195174D02*
X4002801Y-15214222D01*
X4002801Y-15214222D02*
X4002801Y-15318984D01*
X4002801Y-15214222D02*
X4012324Y-15195174D01*
X4012324Y-15195174D02*
X4031372Y-15185650D01*
X4031372Y-15185650D02*
X4059943Y-15185650D01*
X4059943Y-15185650D02*
X4078991Y-15195174D01*
X4078991Y-15195174D02*
X4088515Y-15214222D01*
X4088515Y-15214222D02*
X4088515Y-15318984D01*
X4478991Y-15109460D02*
X4307563Y-15366603D01*
X4736134Y-15118984D02*
X4755182Y-15118984D01*
X4755182Y-15118984D02*
X4774229Y-15128508D01*
X4774229Y-15128508D02*
X4783753Y-15138031D01*
X4783753Y-15138031D02*
X4793277Y-15157079D01*
X4793277Y-15157079D02*
X4802801Y-15195174D01*
X4802801Y-15195174D02*
X4802801Y-15242793D01*
X4802801Y-15242793D02*
X4793277Y-15280888D01*
X4793277Y-15280888D02*
X4783753Y-15299936D01*
X4783753Y-15299936D02*
X4774229Y-15309460D01*
X4774229Y-15309460D02*
X4755182Y-15318984D01*
X4755182Y-15318984D02*
X4736134Y-15318984D01*
X4736134Y-15318984D02*
X4717087Y-15309460D01*
X4717087Y-15309460D02*
X4707563Y-15299936D01*
X4707563Y-15299936D02*
X4698039Y-15280888D01*
X4698039Y-15280888D02*
X4688515Y-15242793D01*
X4688515Y-15242793D02*
X4688515Y-15195174D01*
X4688515Y-15195174D02*
X4698039Y-15157079D01*
X4698039Y-15157079D02*
X4707563Y-15138031D01*
X4707563Y-15138031D02*
X4717087Y-15128508D01*
X4717087Y-15128508D02*
X4736134Y-15118984D01*
X4888515Y-15299936D02*
X4898039Y-15309460D01*
X4898039Y-15309460D02*
X4888515Y-15318984D01*
X4888515Y-15318984D02*
X4878991Y-15309460D01*
X4878991Y-15309460D02*
X4888515Y-15299936D01*
X4888515Y-15299936D02*
X4888515Y-15318984D01*
X5021848Y-15118984D02*
X5040896Y-15118984D01*
X5040896Y-15118984D02*
X5059944Y-15128508D01*
X5059944Y-15128508D02*
X5069468Y-15138031D01*
X5069468Y-15138031D02*
X5078991Y-15157079D01*
X5078991Y-15157079D02*
X5088515Y-15195174D01*
X5088515Y-15195174D02*
X5088515Y-15242793D01*
X5088515Y-15242793D02*
X5078991Y-15280888D01*
X5078991Y-15280888D02*
X5069468Y-15299936D01*
X5069468Y-15299936D02*
X5059944Y-15309460D01*
X5059944Y-15309460D02*
X5040896Y-15318984D01*
X5040896Y-15318984D02*
X5021848Y-15318984D01*
X5021848Y-15318984D02*
X5002801Y-15309460D01*
X5002801Y-15309460D02*
X4993277Y-15299936D01*
X4993277Y-15299936D02*
X4983753Y-15280888D01*
X4983753Y-15280888D02*
X4974229Y-15242793D01*
X4974229Y-15242793D02*
X4974229Y-15195174D01*
X4974229Y-15195174D02*
X4983753Y-15157079D01*
X4983753Y-15157079D02*
X4993277Y-15138031D01*
X4993277Y-15138031D02*
X5002801Y-15128508D01*
X5002801Y-15128508D02*
X5021848Y-15118984D01*
X5155182Y-15118984D02*
X5288515Y-15118984D01*
X5288515Y-15118984D02*
X5202801Y-15318984D01*
X5402801Y-15118984D02*
X5421849Y-15118984D01*
X5421849Y-15118984D02*
X5440896Y-15128508D01*
X5440896Y-15128508D02*
X5450420Y-15138031D01*
X5450420Y-15138031D02*
X5459944Y-15157079D01*
X5459944Y-15157079D02*
X5469468Y-15195174D01*
X5469468Y-15195174D02*
X5469468Y-15242793D01*
X5469468Y-15242793D02*
X5459944Y-15280888D01*
X5459944Y-15280888D02*
X5450420Y-15299936D01*
X5450420Y-15299936D02*
X5440896Y-15309460D01*
X5440896Y-15309460D02*
X5421849Y-15318984D01*
X5421849Y-15318984D02*
X5402801Y-15318984D01*
X5402801Y-15318984D02*
X5383753Y-15309460D01*
X5383753Y-15309460D02*
X5374229Y-15299936D01*
X5374229Y-15299936D02*
X5364706Y-15280888D01*
X5364706Y-15280888D02*
X5355182Y-15242793D01*
X5355182Y-15242793D02*
X5355182Y-15195174D01*
X5355182Y-15195174D02*
X5364706Y-15157079D01*
X5364706Y-15157079D02*
X5374229Y-15138031D01*
X5374229Y-15138031D02*
X5383753Y-15128508D01*
X5383753Y-15128508D02*
X5402801Y-15118984D01*
X5564706Y-15318984D02*
X5602801Y-15318984D01*
X5602801Y-15318984D02*
X5621848Y-15309460D01*
X5621848Y-15309460D02*
X5631372Y-15299936D01*
X5631372Y-15299936D02*
X5650420Y-15271365D01*
X5650420Y-15271365D02*
X5659944Y-15233269D01*
X5659944Y-15233269D02*
X5659944Y-15157079D01*
X5659944Y-15157079D02*
X5650420Y-15138031D01*
X5650420Y-15138031D02*
X5640896Y-15128508D01*
X5640896Y-15128508D02*
X5621848Y-15118984D01*
X5621848Y-15118984D02*
X5583753Y-15118984D01*
X5583753Y-15118984D02*
X5564706Y-15128508D01*
X5564706Y-15128508D02*
X5555182Y-15138031D01*
X5555182Y-15138031D02*
X5545658Y-15157079D01*
X5545658Y-15157079D02*
X5545658Y-15204698D01*
X5545658Y-15204698D02*
X5555182Y-15223746D01*
X5555182Y-15223746D02*
X5564706Y-15233269D01*
X5564706Y-15233269D02*
X5583753Y-15242793D01*
X5583753Y-15242793D02*
X5621848Y-15242793D01*
X5621848Y-15242793D02*
X5640896Y-15233269D01*
X5640896Y-15233269D02*
X5650420Y-15223746D01*
X5650420Y-15223746D02*
X5659944Y-15204698D01*
X5736134Y-15118984D02*
X5736134Y-15157079D01*
X5812325Y-15118984D02*
X5812325Y-15157079D01*
X6107563Y-15395174D02*
X6098039Y-15385650D01*
X6098039Y-15385650D02*
X6078991Y-15357079D01*
X6078991Y-15357079D02*
X6069468Y-15338031D01*
X6069468Y-15338031D02*
X6059944Y-15309460D01*
X6059944Y-15309460D02*
X6050420Y-15261841D01*
X6050420Y-15261841D02*
X6050420Y-15223746D01*
X6050420Y-15223746D02*
X6059944Y-15176127D01*
X6059944Y-15176127D02*
X6069468Y-15147555D01*
X6069468Y-15147555D02*
X6078991Y-15128508D01*
X6078991Y-15128508D02*
X6098039Y-15099936D01*
X6098039Y-15099936D02*
X6107563Y-15090412D01*
X6174229Y-15138031D02*
X6183753Y-15128508D01*
X6183753Y-15128508D02*
X6202801Y-15118984D01*
X6202801Y-15118984D02*
X6250420Y-15118984D01*
X6250420Y-15118984D02*
X6269468Y-15128508D01*
X6269468Y-15128508D02*
X6278991Y-15138031D01*
X6278991Y-15138031D02*
X6288515Y-15157079D01*
X6288515Y-15157079D02*
X6288515Y-15176127D01*
X6288515Y-15176127D02*
X6278991Y-15204698D01*
X6278991Y-15204698D02*
X6164706Y-15318984D01*
X6164706Y-15318984D02*
X6288515Y-15318984D01*
X6526610Y-15318984D02*
X6526610Y-15118984D01*
X6612325Y-15318984D02*
X6612325Y-15214222D01*
X6612325Y-15214222D02*
X6602801Y-15195174D01*
X6602801Y-15195174D02*
X6583753Y-15185650D01*
X6583753Y-15185650D02*
X6555182Y-15185650D01*
X6555182Y-15185650D02*
X6536134Y-15195174D01*
X6536134Y-15195174D02*
X6526610Y-15204698D01*
X6736134Y-15318984D02*
X6717087Y-15309460D01*
X6717087Y-15309460D02*
X6707563Y-15299936D01*
X6707563Y-15299936D02*
X6698039Y-15280888D01*
X6698039Y-15280888D02*
X6698039Y-15223746D01*
X6698039Y-15223746D02*
X6707563Y-15204698D01*
X6707563Y-15204698D02*
X6717087Y-15195174D01*
X6717087Y-15195174D02*
X6736134Y-15185650D01*
X6736134Y-15185650D02*
X6764706Y-15185650D01*
X6764706Y-15185650D02*
X6783753Y-15195174D01*
X6783753Y-15195174D02*
X6793277Y-15204698D01*
X6793277Y-15204698D02*
X6802801Y-15223746D01*
X6802801Y-15223746D02*
X6802801Y-15280888D01*
X6802801Y-15280888D02*
X6793277Y-15299936D01*
X6793277Y-15299936D02*
X6783753Y-15309460D01*
X6783753Y-15309460D02*
X6764706Y-15318984D01*
X6764706Y-15318984D02*
X6736134Y-15318984D01*
X6917087Y-15318984D02*
X6898039Y-15309460D01*
X6898039Y-15309460D02*
X6888515Y-15290412D01*
X6888515Y-15290412D02*
X6888515Y-15118984D01*
X7069468Y-15309460D02*
X7050420Y-15318984D01*
X7050420Y-15318984D02*
X7012325Y-15318984D01*
X7012325Y-15318984D02*
X6993277Y-15309460D01*
X6993277Y-15309460D02*
X6983753Y-15290412D01*
X6983753Y-15290412D02*
X6983753Y-15214222D01*
X6983753Y-15214222D02*
X6993277Y-15195174D01*
X6993277Y-15195174D02*
X7012325Y-15185650D01*
X7012325Y-15185650D02*
X7050420Y-15185650D01*
X7050420Y-15185650D02*
X7069468Y-15195174D01*
X7069468Y-15195174D02*
X7078991Y-15214222D01*
X7078991Y-15214222D02*
X7078991Y-15233269D01*
X7078991Y-15233269D02*
X6983753Y-15252317D01*
X7155182Y-15309460D02*
X7174230Y-15318984D01*
X7174230Y-15318984D02*
X7212325Y-15318984D01*
X7212325Y-15318984D02*
X7231372Y-15309460D01*
X7231372Y-15309460D02*
X7240896Y-15290412D01*
X7240896Y-15290412D02*
X7240896Y-15280888D01*
X7240896Y-15280888D02*
X7231372Y-15261841D01*
X7231372Y-15261841D02*
X7212325Y-15252317D01*
X7212325Y-15252317D02*
X7183753Y-15252317D01*
X7183753Y-15252317D02*
X7164706Y-15242793D01*
X7164706Y-15242793D02*
X7155182Y-15223746D01*
X7155182Y-15223746D02*
X7155182Y-15214222D01*
X7155182Y-15214222D02*
X7164706Y-15195174D01*
X7164706Y-15195174D02*
X7183753Y-15185650D01*
X7183753Y-15185650D02*
X7212325Y-15185650D01*
X7212325Y-15185650D02*
X7231372Y-15195174D01*
X7307563Y-15395174D02*
X7317087Y-15385650D01*
X7317087Y-15385650D02*
X7336134Y-15357079D01*
X7336134Y-15357079D02*
X7345658Y-15338031D01*
X7345658Y-15338031D02*
X7355182Y-15309460D01*
X7355182Y-15309460D02*
X7364706Y-15261841D01*
X7364706Y-15261841D02*
X7364706Y-15223746D01*
X7364706Y-15223746D02*
X7355182Y-15176127D01*
X7355182Y-15176127D02*
X7345658Y-15147555D01*
X7345658Y-15147555D02*
X7336134Y-15128508D01*
X7336134Y-15128508D02*
X7317087Y-15099936D01*
X7317087Y-15099936D02*
X7307563Y-15090412D01*
M02*
