M48
; DRILL file {KiCad 7.0.9} date Mon Nov 27 13:54:55 2023
; FORMAT={-:-/ absolute / metric / decimal}
; #@! TF.CreationDate,2023-11-27T13:54:55+01:00
; #@! TF.GenerationSoftware,Kicad,Pcbnew,7.0.9
; #@! TF.FileFunction,Plated,1,4,PTH
FMAT,2
METRIC
; #@! TA.AperFunction,Plated,PTH,ViaDrill
T1C0.400
; #@! TA.AperFunction,Plated,PTH,ComponentDrill
T2C0.680
; #@! TA.AperFunction,Plated,PTH,ComponentDrill
T3C0.800
; #@! TA.AperFunction,Plated,PTH,ComponentDrill
T4C1.000
; #@! TA.AperFunction,Plated,PTH,ComponentDrill
T5C1.100
; #@! TA.AperFunction,Plated,PTH,ComponentDrill
T6C1.500
; #@! TA.AperFunction,Plated,PTH,ComponentDrill
T7C1.700
; #@! TA.AperFunction,Plated,PTH,ComponentDrill
T8C1.800
%
G90
G05
T1
X26.416Y-32.766
X26.416Y-36.83
X27.229Y-113.284
X27.432Y-34.798
X27.737Y-103.276
X27.838Y-48.311
X27.838Y-52.629
X27.889Y-43.79
X28.143Y-119.837
X28.143Y-124.917
X28.448Y-36.83
X28.702Y-32.766
X28.956Y-51.918
X29.21Y-42.164
X29.718Y-34.798
X30.074Y-51.918
X30.226Y-42.164
X30.373Y-107.824
X30.378Y-56.693
X30.378Y-114.402
X30.404Y-106.451
X30.48Y-32.766
X30.48Y-36.83
X30.48Y-38.862
X30.574Y-92.136
X30.675Y-98.69
X30.988Y-46.177
X31.09Y-59.08
X31.138Y-57.66
X31.344Y-88.544
X31.344Y-102.362
X31.496Y-34.798
X32.231Y-59.667
X32.512Y-32.766
X32.512Y-36.83
X32.512Y-38.862
X32.563Y-60.858
X32.805Y-97.291
X32.809Y-94.118
X33.172Y-57.556
X33.528Y-34.798
X34.087Y-113.944
X34.239Y-53.188
X34.442Y-43.891
X34.442Y-48.311
X34.544Y-36.83
X34.544Y-38.862
X35.146Y-91.171
X35.4Y-98.588
X35.56Y-104.343
X35.56Y-111.455
X35.984Y-94.886
X35.984Y-95.889
X36.576Y-32.766
X36.576Y-36.83
X36.576Y-38.862
X36.64Y-94.128
X36.64Y-96.647
X36.678Y-43.891
X37.44Y-49.936
X37.592Y-34.798
X37.592Y-40.894
X37.72Y-103.493
X37.72Y-105.308
X37.72Y-110.49
X37.72Y-112.37
X37.846Y-53.442
X38.1Y-108.763
X38.608Y-32.766
X38.608Y-36.83
X38.608Y-38.862
X39.093Y-82.392
X39.319Y-70.51
X39.421Y-88.494
X39.45Y-68.267
X39.522Y-61.57
X39.624Y-34.798
X39.624Y-40.894
X39.929Y-103.378
X39.929Y-104.343
X39.929Y-105.308
X39.929Y-110.49
X39.929Y-111.455
X39.98Y-79.451
X40.02Y-55.537
X40.02Y-64.427
X40.02Y-73.317
X40.234Y-70.51
X40.386Y-89.459
X40.742Y-45.517
X40.843Y-119.837
X40.843Y-124.917
X40.945Y-53.34
X41.075Y-95.388
X42.113Y-100.787
X42.164Y-81.788
X42.215Y-105.562
X42.672Y-109.83
X42.824Y-78.588
X42.824Y-91.999
X42.875Y-94.285
X42.875Y-96.469
X42.977Y-110.82
X43.536Y-39.37
X43.536Y-47.041
X44.204Y-51.089
X44.247Y-85.598
X44.856Y-94.285
X44.958Y-96.469
X45.161Y-84.684
X45.212Y-104.953
X45.314Y-100.787
X45.415Y-91.084
X45.872Y-51.003
X45.923Y-109.55
X46.076Y-81.788
X46.228Y-86.36
X46.38Y-94.285
X47.193Y-85.344
X47.45Y-51.738
X48.057Y-113.431
X48.108Y-95.91
X48.108Y-98.806
X48.209Y-107.137
X48.311Y-40.488
X48.666Y-35.458
X48.971Y-103.988
X50.749Y-112.132
X50.851Y-100.889
X51.308Y-78.334
X51.359Y-89.357
X52.324Y-114.656
X52.781Y-79.858
X52.984Y-91.034
X53.238Y-76.403
X53.289Y-44.196
X53.543Y-119.837
X53.543Y-124.917
X53.66Y-114.67
X54.458Y-92.507
X54.915Y-77.775
X55.423Y-43.79
X56.439Y-43.79
X56.591Y-106.299
X56.794Y-84.023
X56.947Y-95.707
X58.471Y-42.926
X58.674Y-39.933
X58.928Y-103.073
X59.436Y-46.228
X59.588Y-88.391
X59.639Y-85.7
X59.69Y-97.942
X59.741Y-89.306
X60.147Y-77.064
X60.3Y-101.498
X60.503Y-104.648
X60.706Y-98.857
X60.706Y-99.822
X61.722Y-103.022
X61.722Y-105.867
X61.824Y-42.774
X61.824Y-107.95
X61.976Y-86.512
X62.203Y-87.657
X62.332Y-36.017
X62.457Y-90.327
X62.586Y-100.33
X63.166Y-94.042
X63.396Y-96.979
X63.398Y-86.411
X63.398Y-96.063
X63.398Y-97.942
X63.5Y-104.851
X63.906Y-83.035
X64.008Y-87.173
X64.11Y-27.026
X64.11Y-95.453
X64.211Y-32.055
X64.414Y-105.613
X65.278Y-104.8
X66.167Y-112.522
X66.243Y-119.837
X66.243Y-124.917
X66.396Y-45.974
X66.548Y-76.077
X66.548Y-76.977
X66.548Y-77.876
X66.7Y-81.94
X66.775Y-94.426
X66.802Y-101.041
X66.847Y-90.887
X66.853Y-104.038
X66.898Y-88.466
X67.056Y-82.702
X67.056Y-83.566
X67.056Y-97.993
X67.107Y-100.178
X67.666Y-91.592
X67.666Y-109.068
X67.716Y-104.445
X67.816Y-94.435
X68.021Y-76.911
X68.174Y-89.803
X68.224Y-36.17
X68.478Y-83.922
X68.681Y-77.628
X68.682Y-91.643
X68.691Y-78.528
X68.732Y-94.437
X69.038Y-90.068
X69.17Y-74.594
X69.342Y-82.906
X69.504Y-86.778
X69.698Y-94.437
X69.85Y-31.801
X69.996Y-90.062
X70.104Y-46.076
X70.155Y-27.026
X70.394Y-88.018
X70.51Y-99.495
X70.663Y-36.17
X70.718Y-89.412
X70.917Y-90.881
X70.968Y-77.216
X71.12Y-110.592
X71.501Y-83.185
X71.577Y-100.404
X71.577Y-99.505
X71.593Y-101.304
X71.679Y-97.841
X71.71Y-74.594
X72.085Y-112.419
X72.39Y-82.652
X72.492Y-76.962
X72.593Y-101.295
X72.644Y-83.922
X72.847Y-111.049
X73.203Y-36.17
X73.203Y-46.076
X73.287Y-74.439
X73.406Y-82.804
X73.406Y-94.742
X73.457Y-97.18
X73.457Y-101.041
X73.515Y-78.595
X73.609Y-90.678
X73.863Y-79.502
X74.614Y-73.403
X74.892Y-61.547
X74.985Y-78.786
X75.032Y-107.34
X75.032Y-108.255
X75.032Y-109.169
X75.032Y-110.084
X75.082Y-105.359
X75.251Y-104.445
X75.387Y-95.504
X75.405Y-100.392
X75.438Y-83.058
X75.438Y-97.841
X75.541Y-67.97
X75.641Y-114.402
X75.692Y-36.119
X75.997Y-27.026
X75.997Y-31.394
X75.997Y-111.557
X76.167Y-99.63
X76.285Y-78.689
X76.345Y-83.742
X76.454Y-59.817
X76.657Y-43.078
X76.708Y-91.135
X76.95Y-79.451
X76.991Y-85.552
X77.064Y-65.532
X77.165Y-112.928
X77.216Y-53.67
X77.216Y-96.164
X77.372Y-82.454
X77.521Y-101.346
X77.622Y-105.105
X77.959Y-59.057
X78.04Y-86.612
X78.08Y-97.028
X78.283Y-83.82
X78.435Y-96.215
X78.435Y-101.346
X78.689Y-97.841
X78.842Y-51.791
X78.892Y-110.998
X78.943Y-119.837
X78.943Y-124.917
X79.045Y-103.937
X79.312Y-83.427
X79.375Y-56.642
X79.451Y-101.346
X79.502Y-37.135
X79.553Y-90.576
X79.654Y-74.879
X79.959Y-86.614
X79.96Y-67.412
X80.01Y-112.217
X80.467Y-101.361
X80.467Y-107.848
X80.772Y-73.66
X80.874Y-43.18
X81.053Y-82.68
X81.077Y-64.16
X81.128Y-110.998
X81.229Y-79.959
X81.25Y-77.47
X81.382Y-98.806
X81.49Y-101.361
X81.781Y-89.191
X82.071Y-68.145
X82.144Y-53.899
X82.296Y-47.498
X82.51Y-83.515
X82.55Y-96.053
X82.563Y-82.606
X82.601Y-111.455
X82.855Y-41.351
X82.906Y-62.23
X82.906Y-112.838
X82.954Y-106.018
X83.099Y-79.604
X83.312Y-72.471
X83.41Y-82.91
X83.464Y-38.252
X83.718Y-112.319
X83.82Y-86.614
X84.111Y-98.541
X84.226Y-70.256
X84.328Y-82.909
X84.615Y-90.424
X84.623Y-92.394
X84.684Y-94.64
X84.684Y-95.555
X84.734Y-101.143
X84.887Y-87.63
X85.01Y-84.328
X85.012Y-36.496
X85.039Y-96.531
X85.141Y-97.852
X85.192Y-103.886
X85.24Y-45.874
X85.293Y-59.792
X85.344Y-91.186
X85.413Y-89.085
X85.422Y-105.387
X85.496Y-83.058
X85.547Y-93.324
X85.75Y-62.433
X85.75Y-70.307
X85.75Y-81.178
X85.75Y-101.803
X86.004Y-45.263
X86.106Y-72.187
X86.106Y-110.592
X86.743Y-76.023
X86.766Y-101.792
X86.868Y-79.451
X86.868Y-82.398
X87.071Y-102.921
X87.173Y-45.263
X87.198Y-39.929
X87.681Y-104.445
X87.833Y-59.68
X87.833Y-76.657
X87.884Y-62.433
X88.087Y-110.541
X88.104Y-93.98
X88.144Y-85.345
X88.149Y-92.202
X88.24Y-83.096
X88.24Y-83.995
X88.24Y-90.373
X88.24Y-97.841
X88.29Y-60.554
X88.494Y-48.209
X88.667Y-86.137
X88.798Y-34.9
X88.951Y-77.876
X89.052Y-59.182
X89.052Y-75.133
X89.254Y-56.03
X89.713Y-99.466
X89.967Y-94.59
X90.07Y-84.836
X90.119Y-55.27
X90.221Y-113.132
X90.78Y-99.466
X90.83Y-57.861
X91.034Y-62.433
X91.084Y-77.013
X91.36Y-93.116
X91.553Y-48.291
X91.643Y-119.837
X91.643Y-124.917
X91.796Y-111.049
X91.948Y-100.33
X92.659Y-53.289
X92.659Y-55.22
X92.761Y-105.664
X93.116Y-90.729
X93.32Y-36.525
X93.32Y-51.841
X94.412Y-53.264
X94.64Y-75.387
X94.642Y-92.961
X94.642Y-94.993
X94.891Y-109.728
X95.021Y-50.292
X95.551Y-29.616
X95.606Y-118.008
X95.707Y-49.225
X95.961Y-28.753
X96.672Y-38.608
X96.672Y-41.148
X96.725Y-111.76
X96.774Y-46.584
X96.876Y-55.22
X96.901Y-123.444
X96.977Y-58.928
X97.13Y-98.579
X97.18Y-77.572
X98.095Y-26.924
X98.171Y-123.444
X98.247Y-75.438
X98.908Y-104.089
X98.908Y-105.867
X99.263Y-112.765
X99.822Y-101.092
X99.822Y-102.108
X99.871Y-97.92
X99.924Y-121.768
X100.076Y-44.755
X100.584Y-112.751
X100.686Y-29.616
X100.686Y-105.867
X100.787Y-118.008
X100.94Y-94.285
X100.94Y-95.555
X101.473Y-101.092
X101.733Y-112.19
X101.905Y-107.086
X101.956Y-95.555
X101.961Y-39.579
X102.616Y-118.364
X102.667Y-26.924
X103.124Y-95.352
X103.147Y-115.756
X103.429Y-57.912
X104.394Y-112.168
X104.445Y-77.622
X105.258Y-29.566
X105.258Y-44.348
X105.359Y-117.094
X106.324Y-44.348
X106.426Y-112.141
X106.629Y-97.739
X107.188Y-108.509
X107.239Y-26.924
X107.442Y-115.367
X107.544Y-60.388
X108.661Y-65.43
X108.661Y-71.78
X108.661Y-78.435
X108.966Y-38.303
X109.525Y-117.094
X109.779Y-43.637
X109.931Y-108.407
X110.388Y-88.087
X110.439Y-84.887
X110.439Y-95.402
X110.439Y-98.603
X110.49Y-104.953
X110.49Y-112.141
X110.846Y-32.106
X111.447Y-115.497
X111.455Y-87.528
X111.811Y-26.924
X112.141Y-40.005
X112.37Y-104.953
X112.471Y-95.402
X112.471Y-98.603
X112.522Y-46.228
X112.522Y-110.236
X112.776Y-49.022
X112.928Y-72.796
X113.132Y-44.094
X113.307Y-58.578
X113.307Y-67.468
X113.307Y-76.358
X113.307Y-85.248
X113.995Y-117.653
X114.173Y-40.132
X114.198Y-28.448
X114.198Y-30.988
X114.198Y-33.528
X114.198Y-36.068
X114.2Y-38.316
X114.605Y-50.952
X114.814Y-112.163
X115.214Y-108.052
X116.148Y-114.605
X116.383Y-88.087
X116.459Y-95.25
X116.484Y-98.679
X116.484Y-105.004
X116.586Y-110.236
X117.704Y-45.466
X117.704Y-46.99
X118.059Y-118.567
X118.567Y-105.004
X118.618Y-90.932
X118.618Y-112.141
X118.669Y-97.409
X118.77Y-87.579
X118.974Y-55.372
X119.075Y-108.001
X119.507Y-98.679
X119.532Y-95.25
X119.532Y-114.351
X119.99Y-45.466
X119.99Y-46.99
X121.276Y-108.337
X121.412Y-54.61
X121.412Y-59.69
X121.412Y-63.5
X121.412Y-68.58
X121.412Y-77.47
X121.412Y-81.28
X121.412Y-86.36
X121.463Y-72.39
X121.666Y-117.754
X121.768Y-95.25
X121.768Y-97.663
X122.174Y-108.458
X122.631Y-106.121
X122.682Y-112.141
X123.647Y-72.39
X123.647Y-114.351
X123.698Y-54.61
X123.698Y-59.69
X123.698Y-63.5
X123.698Y-68.58
X123.698Y-77.47
X123.698Y-81.28
X123.698Y-86.36
X123.8Y-95.25
X123.825Y-97.663
X124.714Y-109.931
X124.833Y-121.227
X124.866Y-114.554
X125.349Y-92.71
X125.349Y-94.107
X125.349Y-95.504
X125.349Y-97.028
T2
X91.44Y-86.968
X91.44Y-91.848
T3
X79.721Y-30.489
X83.221Y-30.489
X106.319Y-57.15
X108.819Y-57.15
T4
X33.02Y-116.332
X35.56Y-116.332
X36.125Y-54.595
X36.125Y-57.135
X36.125Y-59.675
X36.125Y-63.485
X36.125Y-66.025
X36.125Y-68.565
X36.125Y-72.375
X36.125Y-74.915
X36.125Y-77.455
X36.125Y-81.265
X36.125Y-83.805
X36.125Y-86.345
X38.1Y-116.332
X40.64Y-116.332
X43.18Y-116.332
X45.72Y-116.332
X49.515Y-116.275
X52.055Y-116.275
X54.595Y-116.275
X54.864Y-36.068
X55.077Y-71.323
X57.404Y-36.068
X58.405Y-116.275
X59.944Y-36.068
X60.945Y-116.275
X62.677Y-71.323
X63.485Y-116.275
X67.295Y-116.275
X69.835Y-116.275
X72.375Y-116.275
X74.915Y-116.275
X77.455Y-116.275
X79.995Y-116.275
X82.535Y-116.275
X85.075Y-116.275
X88.885Y-116.275
X91.425Y-116.275
X93.965Y-116.275
X103.378Y-119.888
X103.378Y-122.428
X103.378Y-124.968
X107.442Y-119.888
X107.442Y-122.428
X107.442Y-124.968
X111.506Y-119.888
X111.506Y-122.428
X111.506Y-124.968
X115.57Y-119.888
X115.57Y-122.428
X115.57Y-124.968
X116.275Y-54.625
X116.275Y-57.165
X116.275Y-59.705
X116.275Y-63.515
X116.275Y-66.055
X116.275Y-68.595
X116.275Y-72.405
X116.275Y-74.945
X116.275Y-77.485
X116.275Y-81.295
X116.275Y-83.835
X116.275Y-86.375
X119.634Y-119.888
X119.634Y-122.428
X119.634Y-124.968
X123.698Y-119.888
X123.698Y-122.428
X123.698Y-124.968
T5
X45.01Y-33.564
X45.01Y-38.064
X45.01Y-41.184
X45.01Y-45.684
X51.51Y-33.564
X51.51Y-38.064
X51.51Y-41.184
X51.51Y-45.684
X87.745Y-27.758
X87.745Y-32.258
X94.245Y-27.758
X94.245Y-32.258
T6
X121.412Y-46.228
T7
X118.872Y-43.688
X118.872Y-48.768
X123.952Y-43.688
X123.952Y-48.768
T8
X67.259Y-29.21
X72.259Y-29.21
T0
M30
