%TF.GenerationSoftware,KiCad,Pcbnew,7.0.9*%
%TF.CreationDate,2023-11-27T13:52:55+01:00*%
%TF.ProjectId,Avionus_Flight_Controller,4176696f-6e75-4735-9f46-6c696768745f,1.0*%
%TF.SameCoordinates,Original*%
%TF.FileFunction,Paste,Bot*%
%TF.FilePolarity,Positive*%
%FSLAX46Y46*%
G04 Gerber Fmt 4.6, Leading zero omitted, Abs format (unit mm)*
G04 Created by KiCad (PCBNEW 7.0.9) date 2023-11-27 13:52:55*
%MOMM*%
%LPD*%
G01*
G04 APERTURE LIST*
G04 Aperture macros list*
%AMRoundRect*
0 Rectangle with rounded corners*
0 $1 Rounding radius*
0 $2 $3 $4 $5 $6 $7 $8 $9 X,Y pos of 4 corners*
0 Add a 4 corners polygon primitive as box body*
4,1,4,$2,$3,$4,$5,$6,$7,$8,$9,$2,$3,0*
0 Add four circle primitives for the rounded corners*
1,1,$1+$1,$2,$3*
1,1,$1+$1,$4,$5*
1,1,$1+$1,$6,$7*
1,1,$1+$1,$8,$9*
0 Add four rect primitives between the rounded corners*
20,1,$1+$1,$2,$3,$4,$5,0*
20,1,$1+$1,$4,$5,$6,$7,0*
20,1,$1+$1,$6,$7,$8,$9,0*
20,1,$1+$1,$8,$9,$2,$3,0*%
G04 Aperture macros list end*
%ADD10RoundRect,0.250000X-0.262500X-0.450000X0.262500X-0.450000X0.262500X0.450000X-0.262500X0.450000X0*%
%ADD11RoundRect,0.150000X0.150000X-0.512500X0.150000X0.512500X-0.150000X0.512500X-0.150000X-0.512500X0*%
%ADD12RoundRect,0.225000X0.225000X0.250000X-0.225000X0.250000X-0.225000X-0.250000X0.225000X-0.250000X0*%
%ADD13RoundRect,0.250000X-0.615000X0.435000X-0.615000X-0.435000X0.615000X-0.435000X0.615000X0.435000X0*%
%ADD14RoundRect,0.125000X-0.125000X0.250000X-0.125000X-0.250000X0.125000X-0.250000X0.125000X0.250000X0*%
%ADD15RoundRect,0.225000X-0.250000X0.225000X-0.250000X-0.225000X0.250000X-0.225000X0.250000X0.225000X0*%
%ADD16RoundRect,0.150000X0.650000X0.150000X-0.650000X0.150000X-0.650000X-0.150000X0.650000X-0.150000X0*%
%ADD17RoundRect,0.250000X0.262500X0.450000X-0.262500X0.450000X-0.262500X-0.450000X0.262500X-0.450000X0*%
%ADD18RoundRect,0.150000X-0.512500X-0.150000X0.512500X-0.150000X0.512500X0.150000X-0.512500X0.150000X0*%
%ADD19RoundRect,0.200000X-0.275000X0.200000X-0.275000X-0.200000X0.275000X-0.200000X0.275000X0.200000X0*%
%ADD20RoundRect,0.225000X-0.225000X-0.250000X0.225000X-0.250000X0.225000X0.250000X-0.225000X0.250000X0*%
%ADD21RoundRect,0.225000X0.250000X-0.225000X0.250000X0.225000X-0.250000X0.225000X-0.250000X-0.225000X0*%
%ADD22RoundRect,0.250000X-0.375000X-0.625000X0.375000X-0.625000X0.375000X0.625000X-0.375000X0.625000X0*%
%ADD23RoundRect,0.250000X0.325000X0.650000X-0.325000X0.650000X-0.325000X-0.650000X0.325000X-0.650000X0*%
%ADD24RoundRect,0.200000X-0.200000X-0.275000X0.200000X-0.275000X0.200000X0.275000X-0.200000X0.275000X0*%
%ADD25R,0.600000X0.500000*%
%ADD26RoundRect,0.250000X0.450000X-0.262500X0.450000X0.262500X-0.450000X0.262500X-0.450000X-0.262500X0*%
%ADD27RoundRect,0.250000X0.475000X-0.250000X0.475000X0.250000X-0.475000X0.250000X-0.475000X-0.250000X0*%
%ADD28RoundRect,0.200000X0.200000X0.275000X-0.200000X0.275000X-0.200000X-0.275000X0.200000X-0.275000X0*%
%ADD29RoundRect,0.250000X-0.450000X0.262500X-0.450000X-0.262500X0.450000X-0.262500X0.450000X0.262500X0*%
%ADD30RoundRect,0.250000X-0.475000X0.250000X-0.475000X-0.250000X0.475000X-0.250000X0.475000X0.250000X0*%
%ADD31RoundRect,0.200000X0.275000X-0.200000X0.275000X0.200000X-0.275000X0.200000X-0.275000X-0.200000X0*%
%ADD32RoundRect,0.150000X-0.150000X0.512500X-0.150000X-0.512500X0.150000X-0.512500X0.150000X0.512500X0*%
%ADD33RoundRect,0.150000X0.512500X0.150000X-0.512500X0.150000X-0.512500X-0.150000X0.512500X-0.150000X0*%
%ADD34RoundRect,0.250000X-0.250000X-0.475000X0.250000X-0.475000X0.250000X0.475000X-0.250000X0.475000X0*%
%ADD35R,1.500000X1.000000*%
%ADD36R,2.000000X1.200000*%
%ADD37RoundRect,0.250000X0.435000X0.615000X-0.435000X0.615000X-0.435000X-0.615000X0.435000X-0.615000X0*%
%ADD38RoundRect,0.125000X0.250000X0.125000X-0.250000X0.125000X-0.250000X-0.125000X0.250000X-0.125000X0*%
%ADD39RoundRect,0.150000X-0.150000X0.650000X-0.150000X-0.650000X0.150000X-0.650000X0.150000X0.650000X0*%
G04 APERTURE END LIST*
D10*
%TO.C,R707*%
X93829500Y-90932000D03*
X95654500Y-90932000D03*
%TD*%
D11*
%TO.C,U1203*%
X40701000Y-71622500D03*
X39751000Y-71622500D03*
X38801000Y-71622500D03*
X38801000Y-69347500D03*
X39751000Y-69347500D03*
X40701000Y-69347500D03*
%TD*%
D12*
%TO.C,C222*%
X102380500Y-55438000D03*
X100830500Y-55438000D03*
%TD*%
D13*
%TO.C,U502*%
X82990000Y-90590000D03*
X80840000Y-90590000D03*
X82990000Y-92290000D03*
X80840000Y-92290000D03*
D14*
X80010000Y-88740000D03*
X81280000Y-88740000D03*
X82550000Y-88740000D03*
X83820000Y-88740000D03*
X83820000Y-94140000D03*
X82550000Y-94140000D03*
X81280000Y-94140000D03*
X80010000Y-94140000D03*
%TD*%
D12*
%TO.C,C501*%
X81039000Y-97028000D03*
X79489000Y-97028000D03*
%TD*%
D15*
%TO.C,C701*%
X95758000Y-102349000D03*
X95758000Y-103899000D03*
%TD*%
D16*
%TO.C,U601*%
X76244000Y-84709000D03*
X76244000Y-85979000D03*
X76244000Y-87249000D03*
X76244000Y-88519000D03*
X69044000Y-88519000D03*
X69044000Y-87249000D03*
X69044000Y-85979000D03*
X69044000Y-84709000D03*
%TD*%
D10*
%TO.C,R1304*%
X106275500Y-29591000D03*
X108100500Y-29591000D03*
%TD*%
D17*
%TO.C,R209*%
X108735500Y-37338000D03*
X106910500Y-37338000D03*
%TD*%
D12*
%TO.C,C225*%
X105428500Y-55438000D03*
X103878500Y-55438000D03*
%TD*%
D18*
%TO.C,U206*%
X108971500Y-40955000D03*
X108971500Y-40005000D03*
X108971500Y-39055000D03*
X111246500Y-39055000D03*
X111246500Y-40955000D03*
%TD*%
D10*
%TO.C,R702*%
X93829500Y-94996000D03*
X95654500Y-94996000D03*
%TD*%
%TO.C,R704*%
X93829500Y-109728000D03*
X95654500Y-109728000D03*
%TD*%
D19*
%TO.C,R211*%
X106807000Y-58738000D03*
X106807000Y-60388000D03*
%TD*%
D15*
%TO.C,C314*%
X88138000Y-86855000D03*
X88138000Y-88405000D03*
%TD*%
D20*
%TO.C,C310*%
X89141000Y-93726000D03*
X90691000Y-93726000D03*
%TD*%
D21*
%TO.C,C601*%
X67056000Y-86119000D03*
X67056000Y-84569000D03*
%TD*%
D22*
%TO.C,D1303*%
X105788000Y-27432000D03*
X108588000Y-27432000D03*
%TD*%
D10*
%TO.C,R1305*%
X110847500Y-29591000D03*
X112672500Y-29591000D03*
%TD*%
D23*
%TO.C,C317*%
X78183000Y-91186000D03*
X75233000Y-91186000D03*
%TD*%
D10*
%TO.C,R705*%
X93829500Y-111760000D03*
X95654500Y-111760000D03*
%TD*%
%TO.C,R1302*%
X97131500Y-29591000D03*
X98956500Y-29591000D03*
%TD*%
D24*
%TO.C,R802*%
X30078972Y-96657600D03*
X31728972Y-96657600D03*
%TD*%
D22*
%TO.C,D207*%
X109217000Y-35179000D03*
X112017000Y-35179000D03*
%TD*%
D25*
%TO.C,Q1301*%
X60168000Y-73144000D03*
X60168000Y-72144000D03*
X61468000Y-72644000D03*
%TD*%
D26*
%TO.C,R1510*%
X73406000Y-73810500D03*
X73406000Y-71985500D03*
%TD*%
D22*
%TO.C,D1301*%
X96644000Y-27432000D03*
X99444000Y-27432000D03*
%TD*%
D27*
%TO.C,C211*%
X107061000Y-40955000D03*
X107061000Y-39055000D03*
%TD*%
D22*
%TO.C,D1304*%
X110360000Y-27432000D03*
X113160000Y-27432000D03*
%TD*%
D26*
%TO.C,R1509*%
X70866000Y-73810500D03*
X70866000Y-71985500D03*
%TD*%
D10*
%TO.C,R1303*%
X101703500Y-29591000D03*
X103528500Y-29591000D03*
%TD*%
D20*
%TO.C,C315*%
X76796600Y-82804000D03*
X78346600Y-82804000D03*
%TD*%
D22*
%TO.C,D1302*%
X101216000Y-27432000D03*
X104016000Y-27432000D03*
%TD*%
D28*
%TO.C,R226*%
X92265000Y-95250000D03*
X90615000Y-95250000D03*
%TD*%
D17*
%TO.C,R706*%
X95654500Y-105664000D03*
X93829500Y-105664000D03*
%TD*%
D29*
%TO.C,R219*%
X98557500Y-57065500D03*
X98557500Y-58890500D03*
%TD*%
D21*
%TO.C,C311*%
X73450000Y-100190600D03*
X73450000Y-98640600D03*
%TD*%
D24*
%TO.C,R801*%
X30078972Y-94117600D03*
X31728972Y-94117600D03*
%TD*%
D28*
%TO.C,R227*%
X111442000Y-42545000D03*
X109792000Y-42545000D03*
%TD*%
%TO.C,R503*%
X84137000Y-97028000D03*
X82487000Y-97028000D03*
%TD*%
D19*
%TO.C,R216*%
X68834000Y-110681000D03*
X68834000Y-112331000D03*
%TD*%
D12*
%TO.C,C318*%
X85611000Y-84582000D03*
X84061000Y-84582000D03*
%TD*%
D19*
%TO.C,R224*%
X66548000Y-72073000D03*
X66548000Y-73723000D03*
%TD*%
D30*
%TO.C,C301*%
X89916000Y-90236000D03*
X89916000Y-92136000D03*
%TD*%
D31*
%TO.C,R602*%
X78232000Y-89217000D03*
X78232000Y-87567000D03*
%TD*%
D32*
%TO.C,U1204*%
X111699000Y-69347500D03*
X112649000Y-69347500D03*
X113599000Y-69347500D03*
X113599000Y-71622500D03*
X112649000Y-71622500D03*
X111699000Y-71622500D03*
%TD*%
D31*
%TO.C,R212*%
X67310000Y-112331000D03*
X67310000Y-110681000D03*
%TD*%
D10*
%TO.C,R701*%
X93829500Y-92964000D03*
X95654500Y-92964000D03*
%TD*%
%TO.C,R233*%
X110339500Y-37338000D03*
X112164500Y-37338000D03*
%TD*%
D31*
%TO.C,R215*%
X108331000Y-60388000D03*
X108331000Y-58738000D03*
%TD*%
D19*
%TO.C,R502*%
X82550000Y-84468200D03*
X82550000Y-86118200D03*
%TD*%
D28*
%TO.C,R501*%
X81139800Y-86055200D03*
X79489800Y-86055200D03*
%TD*%
D27*
%TO.C,C302*%
X89916000Y-88580000D03*
X89916000Y-86680000D03*
%TD*%
D28*
%TO.C,R1301*%
X61643000Y-74549000D03*
X59993000Y-74549000D03*
%TD*%
D33*
%TO.C,U210*%
X104648000Y-57028000D03*
X104648000Y-57978000D03*
X104648000Y-58928000D03*
X102373000Y-58928000D03*
X102373000Y-57028000D03*
%TD*%
D31*
%TO.C,R603*%
X67056000Y-89217000D03*
X67056000Y-87567000D03*
%TD*%
D34*
%TO.C,C320*%
X89220000Y-84836000D03*
X91120000Y-84836000D03*
%TD*%
D26*
%TO.C,R1507*%
X68326000Y-73810500D03*
X68326000Y-71985500D03*
%TD*%
D10*
%TO.C,R703*%
X93829500Y-107696000D03*
X95654500Y-107696000D03*
%TD*%
D27*
%TO.C,C217*%
X113157000Y-40955000D03*
X113157000Y-39055000D03*
%TD*%
D26*
%TO.C,R218*%
X100462500Y-58890500D03*
X100462500Y-57065500D03*
%TD*%
D35*
%TO.C,J701*%
X97347500Y-109882500D03*
X97347500Y-107382500D03*
X97347500Y-104082500D03*
X97347500Y-102372500D03*
X97347500Y-99872500D03*
X97347500Y-97372500D03*
X97347500Y-94952500D03*
X97347500Y-93252500D03*
X97347500Y-112382500D03*
X97347500Y-105732500D03*
X97347500Y-89902500D03*
D36*
X118347500Y-117402500D03*
X119547500Y-89402500D03*
%TD*%
D37*
%TO.C,U602*%
X73494000Y-87689000D03*
X73494000Y-85539000D03*
X71794000Y-87689000D03*
X71794000Y-85539000D03*
D38*
X75344000Y-84709000D03*
X75344000Y-85979000D03*
X75344000Y-87249000D03*
X75344000Y-88519000D03*
X69944000Y-88519000D03*
X69944000Y-87249000D03*
X69944000Y-85979000D03*
X69944000Y-84709000D03*
%TD*%
D39*
%TO.C,U501*%
X80010000Y-87840000D03*
X81280000Y-87840000D03*
X82550000Y-87840000D03*
X83820000Y-87840000D03*
X83820000Y-95040000D03*
X82550000Y-95040000D03*
X81280000Y-95040000D03*
X80010000Y-95040000D03*
%TD*%
D28*
%TO.C,R601*%
X81139800Y-84582000D03*
X79489800Y-84582000D03*
%TD*%
D20*
%TO.C,C319*%
X84061000Y-86055200D03*
X85611000Y-86055200D03*
%TD*%
M02*
